%FSLAX36Y36*%
%MOMM*%
G04 EasyPC Gerber Version 18.0.8 Build 3632 *
%ADD11C,0.12700*%
%ADD12C,0.20000*%
X0Y0D02*
D02*
D11*
X22287500Y64911500D02*
G75*
G03X20787500Y63411500J-1500000D01*
G01*
Y36911500*
G75*
G03X22287500Y35411500I1500000*
G01*
X127787500*
G75*
G03X129287500Y36911500J1500000*
G01*
Y63411500*
G75*
G03X127787500Y64911500I-1500000*
G01*
X22287500*
X36537500Y54011500D02*
G75*
G03X36037500Y53511500J-500000D01*
G01*
Y43611500*
G75*
G03X36437500Y43211500I400000*
G01*
X44637500*
G75*
G03X45037500Y43611500J400000*
G01*
Y53511500*
G75*
G03X44537500Y54011500I-500000*
G01*
X36537500*
X51037500Y54511500D02*
G75*
G03X50537500Y54011500J-500000D01*
G01*
Y43711500*
G75*
G03X51037500Y43211500I500000*
G01*
X62487500*
G75*
G03X62987500Y43711500J500000*
G01*
Y54011500*
G75*
G03X62487500Y54511500I-500000*
G01*
X51037500*
X68837500Y45211500D02*
G75*
G03X68337500Y44711500J-500000D01*
G01*
Y43711500*
G75*
G03X68837500Y43211500I500000*
G01*
X81887500*
G75*
G03X82387500Y43711500J500000*
G01*
Y44711500*
G75*
G03X81887500Y45211500I-500000*
G01*
X68837500*
X88837500Y56811500D02*
G75*
G03X88337500Y56311500J-500000D01*
G01*
Y43711500*
G75*
G03X88837500Y43211500I500000*
G01*
X104087500*
G75*
G03X104587500Y43711500J500000*
G01*
Y56311500*
G75*
G03X104087500Y56811500I-500000*
G01*
X88837500*
D02*
D12*
X34287500Y40729000D02*
X34446300Y40649600D01*
X34684400*
X34843100Y40729000*
X34922500Y40887800*
Y40967100*
X34843100Y41125900*
X34684400Y41205300*
X34287500*
Y41602100*
X34922500*
X35557500D02*
X35954400Y40649600D01*
X36351300Y41602100*
X38732500Y41046500D02*
X38653100Y41205300D01*
X38494400Y41284600*
X38335600*
X38176900Y41205300*
X38097500Y41046500*
Y40887800*
X38176900Y40729000*
X38335600Y40649600*
X38494400*
X38653100Y40729000*
X38732500Y40887800*
Y40649600D02*
Y41602100D01*
X40002500Y41205300D02*
X39843800Y41284600D01*
X39605600*
X39446900Y41205300*
X39367500Y41046500*
Y40887800*
X39446900Y40729000*
X39605600Y40649600*
X39843800*
X40002500Y40729000*
X41907500Y40967100D02*
X42542500D01*
X44606300Y40649600D02*
X44923800D01*
X44765000D02*
Y41602100D01*
X44606300Y41443400*
X45717500Y40649600D02*
X46114400Y41602100D01*
X46511300Y40649600*
X45876300Y41046500D02*
X46352500D01*
X54787500Y41602100D02*
Y40887800D01*
X54866900Y40729000*
X55025600Y40649600*
X55343100*
X55501900Y40729000*
X55581300Y40887800*
Y41602100*
X56057500Y40887800D02*
X56136900Y40729000D01*
X56295600Y40649600*
X56613100*
X56771900Y40729000*
X56851300Y40887800*
X56771900Y41046500*
X56613100Y41125900*
X56295600*
X56136900Y41205300*
X56057500Y41364000*
X56136900Y41522800*
X56295600Y41602100*
X56613100*
X56771900Y41522800*
X56851300Y41364000*
X57883100Y41125900D02*
X58041900Y41046500D01*
X58121300Y40887800*
X58041900Y40729000*
X57883100Y40649600*
X57327500*
Y41602100*
X57883100*
X58041900Y41522800*
X58121300Y41364000*
X58041900Y41205300*
X57883100Y41125900*
X57327500*
X54787500Y59534600D02*
Y58979000D01*
X54866900Y58899600*
X55025600*
X55105000Y58979000*
Y59217100*
Y58979000D02*
X55184400Y58899600D01*
X55343100*
X55422500Y58979000*
Y59534600*
X56057500D02*
Y58979000D01*
X56136900Y58899600*
X56295600*
X56375000Y58979000*
Y59217100*
Y58979000D02*
X56454400Y58899600D01*
X56613100*
X56692500Y58979000*
Y59534600*
X57327500D02*
Y58979000D01*
X57406900Y58899600*
X57565600*
X57645000Y58979000*
Y59217100*
Y58979000D02*
X57724400Y58899600D01*
X57883100*
X57962500Y58979000*
Y59534600*
X58676900Y58899600D02*
X58756300Y58979000D01*
X58676900Y59058400*
X58597500Y58979000*
X58676900Y58899600*
X59867500D02*
Y59534600D01*
Y59296500D02*
X59946900Y59455300D01*
X60105600Y59534600*
X60264400*
X60423100Y59455300*
X60502500Y59296500*
Y58899600*
X61772500Y58979000D02*
X61693100Y58899600D01*
X61534400*
X61375600*
X61216900Y58979000*
X61137500Y59137800*
Y59375900*
X61216900Y59455300*
X61375600Y59534600*
X61534400*
X61693100Y59455300*
X61772500Y59375900*
Y59296500*
X61693100Y59217100*
X61534400Y59137800*
X61375600*
X61216900Y59217100*
X61137500Y59296500*
X62407500Y59534600D02*
Y58979000D01*
X62486900Y58899600*
X62645600*
X62725000Y58979000*
Y59217100*
Y58979000D02*
X62804400Y58899600D01*
X62963100*
X63042500Y58979000*
Y59534600*
X63836300D02*
X64153800D01*
X63995000Y59693400D02*
Y58979000D01*
X64074400Y58899600*
X64153800*
X64233100Y58979000*
X64947500Y58899600D02*
Y59852100D01*
Y59296500D02*
X65026900Y59455300D01*
X65185600Y59534600*
X65344400*
X65503100Y59455300*
X65582500Y59296500*
Y58899600*
X66535000D02*
Y59534600D01*
Y59772800D02*
X67487500Y58899600*
Y59534600D01*
Y59296500D02*
X67566900Y59455300D01*
X67725600Y59534600*
X67884400*
X68043100Y59455300*
X68122500Y59296500*
Y58899600*
X68757500D02*
Y59852100D01*
Y59217100D02*
X68995600D01*
X69392500Y59534600*
X68995600Y59217100D02*
X69392500Y58899600D01*
X70345000D02*
Y59534600D01*
Y59772800D02*
X71297500Y58899600*
Y59534600D01*
Y59296500D02*
X71376900Y59455300D01*
X71535600Y59534600*
X71694400*
X71853100Y59455300*
X71932500Y59296500*
Y58899600*
X73202500Y59296500D02*
X73123100Y59455300D01*
X72964400Y59534600*
X72805600*
X72646900Y59455300*
X72567500Y59296500*
Y59217100*
X72646900Y59058400*
X72805600Y58979000*
X72964400*
X73123100Y59058400*
X73202500Y59217100*
Y59534600D02*
Y58899600D01*
X73123100Y58740900*
X72964400Y58661500*
X72726300*
X72567500Y58740900*
X73996300Y59534600D02*
X74313800D01*
X74155000Y59693400D02*
Y58979000D01*
X74234400Y58899600*
X74313800*
X74393100Y58979000*
X75742500D02*
X75663100Y58899600D01*
X75504400*
X75345600*
X75186900Y58979000*
X75107500Y59137800*
Y59375900*
X75186900Y59455300*
X75345600Y59534600*
X75504400*
X75663100Y59455300*
X75742500Y59375900*
Y59296500*
X75663100Y59217100*
X75504400Y59137800*
X75345600*
X75186900Y59217100*
X75107500Y59296500*
X77012500Y59455300D02*
X76853800Y59534600D01*
X76615600*
X76456900Y59455300*
X76377500Y59296500*
Y59137800*
X76456900Y58979000*
X76615600Y58899600*
X76853800*
X77012500Y58979000*
X77647500Y58899600D02*
Y59852100D01*
Y59296500D02*
X77726900Y59455300D01*
X77885600Y59534600*
X78044400*
X78203100Y59455300*
X78282500Y59296500*
Y58899600*
X78917500D02*
Y59534600D01*
Y59296500D02*
X78996900Y59455300D01*
X79155600Y59534600*
X79314400*
X79473100Y59455300*
X79552500Y59296500*
Y58899600*
X80187500Y59137800D02*
X80266900Y58979000D01*
X80425600Y58899600*
X80584400*
X80743100Y58979000*
X80822500Y59137800*
Y59296500*
X80743100Y59455300*
X80584400Y59534600*
X80425600*
X80266900Y59455300*
X80187500Y59296500*
Y59137800*
X81854400Y58899600D02*
X81775000D01*
Y59852100*
X82727500Y59137800D02*
X82806900Y58979000D01*
X82965600Y58899600*
X83124400*
X83283100Y58979000*
X83362500Y59137800*
Y59296500*
X83283100Y59455300*
X83124400Y59534600*
X82965600*
X82806900Y59455300*
X82727500Y59296500*
Y59137800*
X84632500Y59296500D02*
X84553100Y59455300D01*
X84394400Y59534600*
X84235600*
X84076900Y59455300*
X83997500Y59296500*
Y59217100*
X84076900Y59058400*
X84235600Y58979000*
X84394400*
X84553100Y59058400*
X84632500Y59217100*
Y59534600D02*
Y58899600D01*
X84553100Y58740900*
X84394400Y58661500*
X84156300*
X83997500Y58740900*
X85585000Y58899600D02*
Y59534600D01*
Y59772800D02*
X87172500Y58979000*
X87093100Y58899600D01*
X86934400*
X86775600*
X86616900Y58979000*
X86537500Y59137800*
Y59375900*
X86616900Y59455300*
X86775600Y59534600*
X86934400*
X87093100Y59455300*
X87172500Y59375900*
Y59296500*
X87093100Y59217100*
X86934400Y59137800*
X86775600*
X86616900Y59217100*
X86537500Y59296500*
X87807500Y58979000D02*
X87966300Y58899600D01*
X88283800*
X88442500Y58979000*
Y59137800*
X88283800Y59217100*
X87966300*
X87807500Y59296500*
Y59455300*
X87966300Y59534600*
X88283800*
X88442500Y59455300*
X89156900Y58899600D02*
X89236300Y58979000D01*
X89156900Y59058400*
X89077500Y58979000*
X89156900Y58899600*
X90982500Y59455300D02*
X90823800Y59534600D01*
X90585600*
X90426900Y59455300*
X90347500Y59296500*
Y59137800*
X90426900Y58979000*
X90585600Y58899600*
X90823800*
X90982500Y58979000*
X91617500Y59137800D02*
X91696900Y58979000D01*
X91855600Y58899600*
X92014400*
X92173100Y58979000*
X92252500Y59137800*
Y59296500*
X92173100Y59455300*
X92014400Y59534600*
X91855600*
X91696900Y59455300*
X91617500Y59296500*
Y59137800*
X92966900Y58899600D02*
X93046300Y58979000D01*
X92966900Y59058400*
X92887500Y58979000*
X92966900Y58899600*
X94157500Y59534600D02*
Y59137800D01*
X94236900Y58979000*
X94395600Y58899600*
X94554400*
X94713100Y58979000*
X94792500Y59137800*
Y59534600D02*
Y58899600D01*
X95427500D02*
Y59852100D01*
Y59217100D02*
X95665600D01*
X96062500Y59534600*
X95665600Y59217100D02*
X96062500Y58899600D01*
X58787500Y61149600D02*
Y62102100D01*
X59581300Y61149600*
Y62102100*
X60692500Y61229000D02*
X60613100Y61149600D01*
X60454400*
X60295600*
X60136900Y61229000*
X60057500Y61387800*
Y61625900*
X60136900Y61705300*
X60295600Y61784600*
X60454400*
X60613100Y61705300*
X60692500Y61625900*
Y61546500*
X60613100Y61467100*
X60454400Y61387800*
X60295600*
X60136900Y61467100*
X60057500Y61546500*
X61327500Y61784600D02*
Y61229000D01*
X61406900Y61149600*
X61565600*
X61645000Y61229000*
Y61467100*
Y61229000D02*
X61724400Y61149600D01*
X61883100*
X61962500Y61229000*
Y61784600*
X64264400Y61149600D02*
Y62102100D01*
X63867500D02*
X64661300D01*
X65137500Y61149600D02*
Y62102100D01*
Y61546500D02*
X65216900Y61705300D01*
X65375600Y61784600*
X65534400*
X65693100Y61705300*
X65772500Y61546500*
Y61149600*
X66725000D02*
Y61784600D01*
Y62022800D02*
X67677500Y61149600*
Y61784600D01*
Y61546500D02*
X67756900Y61705300D01*
X67915600Y61784600*
X68074400*
X68233100Y61705300*
X68312500Y61546500*
Y61149600*
X68947500D02*
Y62102100D01*
Y61467100D02*
X69185600D01*
X69582500Y61784600*
X69185600Y61467100D02*
X69582500Y61149600D01*
X70535000D02*
Y61784600D01*
Y62022800D02*
X71487500Y61149600*
Y61784600D01*
Y61546500D02*
X71566900Y61705300D01*
X71725600Y61784600*
X71884400*
X72043100Y61705300*
X72122500Y61546500*
Y61149600*
X73392500Y61546500D02*
X73313100Y61705300D01*
X73154400Y61784600*
X72995600*
X72836900Y61705300*
X72757500Y61546500*
Y61467100*
X72836900Y61308400*
X72995600Y61229000*
X73154400*
X73313100Y61308400*
X73392500Y61467100*
Y61784600D02*
Y61149600D01*
X73313100Y60990900*
X73154400Y60911500*
X72916300*
X72757500Y60990900*
X75694400Y61149600D02*
Y62102100D01*
X75297500D02*
X76091300D01*
X77202500Y61229000D02*
X77123100Y61149600D01*
X76964400*
X76805600*
X76646900Y61229000*
X76567500Y61387800*
Y61625900*
X76646900Y61705300*
X76805600Y61784600*
X76964400*
X77123100Y61705300*
X77202500Y61625900*
Y61546500*
X77123100Y61467100*
X76964400Y61387800*
X76805600*
X76646900Y61467100*
X76567500Y61546500*
X78472500Y61705300D02*
X78313800Y61784600D01*
X78075600*
X77916900Y61705300*
X77837500Y61546500*
Y61387800*
X77916900Y61229000*
X78075600Y61149600*
X78313800*
X78472500Y61229000*
X79107500Y61149600D02*
Y62102100D01*
Y61546500D02*
X79186900Y61705300D01*
X79345600Y61784600*
X79504400*
X79663100Y61705300*
X79742500Y61546500*
Y61149600*
X80377500D02*
Y61784600D01*
Y61546500D02*
X80456900Y61705300D01*
X80615600Y61784600*
X80774400*
X80933100Y61705300*
X81012500Y61546500*
Y61149600*
X81647500Y61387800D02*
X81726900Y61229000D01*
X81885600Y61149600*
X82044400*
X82203100Y61229000*
X82282500Y61387800*
Y61546500*
X82203100Y61705300*
X82044400Y61784600*
X81885600*
X81726900Y61705300*
X81647500Y61546500*
Y61387800*
X83314400Y61149600D02*
X83235000D01*
Y62102100*
X84187500Y61387800D02*
X84266900Y61229000D01*
X84425600Y61149600*
X84584400*
X84743100Y61229000*
X84822500Y61387800*
Y61546500*
X84743100Y61705300*
X84584400Y61784600*
X84425600*
X84266900Y61705300*
X84187500Y61546500*
Y61387800*
X86092500Y61546500D02*
X86013100Y61705300D01*
X85854400Y61784600*
X85695600*
X85536900Y61705300*
X85457500Y61546500*
Y61467100*
X85536900Y61308400*
X85695600Y61229000*
X85854400*
X86013100Y61308400*
X86092500Y61467100*
Y61784600D02*
Y61149600D01*
X86013100Y60990900*
X85854400Y60911500*
X85616300*
X85457500Y60990900*
X87045000Y61149600D02*
Y61784600D01*
Y62022800D02*
X88632500Y61229000*
X88553100Y61149600D01*
X88394400*
X88235600*
X88076900Y61229000*
X87997500Y61387800*
Y61625900*
X88076900Y61705300*
X88235600Y61784600*
X88394400*
X88553100Y61705300*
X88632500Y61625900*
Y61546500*
X88553100Y61467100*
X88394400Y61387800*
X88235600*
X88076900Y61467100*
X87997500Y61546500*
X89267500Y61229000D02*
X89426300Y61149600D01*
X89743800*
X89902500Y61229000*
Y61387800*
X89743800Y61467100*
X89426300*
X89267500Y61546500*
Y61705300*
X89426300Y61784600*
X89743800*
X89902500Y61705300*
X69287500Y56887800D02*
X69366900Y56729000D01*
X69525600Y56649600*
X69843100*
X70001900Y56729000*
X70081300Y56887800*
X70001900Y57046500*
X69843100Y57125900*
X69525600*
X69366900Y57205300*
X69287500Y57364000*
X69366900Y57522800*
X69525600Y57602100*
X69843100*
X70001900Y57522800*
X70081300Y57364000*
X70557500Y56649600D02*
Y57602100D01*
X70954400Y57125900*
X71351300Y57602100*
Y56649600*
X71827500D02*
X72224400Y57602100D01*
X72621300Y56649600*
X71986300Y57046500D02*
X72462500D01*
X73097500Y56649600D02*
Y57602100D01*
X73653100*
X73811900Y57522800*
X73891300Y57364000*
X73811900Y57205300*
X73653100Y57125900*
X73097500*
X73653100D02*
X73891300Y56649600D01*
X74764400D02*
Y57602100D01*
X74367500D02*
X75161300D01*
X75637500Y56967100D02*
X76272500D01*
X76907500Y56649600D02*
X77304400Y57602100D01*
X77701300Y56649600*
X77066300Y57046500D02*
X77542500D01*
X70787500Y40649600D02*
Y41602100D01*
X71184400Y41125900*
X71581300Y41602100*
Y40649600*
X72375000D02*
Y41284600D01*
Y41522800D02*
X73962500Y41205300*
X73803800Y41284600D01*
X73565600*
X73406900Y41205300*
X73327500Y41046500*
Y40887800*
X73406900Y40729000*
X73565600Y40649600*
X73803800*
X73962500Y40729000*
X74597500Y40649600D02*
Y41284600D01*
Y41046500D02*
X74676900Y41205300D01*
X74835600Y41284600*
X74994400*
X75153100Y41205300*
X75867500Y40887800D02*
X75946900Y40729000D01*
X76105600Y40649600*
X76264400*
X76423100Y40729000*
X76502500Y40887800*
Y41046500*
X76423100Y41205300*
X76264400Y41284600*
X76105600*
X75946900Y41205300*
X75867500Y41046500*
Y40887800*
X78407500D02*
X78486900Y40729000D01*
X78645600Y40649600*
X78963100*
X79121900Y40729000*
X79201300Y40887800*
X79121900Y41046500*
X78963100Y41125900*
X78645600*
X78486900Y41205300*
X78407500Y41364000*
X78486900Y41522800*
X78645600Y41602100*
X78963100*
X79121900Y41522800*
X79201300Y41364000*
X79677500Y40649600D02*
Y41602100D01*
X80153800*
X80312500Y41522800*
X80391900Y41443400*
X80471300Y41284600*
Y40967100*
X80391900Y40808400*
X80312500Y40729000*
X80153800Y40649600*
X79677500*
X92287500D02*
Y41602100D01*
X93081300*
X92922500Y41125900D02*
X92287500D01*
Y40649600D02*
X93081300D01*
X93954400D02*
Y41602100D01*
X93557500D02*
X94351300D01*
X94827500Y40649600D02*
Y41602100D01*
Y41125900D02*
X95621300D01*
Y40649600D02*
Y41602100D01*
X96097500Y40649600D02*
Y41602100D01*
X96891300*
X96732500Y41125900D02*
X96097500D01*
Y40649600D02*
X96891300D01*
X97367500D02*
Y41602100D01*
X97923100*
X98081900Y41522800*
X98161300Y41364000*
X98081900Y41205300*
X97923100Y41125900*
X97367500*
X97923100D02*
X98161300Y40649600D01*
X98637500D02*
Y41602100D01*
X99431300Y40649600*
Y41602100*
X99907500Y40649600D02*
Y41602100D01*
X100701300*
X100542500Y41125900D02*
X99907500D01*
Y40649600D02*
X100701300D01*
X101574400D02*
Y41602100D01*
X101177500D02*
X101971300D01*
X0Y0D02*
M02*
