%FSLAX36Y36*%
%MOMM*%
G04 EasyPC Gerber Version 18.0.8 Build 3632 *
%ADD27R,3.91000X26.66000*%
%ADD11C,0.12700*%
%ADD83C,1.41000*%
%ADD13C,5.16000*%
%ADD23R,105.66000X2.66000*%
X0Y0D02*
D02*
D11*
X22287500Y64911500D02*
G75*
G03X20787500Y63411500J-1500000D01*
G01*
Y36911500*
G75*
G03X22287500Y35411500I1500000*
G01*
X127787500*
G75*
G03X129287500Y36911500J1500000*
G01*
Y63411500*
G75*
G03X127787500Y64911500I-1500000*
G01*
X22287500*
X36537500Y54011500D02*
G75*
G03X36037500Y53511500J-500000D01*
G01*
Y43611500*
G75*
G03X36437500Y43211500I400000*
G01*
X44637500*
G75*
G03X45037500Y43611500J400000*
G01*
Y53511500*
G75*
G03X44537500Y54011500I-500000*
G01*
X36537500*
X51037500Y54511500D02*
G75*
G03X50537500Y54011500J-500000D01*
G01*
Y43711500*
G75*
G03X51037500Y43211500I500000*
G01*
X62487500*
G75*
G03X62987500Y43711500J500000*
G01*
Y54011500*
G75*
G03X62487500Y54511500I-500000*
G01*
X51037500*
X68837500Y45211500D02*
G75*
G03X68337500Y44711500J-500000D01*
G01*
Y43711500*
G75*
G03X68837500Y43211500I500000*
G01*
X81887500*
G75*
G03X82387500Y43711500J500000*
G01*
Y44711500*
G75*
G03X81887500Y45211500I-500000*
G01*
X68837500*
X88837500Y56811500D02*
G75*
G03X88337500Y56311500J-500000D01*
G01*
Y43711500*
G75*
G03X88837500Y43211500I500000*
G01*
X104087500*
G75*
G03X104587500Y43711500J500000*
G01*
Y56311500*
G75*
G03X104087500Y56811500I-500000*
G01*
X88837500*
D02*
D13*
X26787500Y38661500D03*
Y60161500D03*
X123287500Y38661500D03*
Y60161500D03*
D02*
D23*
X75012500Y63336500D03*
X75062500Y36986500D03*
D02*
D27*
X22987500Y49911500D03*
X127087500Y50036500D03*
D02*
D83*
X36287500Y43411500D03*
Y53811500D03*
X44887500Y43411500D03*
Y53811500D03*
X50787500Y43411500D03*
Y54311500D03*
X62837500Y43411500D03*
Y54311500D03*
X68575000Y43374000D03*
Y45061500D03*
X82275000Y43361500D03*
Y45024000D03*
X88550000Y43374000D03*
X88587500Y56586500D03*
X104450000Y43374000D03*
X104462500Y56636500D03*
X0Y0D02*
M02*
