%FSLAX36Y36*%
%MOMM*%
G04 EasyPC Gerber Version 18.0.8 Build 3632 *
%ADD82R,1.50000X16.75000*%
%ADD81R,2.00000X16.75000*%
%ADD28R,3.75000X26.50000*%
%ADD11C,0.12700*%
%ADD12C,0.20000*%
%ADD84C,1.25000*%
%ADD15C,5.00000*%
%ADD85C,6.41000*%
%ADD25R,105.50000X2.50000*%
%ADD79R,39.20000X3.00000*%
%ADD80R,6.20000X6.20000*%
X0Y0D02*
D02*
D11*
X41118600Y64458800D02*
G75*
G03X40393700Y63411500I394100J-1047300D01*
G01*
Y36911500*
G75*
G03X41512700Y35792500I1119000*
G01*
X147012700*
G75*
G03X148131700Y36911500J1119000*
G01*
Y63411500*
G75*
G03X147406800Y64458800I-1119000*
G01*
G75*
G03X147012700Y64511500I-394100J-1447200*
G01*
X41512700*
G75*
G03X41118600Y64458800J-1500000*
G01*
X54881700Y44111600D02*
Y53111400D01*
G75*
G02X54570200Y53811500I631000J700100*
G01*
G75*
G02X56323200Y54292500I942500*
G01*
X63302200*
G75*
G02X65055200Y53811500I810500J-481000*
G01*
G75*
G02X64643700Y53032800I-942500*
G01*
Y44190200*
G75*
G02X65055200Y43411500I-531000J-778700*
G01*
G75*
G02X63461100Y42730500I-942500*
G01*
X56164300*
G75*
G02X54570200Y43411500I-651600J681000*
G01*
G75*
G02X54881700Y44111600I942500*
G01*
X69381700D02*
Y53611400D01*
G75*
G02X69070200Y54311500I631000J700100*
G01*
G75*
G02X70754800Y54892500I942500*
G01*
X81320600*
G75*
G02X83005200Y54311500I742100J-581000*
G01*
G75*
G02X82593700Y53532800I-942500*
G01*
Y44190200*
G75*
G02X83005200Y43411500I-531000J-778700*
G01*
G75*
G02X81320600Y42830500I-942500*
G01*
X70754800*
G75*
G02X69070200Y43411500I-742100J581000*
G01*
G75*
G02X69381700Y44111600I942500*
G01*
X87181700Y44085200D02*
Y44350300D01*
G75*
G02X86857700Y45061500I618500J711200*
G01*
G75*
G02X88578900Y45592500I942500*
G01*
X100748500*
G75*
G02X102442700Y45024000I751700J-568500*
G01*
G75*
G02X101993700Y44221000I-942500*
G01*
Y44164500*
G75*
G02X102442700Y43361500I-493500J-803000*
G01*
G75*
G02X100721500Y42830500I-942500*
G01*
X88570200*
G75*
G02X86857700Y43374000I-770000J543500*
G01*
G75*
G02X87181700Y44085200I942500*
G01*
X107181700Y44106200D02*
Y55886400D01*
G75*
G02X106870200Y56586500I631000J700100*
G01*
G75*
G02X108534600Y57192500I942500*
G01*
X122926700*
G75*
G02X124630200Y56636500I761000J-556000*
G01*
G75*
G02X124193700Y55841300I-942500*
G01*
Y44161100*
G75*
G02X124617700Y43374000I-518600J-787100*
G01*
G75*
G02X122905200Y42830500I-942500*
G01*
X108545200*
G75*
G02X106832700Y43374000I-770000J543500*
G01*
G75*
G02X107181700Y44106200I942500*
G01*
X109730200Y38811500D02*
G75*
G02X109412700Y38494000I-317500D01*
G01*
X77462700*
G75*
G02X77145200Y38811500J317500*
G01*
Y40535500*
G75*
G02X77462700Y40853000I317500*
G01*
X109412700*
G75*
G02X109730200Y40535500J-317500*
G01*
Y38811500*
X40393700Y48611500D02*
G36*
Y44211500D01*
X54881700*
Y48611500*
X40393700*
G37*
X54881700D02*
G36*
Y53111400D01*
G75*
G02X54570200Y53811500I631000J700100*
G01*
G75*
G02X56323200Y54292500I942500*
G01*
X63302200*
G75*
G02X65055200Y53811500I810500J-481000*
G01*
G75*
G02X64643700Y53032800I-942500*
G01*
Y48611500*
X69381700*
Y53611400*
G75*
G02X69070200Y54311500I631000J700100*
G01*
G75*
G02X70754800Y54892500I942500*
G01*
X81320600*
G75*
G02X83005200Y54311500I742100J-581000*
G01*
G75*
G02X82593700Y53532800I-942500*
G01*
Y48611500*
X107181700*
Y55886400*
G75*
G02X106870200Y56586500I631000J700100*
G01*
G75*
G02X108534600Y57192500I942500*
G01*
X122926700*
G75*
G02X124630200Y56636500I761000J-556000*
G01*
G75*
G02X124193700Y55841300I-942500*
G01*
Y48611500*
X148131700*
Y63411500*
G75*
G03X147406800Y64458800I-1119000*
G01*
G75*
G03X147012700Y64511500I-394100J-1447200*
G01*
X41512700*
G75*
G03X41118600Y64458800J-1500000*
G01*
G75*
G03X40393700Y63411500I394100J-1047300*
G01*
Y48611500*
X54881700*
G37*
X64643700D02*
G36*
Y44211500D01*
X69381700*
Y48611500*
X64643700*
G37*
X82593700D02*
G36*
Y44211500D01*
X87181700*
Y44350300*
G75*
G02X86857700Y45061500I618500J711200*
G01*
G75*
G02X88578900Y45592500I942500*
G01*
X100748500*
G75*
G02X102442700Y45024000I751700J-568500*
G01*
G75*
G02X101993700Y44221000I-942500*
G01*
Y44211500*
X107181700*
Y48611500*
X82593700*
G37*
X124193700D02*
G36*
Y44211500D01*
X148131700*
Y48611500*
X124193700*
G37*
X40393700Y44211500D02*
G36*
Y39673500D01*
X77145200*
Y40535500*
G75*
G02X77462700Y40853000I317500*
G01*
X109412700*
G75*
G02X109730200Y40535500J-317500*
G01*
Y39673500*
X148131700*
Y44211500*
X124193700*
Y44161100*
G75*
G02X124617700Y43374000I-518600J-787100*
G01*
G75*
G02X122905200Y42830500I-942500*
G01*
X108545200*
G75*
G02X106832700Y43374000I-770000J543500*
G01*
G75*
G02X107181700Y44106200I942500*
G01*
Y44211500*
X101993700*
Y44164500*
G75*
G02X102442700Y43361500I-493500J-803000*
G01*
G75*
G02X100721500Y42830500I-942500*
G01*
X88570200*
G75*
G02X86857700Y43374000I-770000J543500*
G01*
G75*
G02X87181700Y44085200I942500*
G01*
Y44211500*
X82593700*
Y44190200*
G75*
G02X83005200Y43411500I-531000J-778700*
G01*
G75*
G02X81320600Y42830500I-942500*
G01*
X70754800*
G75*
G02X69070200Y43411500I-742100J581000*
G01*
G75*
G02X69381700Y44111600I942500*
G01*
Y44211500*
X64643700*
Y44190200*
G75*
G02X65055200Y43411500I-531000J-778700*
G01*
G75*
G02X63461100Y42730500I-942500*
G01*
X56164300*
G75*
G02X54570200Y43411500I-651600J681000*
G01*
G75*
G02X54881700Y44111600I942500*
G01*
Y44211500*
X40393700*
G37*
Y39673500D02*
G36*
Y36911500D01*
G75*
G03X41512700Y35792500I1119000*
G01*
X147012700*
G75*
G03X148131700Y36911500J1119000*
G01*
Y39673500*
X109730200*
Y38811500*
G75*
G02X109412700Y38494000I-317500*
G01*
X77462700*
G75*
G02X77145200Y38811500J317500*
G01*
Y39673500*
X40393700*
G37*
X41118600Y68364200D02*
G75*
G03X41512700Y68311500I394100J1447300D01*
G01*
X147012700*
G75*
G03X147406800Y68364200J1499900*
G01*
G75*
G03X148131700Y69411500I-394100J1047300*
G01*
Y95911500*
G75*
G03X147012700Y97030500I-1119000*
G01*
X41512700*
G75*
G03X40393700Y95911500J-1119000*
G01*
Y69411500*
G75*
G03X41118600Y68364200I1119000*
G01*
X53962700Y83873100D02*
X56595100D01*
G75*
G02X60441700Y87357500I3846600J-381000*
G01*
X80783900*
G75*
G02X84624200Y83879300J-3859100*
G01*
X87275300*
G75*
G02X89131900Y82022700J-1856600*
G01*
Y81966900*
G75*
G02X87269100Y80104100I-1862800*
G01*
X84624300*
G75*
G02X80765300Y76607300I-3859000J381000*
G01*
X60447900*
G75*
G02X56612600Y80091700J3853000*
G01*
X53956500*
G75*
G02X52093700Y81954500J1862800*
G01*
Y82004100*
G75*
G02X53962700Y83873100I1869000*
G01*
X90740200Y82661500D02*
G75*
G02X97785200I3522500D01*
G01*
G75*
G02X90740200I-3522500*
G01*
X101283700Y83873100D02*
X103916100D01*
G75*
G02X107762700Y87357500I3846600J-381000*
G01*
X128104900*
G75*
G02X131945200Y83879300J-3859100*
G01*
X134596300*
G75*
G02X136452900Y82022700J-1856600*
G01*
Y81966900*
G75*
G02X134590100Y80104100I-1862800*
G01*
X131945300*
G75*
G02X128086300Y76607300I-3859000J381000*
G01*
X107768900*
G75*
G02X103933600Y80091700J3853000*
G01*
X101277500*
G75*
G02X99414700Y81954500J1862800*
G01*
Y82004100*
G75*
G02X101283700Y83873100I1869000*
G01*
X110530200Y71411500D02*
G75*
G02X110212700Y71094000I-317500D01*
G01*
X78262700*
G75*
G02X77945200Y71411500J317500*
G01*
Y73135500*
G75*
G02X78262700Y73453000I317500*
G01*
X110212700*
G75*
G02X110530200Y73135500J-317500*
G01*
Y71411500*
X40393700Y81982400D02*
G36*
Y72273500D01*
X77945200*
Y73135500*
G75*
G02X78262700Y73453000I317500*
G01*
X110212700*
G75*
G02X110530200Y73135500J-317500*
G01*
Y72273500*
X148131700*
Y81982400*
X136452900*
Y81966900*
G75*
G02X134590100Y80104100I-1862800*
G01*
X131945300*
G75*
G02X128086300Y76607300I-3859000J381000*
G01*
X107768900*
G75*
G02X103933600Y80091700J3853000*
G01*
X101277500*
G75*
G02X99414700Y81954500J1862800*
G01*
Y81982400*
X97719100*
G75*
G02X90806300I-3456400J679100*
G01*
X89131900*
Y81966900*
G75*
G02X87269100Y80104100I-1862800*
G01*
X84624300*
G75*
G02X80765300Y76607300I-3859000J381000*
G01*
X60447900*
G75*
G02X56612600Y80091700J3853000*
G01*
X53956500*
G75*
G02X52093700Y81954500J1862800*
G01*
Y81982400*
X40393700*
G37*
X52093700D02*
G36*
Y82004100D01*
G75*
G02X53962700Y83873100I1869000*
G01*
X56595100*
G75*
G02X60441700Y87357500I3846600J-381000*
G01*
X80783900*
G75*
G02X84624200Y83879300J-3859100*
G01*
X87275300*
G75*
G02X89131900Y82022700J-1856600*
G01*
Y81982400*
X90806300*
G75*
G02X90740200Y82661500I3456300J679200*
G01*
G75*
G02X97785200I3522500*
G01*
G75*
G02X97719100Y81982400I-3522700J100*
G01*
X99414700*
Y82004100*
G75*
G02X101283700Y83873100I1869000*
G01*
X103916100*
G75*
G02X107762700Y87357500I3846600J-381000*
G01*
X128104900*
G75*
G02X131945200Y83879300J-3859100*
G01*
X134596300*
G75*
G02X136452900Y82022700J-1856600*
G01*
Y81982400*
X148131700*
Y95911500*
G75*
G03X147012700Y97030500I-1119000*
G01*
X41512700*
G75*
G03X40393700Y95911500J-1119000*
G01*
Y81982400*
X52093700*
G37*
X40393700Y72273500D02*
G36*
Y69411500D01*
G75*
G03X41118600Y68364200I1119000*
G01*
G75*
G03X41512700Y68311500I394100J1447300*
G01*
X147012700*
G75*
G03X147406800Y68364200J1499900*
G01*
G75*
G03X148131700Y69411500I-394100J1047300*
G01*
Y72273500*
X110530200*
Y71411500*
G75*
G02X110212700Y71094000I-317500*
G01*
X78262700*
G75*
G02X77945200Y71411500J317500*
G01*
Y72273500*
X40393700*
G37*
X41512700Y97411500D02*
G75*
G03X40012700Y95911500J-1500000D01*
G01*
Y69411500*
G75*
G03X41512700Y67911500I1500000*
G01*
X50012700*
G75*
G02X51012700Y66911500J-1000000*
G01*
Y65911500*
G75*
G02X50012700Y64911500I-1000000*
G01*
X41512700*
G75*
G03X40012700Y63411500J-1500000*
G01*
Y36911500*
G75*
G03X41512700Y35411500I1500000*
G01*
X147012700*
G75*
G03X148512700Y36911500J1500000*
G01*
Y63411500*
G75*
G03X147012700Y64911500I-1500000*
G01*
X138012700*
G75*
G02X137012700Y65911500J1000000*
G01*
Y66911500*
G75*
G02X138012700Y67911500I1000000*
G01*
X147012700*
G75*
G03X148512700Y69411500J1500000*
G01*
Y95911500*
G75*
G03X147012700Y97411500I-1500000*
G01*
X41512700*
X53012700Y67911500D02*
G75*
G03X52012700Y66911500J-1000000D01*
G01*
Y65911500*
G75*
G03X53012700Y64911500I1000000*
G01*
X135012700*
G75*
G03X136012700Y65911500J1000000*
G01*
Y66911500*
G75*
G03X135012700Y67911500I-1000000*
G01*
X53012700*
X55762700Y53911500D02*
G75*
G03X55262700Y53411500J-500000D01*
G01*
Y43511500*
G75*
G03X55662700Y43111500I400000*
G01*
X63862700*
G75*
G03X64262700Y43511500J400000*
G01*
Y53411500*
G75*
G03X63762700Y53911500I-500000*
G01*
X55762700*
X60441700Y86976500D02*
G75*
G03X56957300Y83492100J-3484400D01*
G01*
X53962700*
G75*
G03X52474700Y82004100J-1488000*
G01*
Y81954500*
G75*
G03X53956500Y80472700I1481800*
G01*
X56975900*
Y80460300*
G75*
G03X60447900Y76988300I3472000*
G01*
X80765300*
G75*
G03X84262100Y80485100J3496800*
G01*
X87269100*
G75*
G03X88750900Y81966900J1481800*
G01*
Y82022700*
G75*
G03X87275300Y83498300I-1475600*
G01*
X84262100*
G75*
G03X80783900Y86976500I-3478200*
G01*
X60441700*
X70262700Y54511500D02*
G75*
G03X69762700Y54011500J-500000D01*
G01*
Y43711500*
G75*
G03X70262700Y43211500I500000*
G01*
X81712700*
G75*
G03X82212700Y43711500J500000*
G01*
Y54011500*
G75*
G03X81712700Y54511500I-500000*
G01*
X70262700*
X88062700Y45211500D02*
G75*
G03X87562700Y44711500J-500000D01*
G01*
Y43711500*
G75*
G03X88062700Y43211500I500000*
G01*
X101112700*
G75*
G03X101612700Y43711500J500000*
G01*
Y44711500*
G75*
G03X101112700Y45211500I-500000*
G01*
X88062700*
X107762700Y86976500D02*
G75*
G03X104278300Y83492100J-3484400D01*
G01*
X101283700*
G75*
G03X99795700Y82004100J-1488000*
G01*
Y81954500*
G75*
G03X101277500Y80472700I1481800*
G01*
X104296900*
Y80460300*
G75*
G03X107768900Y76988300I3472000*
G01*
X128086300*
G75*
G03X131583100Y80485100J3496800*
G01*
X134590100*
G75*
G03X136071900Y81966900J1481800*
G01*
Y82022700*
G75*
G03X134596300Y83498300I-1475600*
G01*
X131583100*
G75*
G03X128104900Y86976500I-3478200*
G01*
X107762700*
X108062700Y56811500D02*
G75*
G03X107562700Y56311500J-500000D01*
G01*
Y43711500*
G75*
G03X108062700Y43211500I500000*
G01*
X123312700*
G75*
G03X123812700Y43711500J500000*
G01*
Y56311500*
G75*
G03X123312700Y56811500I-500000*
G01*
X108062700*
D02*
D12*
X109312700Y39149600D02*
Y40102100D01*
X108518900Y39149600*
Y40102100*
X107407700Y39229000D02*
X107487100Y39149600D01*
X107645800*
X107804600*
X107963300Y39229000*
X108042700Y39387800*
Y39625900*
X107963300Y39705300*
X107804600Y39784600*
X107645800*
X107487100Y39705300*
X107407700Y39625900*
Y39546500*
X107487100Y39467100*
X107645800Y39387800*
X107804600*
X107963300Y39467100*
X108042700Y39546500*
X106772700Y39784600D02*
Y39229000D01*
X106693300Y39149600*
X106534600*
X106455200Y39229000*
Y39467100*
Y39229000D02*
X106375800Y39149600D01*
X106217100*
X106137700Y39229000*
Y39784600*
X103835800Y39149600D02*
Y40102100D01*
X104232700D02*
X103438900D01*
X102962700Y39149600D02*
Y40102100D01*
Y39546500D02*
X102883300Y39705300D01*
X102724600Y39784600*
X102565800*
X102407100Y39705300*
X102327700Y39546500*
Y39149600*
X101375200D02*
Y39784600D01*
Y40022800D02*
X100422700Y39149600*
Y39784600D01*
Y39546500D02*
X100343300Y39705300D01*
X100184600Y39784600*
X100025800*
X99867100Y39705300*
X99787700Y39546500*
Y39149600*
X99152700D02*
Y40102100D01*
Y39467100D02*
X98914600D01*
X98517700Y39784600*
X98914600Y39467100D02*
X98517700Y39149600D01*
X97565200D02*
Y39784600D01*
Y40022800D02*
X96612700Y39149600*
Y39784600D01*
Y39546500D02*
X96533300Y39705300D01*
X96374600Y39784600*
X96215800*
X96057100Y39705300*
X95977700Y39546500*
Y39149600*
X94707700Y39546500D02*
X94787100Y39705300D01*
X94945800Y39784600*
X95104600*
X95263300Y39705300*
X95342700Y39546500*
Y39467100*
X95263300Y39308400*
X95104600Y39229000*
X94945800*
X94787100Y39308400*
X94707700Y39467100*
Y39784600D02*
Y39149600D01*
X94787100Y38990900*
X94945800Y38911500*
X95183900*
X95342700Y38990900*
X92405800Y39149600D02*
Y40102100D01*
X92802700D02*
X92008900D01*
X90897700Y39229000D02*
X90977100Y39149600D01*
X91135800*
X91294600*
X91453300Y39229000*
X91532700Y39387800*
Y39625900*
X91453300Y39705300*
X91294600Y39784600*
X91135800*
X90977100Y39705300*
X90897700Y39625900*
Y39546500*
X90977100Y39467100*
X91135800Y39387800*
X91294600*
X91453300Y39467100*
X91532700Y39546500*
X89627700Y39705300D02*
X89786400Y39784600D01*
X90024600*
X90183300Y39705300*
X90262700Y39546500*
Y39387800*
X90183300Y39229000*
X90024600Y39149600*
X89786400*
X89627700Y39229000*
X88992700Y39149600D02*
Y40102100D01*
Y39546500D02*
X88913300Y39705300D01*
X88754600Y39784600*
X88595800*
X88437100Y39705300*
X88357700Y39546500*
Y39149600*
X87722700D02*
Y39784600D01*
Y39546500D02*
X87643300Y39705300D01*
X87484600Y39784600*
X87325800*
X87167100Y39705300*
X87087700Y39546500*
Y39149600*
X86452700Y39387800D02*
X86373300Y39229000D01*
X86214600Y39149600*
X86055800*
X85897100Y39229000*
X85817700Y39387800*
Y39546500*
X85897100Y39705300*
X86055800Y39784600*
X86214600*
X86373300Y39705300*
X86452700Y39546500*
Y39387800*
X84785800Y39149600D02*
X84865200D01*
Y40102100*
X83912700Y39387800D02*
X83833300Y39229000D01*
X83674600Y39149600*
X83515800*
X83357100Y39229000*
X83277700Y39387800*
Y39546500*
X83357100Y39705300*
X83515800Y39784600*
X83674600*
X83833300Y39705300*
X83912700Y39546500*
Y39387800*
X82007700Y39546500D02*
X82087100Y39705300D01*
X82245800Y39784600*
X82404600*
X82563300Y39705300*
X82642700Y39546500*
Y39467100*
X82563300Y39308400*
X82404600Y39229000*
X82245800*
X82087100Y39308400*
X82007700Y39467100*
Y39784600D02*
Y39149600D01*
X82087100Y38990900*
X82245800Y38911500*
X82483900*
X82642700Y38990900*
X81055200Y39149600D02*
Y39784600D01*
Y40022800D02*
X79467700Y39229000*
X79547100Y39149600D01*
X79705800*
X79864600*
X80023300Y39229000*
X80102700Y39387800*
Y39625900*
X80023300Y39705300*
X79864600Y39784600*
X79705800*
X79547100Y39705300*
X79467700Y39625900*
Y39546500*
X79547100Y39467100*
X79705800Y39387800*
X79864600*
X80023300Y39467100*
X80102700Y39546500*
X78832700Y39229000D02*
X78673900Y39149600D01*
X78356400*
X78197700Y39229000*
Y39387800*
X78356400Y39467100*
X78673900*
X78832700Y39546500*
Y39705300*
X78673900Y39784600*
X78356400*
X78197700Y39705300*
X110112700Y71749600D02*
Y72702100D01*
X109318900Y71749600*
Y72702100*
X108207700Y71829000D02*
X108287100Y71749600D01*
X108445800*
X108604600*
X108763300Y71829000*
X108842700Y71987800*
Y72225900*
X108763300Y72305300*
X108604600Y72384600*
X108445800*
X108287100Y72305300*
X108207700Y72225900*
Y72146500*
X108287100Y72067100*
X108445800Y71987800*
X108604600*
X108763300Y72067100*
X108842700Y72146500*
X107572700Y72384600D02*
Y71829000D01*
X107493300Y71749600*
X107334600*
X107255200Y71829000*
Y72067100*
Y71829000D02*
X107175800Y71749600D01*
X107017100*
X106937700Y71829000*
Y72384600*
X104635800Y71749600D02*
Y72702100D01*
X105032700D02*
X104238900D01*
X103762700Y71749600D02*
Y72702100D01*
Y72146500D02*
X103683300Y72305300D01*
X103524600Y72384600*
X103365800*
X103207100Y72305300*
X103127700Y72146500*
Y71749600*
X102175200D02*
Y72384600D01*
Y72622800D02*
X101222700Y71749600*
Y72384600D01*
Y72146500D02*
X101143300Y72305300D01*
X100984600Y72384600*
X100825800*
X100667100Y72305300*
X100587700Y72146500*
Y71749600*
X99952700D02*
Y72702100D01*
Y72067100D02*
X99714600D01*
X99317700Y72384600*
X99714600Y72067100D02*
X99317700Y71749600D01*
X98365200D02*
Y72384600D01*
Y72622800D02*
X97412700Y71749600*
Y72384600D01*
Y72146500D02*
X97333300Y72305300D01*
X97174600Y72384600*
X97015800*
X96857100Y72305300*
X96777700Y72146500*
Y71749600*
X95507700Y72146500D02*
X95587100Y72305300D01*
X95745800Y72384600*
X95904600*
X96063300Y72305300*
X96142700Y72146500*
Y72067100*
X96063300Y71908400*
X95904600Y71829000*
X95745800*
X95587100Y71908400*
X95507700Y72067100*
Y72384600D02*
Y71749600D01*
X95587100Y71590900*
X95745800Y71511500*
X95983900*
X96142700Y71590900*
X93205800Y71749600D02*
Y72702100D01*
X93602700D02*
X92808900D01*
X91697700Y71829000D02*
X91777100Y71749600D01*
X91935800*
X92094600*
X92253300Y71829000*
X92332700Y71987800*
Y72225900*
X92253300Y72305300*
X92094600Y72384600*
X91935800*
X91777100Y72305300*
X91697700Y72225900*
Y72146500*
X91777100Y72067100*
X91935800Y71987800*
X92094600*
X92253300Y72067100*
X92332700Y72146500*
X90427700Y72305300D02*
X90586400Y72384600D01*
X90824600*
X90983300Y72305300*
X91062700Y72146500*
Y71987800*
X90983300Y71829000*
X90824600Y71749600*
X90586400*
X90427700Y71829000*
X89792700Y71749600D02*
Y72702100D01*
Y72146500D02*
X89713300Y72305300D01*
X89554600Y72384600*
X89395800*
X89237100Y72305300*
X89157700Y72146500*
Y71749600*
X88522700D02*
Y72384600D01*
Y72146500D02*
X88443300Y72305300D01*
X88284600Y72384600*
X88125800*
X87967100Y72305300*
X87887700Y72146500*
Y71749600*
X87252700Y71987800D02*
X87173300Y71829000D01*
X87014600Y71749600*
X86855800*
X86697100Y71829000*
X86617700Y71987800*
Y72146500*
X86697100Y72305300*
X86855800Y72384600*
X87014600*
X87173300Y72305300*
X87252700Y72146500*
Y71987800*
X85585800Y71749600D02*
X85665200D01*
Y72702100*
X84712700Y71987800D02*
X84633300Y71829000D01*
X84474600Y71749600*
X84315800*
X84157100Y71829000*
X84077700Y71987800*
Y72146500*
X84157100Y72305300*
X84315800Y72384600*
X84474600*
X84633300Y72305300*
X84712700Y72146500*
Y71987800*
X82807700Y72146500D02*
X82887100Y72305300D01*
X83045800Y72384600*
X83204600*
X83363300Y72305300*
X83442700Y72146500*
Y72067100*
X83363300Y71908400*
X83204600Y71829000*
X83045800*
X82887100Y71908400*
X82807700Y72067100*
Y72384600D02*
Y71749600D01*
X82887100Y71590900*
X83045800Y71511500*
X83283900*
X83442700Y71590900*
X81855200Y71749600D02*
Y72384600D01*
Y72622800D02*
X80267700Y71829000*
X80347100Y71749600D01*
X80505800*
X80664600*
X80823300Y71829000*
X80902700Y71987800*
Y72225900*
X80823300Y72305300*
X80664600Y72384600*
X80505800*
X80347100Y72305300*
X80267700Y72225900*
Y72146500*
X80347100Y72067100*
X80505800Y71987800*
X80664600*
X80823300Y72067100*
X80902700Y72146500*
X79632700Y71829000D02*
X79473900Y71749600D01*
X79156400*
X78997700Y71829000*
Y71987800*
X79156400Y72067100*
X79473900*
X79632700Y72146500*
Y72305300*
X79473900Y72384600*
X79156400*
X78997700Y72305300*
D02*
D15*
X46012700Y38661500D03*
Y60161500D03*
Y71161500D03*
Y92661500D03*
X142512700Y38661500D03*
Y60161500D03*
Y71161500D03*
Y92661500D03*
D02*
D25*
X94212700Y95811500D03*
X94237700Y63311500D03*
X94262700Y69561500D03*
X94287700Y36961500D03*
D02*
D28*
X42187700Y82686500D03*
X42212700Y49886500D03*
X146287700Y82736500D03*
X146312700Y50011500D03*
D02*
D79*
X70362700Y88811500D03*
X70912700Y75136500D03*
X117562700Y88861500D03*
X118112700Y75186500D03*
D02*
D80*
X53362700Y86961500D03*
X53487700Y76986500D03*
X87637700Y86961500D03*
X87762700Y76986500D03*
X100712700Y87011500D03*
X100837700Y77036500D03*
X134987700Y87011500D03*
X135112700Y77036500D03*
D02*
D81*
X51087700Y81911500D03*
X137437700Y82086500D03*
D02*
D82*
X89887700D03*
X98587700Y81911500D03*
D02*
D84*
X55512700Y43411500D03*
Y53811500D03*
X64112700Y43411500D03*
Y53811500D03*
X70012700Y43411500D03*
Y54311500D03*
X82062700Y43411500D03*
Y54311500D03*
X87800200Y43374000D03*
Y45061500D03*
X101500200Y43361500D03*
Y45024000D03*
X107775200Y43374000D03*
X107812700Y56586500D03*
X123675200Y43374000D03*
X123687700Y56636500D03*
D02*
D85*
X94262700Y82661500D03*
X0Y0D02*
M02*
