%FSLAX36Y36*%
%MOMM*%
G04 EasyPC Gerber Version 18.0.8 Build 3632 *
%ADD97R,1.52400X1.52400*%
%ADD17C,0.12700*%
%ADD141C,0.20830*%
%ADD24C,0.81280*%
%ADD109C,1.39000*%
%ADD111C,1.42240*%
%ADD99C,1.52400*%
%ADD29C,1.62400*%
%ADD98C,1.72000*%
%ADD90C,1.77800*%
%ADD100C,3.00000*%
%ADD105C,3.31000*%
%ADD101C,3.60000*%
%ADD102C,4.20000*%
%ADD91C,4.44500*%
%ADD23C,5.20000*%
X0Y0D02*
D02*
D17*
X42104200Y3347700D02*
X142104200D01*
Y83347700*
X42104200*
Y3347700*
D02*
D23*
X45604200Y6847700D03*
Y79847700D03*
X138604200Y6847700D03*
Y79847700D03*
D02*
D24*
X45604200Y10847700D03*
Y14347700D03*
Y18347700D03*
Y22347700D03*
Y26347700D03*
Y30347700D03*
Y34347700D03*
Y38347700D03*
Y42347700D03*
Y47347700D03*
Y51347700D03*
Y55347700D03*
Y59347700D03*
Y63347700D03*
Y67347700D03*
Y70847700D03*
Y76347700D03*
X46604200Y12347700D03*
Y16347700D03*
Y20347700D03*
Y24347700D03*
Y28347700D03*
Y32347700D03*
Y36347700D03*
Y40347700D03*
Y44347700D03*
Y49347700D03*
Y53347700D03*
Y57347700D03*
Y61347700D03*
Y65347700D03*
Y69347700D03*
Y74847700D03*
X48454200Y15697700D03*
X49579200Y23272700D03*
Y25047700D03*
X49604200Y69347700D03*
X50104200Y73847700D03*
Y78847700D03*
X50179200Y26797700D03*
X50204200Y28847700D03*
X51054200Y59547700D03*
X51304200Y18747700D03*
X51554200Y46172700D03*
X52104200Y6347700D03*
Y79847700D03*
X52954200Y59547700D03*
X53404200Y46147700D03*
X54104200Y73847700D03*
Y78847700D03*
X54604200Y66947700D03*
X55104200Y5347700D03*
X55254200Y46147700D03*
X55479200Y19497700D03*
X56104200Y79847700D03*
X56954200Y46147700D03*
X57604200Y6347700D03*
X57804200Y59447700D03*
X58104200Y78847700D03*
X59104200Y36197700D03*
Y74847700D03*
X59154200Y40872700D03*
X59354200Y49522700D03*
X59754200Y59447700D03*
X60104200Y5347700D03*
Y79847700D03*
X60454200Y26122700D03*
X60729200Y36147700D03*
X60804200Y40847700D03*
X61229200Y49497700D03*
X61404200Y66947700D03*
X61604200Y74847700D03*
X61779200Y29122700D03*
X62104200Y78847700D03*
X62529200Y40797700D03*
X62804200Y18747700D03*
X63054200Y49522700D03*
X63504200Y34422700D03*
X64104200Y79847700D03*
X64604200Y74847700D03*
X64804200Y59447700D03*
X65029200Y40797700D03*
X65104200Y6347700D03*
X65779200Y45247700D03*
Y46997700D03*
X66104200Y78847700D03*
X66204200Y31897700D03*
Y34072700D03*
X66629200Y37072700D03*
X66679200Y39897700D03*
X66729200Y59447700D03*
X67104200Y74847700D03*
X68104200Y79847700D03*
X68229200Y34072700D03*
X68304200Y66947700D03*
X68379200Y31897700D03*
X69504200Y23422700D03*
X69654200Y43372700D03*
X69929200Y26397700D03*
X69979200Y24672700D03*
X70029200Y28372700D03*
X70104200Y5347700D03*
Y74847700D03*
Y78847700D03*
X71604200Y59447700D03*
X72104200Y79847700D03*
X72329200Y48922700D03*
X72429200Y51147700D03*
X72454200Y52597700D03*
X72579200Y35947700D03*
X72604200Y74847700D03*
X72679200Y38947700D03*
X72704200Y37297700D03*
X73104200Y6347700D03*
X73554200Y59347700D03*
X73579200Y44072700D03*
X73604200Y39772700D03*
X74054200Y34197700D03*
X74104200Y22347700D03*
Y78847700D03*
X75104200Y66947700D03*
X75279200Y44097700D03*
X75354200Y39722700D03*
X75604200Y74847700D03*
X75654200Y28997700D03*
X76104200Y5347700D03*
Y79847700D03*
X76529200Y30247700D03*
X78054200Y48747700D03*
X78104200Y74847700D03*
Y78847700D03*
X78154200Y47347700D03*
X78254200Y38947700D03*
X78404200Y59447700D03*
X78604200Y6347700D03*
X79079200Y37297700D03*
X79354200Y28847700D03*
Y33747700D03*
X79454200Y52947700D03*
X80104200Y79847700D03*
X80304200Y59447700D03*
X80404200Y51747700D03*
X80704200Y13647700D03*
X80804200Y26622700D03*
X81054200Y23747700D03*
X81104200Y54847700D03*
X81479200Y43847700D03*
Y45597700D03*
X81504200Y47247700D03*
X81529200Y48747700D03*
X81554200Y34747700D03*
X81629200Y29097700D03*
X81654200Y42422700D03*
X82004200Y66947700D03*
X82104200Y78847700D03*
X82579200Y50247700D03*
X82704200Y14047700D03*
X82804200Y32147700D03*
X82979200Y55722700D03*
X83104200Y69347700D03*
Y73847700D03*
X83879200Y38722700D03*
Y41397700D03*
X83929200Y47247700D03*
X83954200Y48922700D03*
X83979200Y43822700D03*
Y45522700D03*
X84104200Y79847700D03*
X84432200Y31297700D03*
X84604200Y32647700D03*
X84979200Y15247700D03*
Y34422700D03*
X85304200Y50172700D03*
X85354200Y59447700D03*
X85554200Y38847700D03*
X85579200Y41897700D03*
Y43547700D03*
X86104200Y78847700D03*
X86204200Y9947700D03*
X86429200Y26397700D03*
X86579200Y28272700D03*
X86754200Y50197700D03*
X87104200Y38822700D03*
Y69347700D03*
Y73847700D03*
X87254200Y59447700D03*
X87579200Y29247700D03*
X87604200Y53947700D03*
X88429200Y38922700D03*
X88504200Y45372700D03*
X88529200Y46997700D03*
X88704200Y66947700D03*
X89029200Y49497700D03*
X89079200Y53447700D03*
X89167700Y17972700D03*
X89279200Y29197700D03*
X89404200Y9472700D03*
X89579200Y38247700D03*
X89729200Y11222700D03*
X90079200Y50322700D03*
X90104200Y78847700D03*
X90279200Y20797700D03*
X90429200Y40222700D03*
X90679200Y45922700D03*
X90704200Y41522700D03*
X90829200Y34172700D03*
X90904200Y38447700D03*
X90979200Y25347700D03*
X91079200Y49397700D03*
X91229200Y27122700D03*
X91804200Y59447700D03*
X92079200Y50297700D03*
X92104200Y79847700D03*
X92404200Y45922700D03*
X92467700Y20797700D03*
X93504200Y29422700D03*
Y49947700D03*
X93579200Y38247700D03*
Y39747700D03*
X93604200Y6347700D03*
X93629200Y44597700D03*
X93654200Y42747700D03*
X93679200Y46747700D03*
X93779200Y9472700D03*
X94104200Y78847700D03*
X94879200Y36922700D03*
X94904200Y55872700D03*
Y60397700D03*
X94979200Y24297700D03*
X95204200Y33822700D03*
X95317200Y50947700D03*
X96129200Y15397700D03*
X96154200Y29222700D03*
X96329200Y25247700D03*
X96954200Y43022700D03*
X97104200Y13922700D03*
Y69347700D03*
Y73847700D03*
X97304200Y20772700D03*
X97454200Y60972700D03*
X97654200Y33822700D03*
Y48747700D03*
X98104200Y78847700D03*
X98204200Y12997700D03*
X98454200Y44872700D03*
X98929200Y25272700D03*
X99004200Y29247700D03*
X99029200Y48172700D03*
X99104200Y14122700D03*
X99504200Y38997700D03*
X99529200Y40697700D03*
X99779200Y54197700D03*
X99804200Y49422700D03*
X99854200Y56747700D03*
X100104200Y79847700D03*
X100154200Y44922700D03*
X100554200Y46222700D03*
X100629200Y30747700D03*
X101104200Y69347700D03*
Y73847700D03*
X101804200Y32397700D03*
X101954200Y42822700D03*
X102104200Y78847700D03*
X102429200Y49322700D03*
X102454200Y48197700D03*
X103079200Y46597700D03*
X103129200Y38922700D03*
X103179200Y54272700D03*
X103354200Y27047700D03*
X103429200Y25272700D03*
X103604200Y6347700D03*
X104104200Y79847700D03*
X104554200Y40072700D03*
X104629200Y61797700D03*
X104679200Y28397700D03*
X104754200Y46572700D03*
X104904200Y48222700D03*
X105829200Y52972700D03*
X106104200Y74847700D03*
Y78847700D03*
X106279200Y46122700D03*
X106729200Y55597700D03*
X107704200Y53822700D03*
X107879200Y49447700D03*
X108104200Y79847700D03*
X108604200Y74847700D03*
X108929200Y42722700D03*
Y54897700D03*
X109054200Y46947700D03*
X109254200Y40072700D03*
X109629200Y28372700D03*
X109829200Y65097700D03*
X110104200Y78847700D03*
X111454200Y55597700D03*
X111604200Y74847700D03*
X112104200Y79847700D03*
X112404200Y50347700D03*
X112429200Y54597700D03*
X112529200Y25347700D03*
Y26997700D03*
X113629200Y50372700D03*
X113729200Y42272700D03*
X113754200Y54597700D03*
Y57397700D03*
X113979200Y46397700D03*
X114104200Y6347700D03*
Y74847700D03*
Y78847700D03*
X114154200Y24897700D03*
X114204200Y43897700D03*
X114654200Y40097700D03*
X115329200Y61047700D03*
X115354200Y59547700D03*
X115554200Y64947700D03*
X115804200Y50322700D03*
X116104200Y79847700D03*
X116154200Y48597700D03*
X116704200Y56047700D03*
Y61472700D03*
X117104200Y74847700D03*
X118104200Y78847700D03*
X118329200Y54897700D03*
X119154200Y27672700D03*
X119604200Y40097700D03*
Y74847700D03*
X119654200Y59522700D03*
X119729200Y42297700D03*
Y45172700D03*
X119804200Y47397700D03*
Y64947700D03*
X120104200Y79847700D03*
X120304200Y37497700D03*
Y38972700D03*
X120704200Y43772700D03*
X120829200Y41172700D03*
Y46147700D03*
X122104200Y78847700D03*
X122304200Y26522700D03*
X122604200Y74847700D03*
X123404200Y61197700D03*
X123429200Y54247700D03*
X123604200Y5347700D03*
X124104200Y79847700D03*
X124254200Y64997700D03*
X124279200Y62747700D03*
X124579200Y61172700D03*
X124854200Y25622700D03*
X125104200Y74847700D03*
X125979200Y51797700D03*
Y57397700D03*
X126104200Y6347700D03*
Y78847700D03*
X127279200Y60997700D03*
X128104200Y5347700D03*
Y79847700D03*
X128354200Y64997700D03*
X128779200Y62597700D03*
X129729200Y61047700D03*
X130104200Y6347700D03*
Y69347700D03*
Y73847700D03*
Y78847700D03*
X131154200Y53622700D03*
Y55547700D03*
X131854200Y60847700D03*
X132104200Y5347700D03*
Y79847700D03*
X133154200Y62622700D03*
X133954200Y25697700D03*
X134104200Y69347700D03*
Y78847700D03*
X134604200Y73847700D03*
X137604200Y12347700D03*
Y17347700D03*
Y21347700D03*
Y25347700D03*
Y29347700D03*
Y33347700D03*
Y37347700D03*
Y41347700D03*
Y45347700D03*
Y49347700D03*
Y53347700D03*
Y57347700D03*
Y61347700D03*
Y65347700D03*
Y69347700D03*
Y72347700D03*
Y76347700D03*
X138604200Y10847700D03*
Y15347700D03*
Y19347700D03*
Y23347700D03*
Y27347700D03*
Y31347700D03*
Y35347700D03*
Y39347700D03*
Y43347700D03*
Y47347700D03*
Y51347700D03*
Y55347700D03*
Y59347700D03*
Y63347700D03*
Y67347700D03*
Y70847700D03*
Y74347700D03*
D02*
D29*
X119579200Y50597700D03*
Y57847700D03*
X127829200Y50597700D03*
Y57847700D03*
D02*
D90*
X58886200Y70202900D03*
X60271200Y73047700D03*
X61656200Y70202900D03*
X63001000Y73047700D03*
X64426200Y70202900D03*
X65811200Y73047700D03*
X67196200Y70202900D03*
X68581200Y73047700D03*
X69966200Y70202900D03*
X71351200Y73047700D03*
X72736200Y70202900D03*
X74121200Y73047700D03*
X75506200Y70202900D03*
X76891200Y73047700D03*
X78276200Y70202900D03*
X105932200D03*
X107317200Y73047700D03*
X108702200Y70202900D03*
X110047000Y73047700D03*
X111472200Y70202900D03*
X112857200Y73047700D03*
X114242200Y70202900D03*
X115627200Y73047700D03*
X117012200Y70202900D03*
X118397200Y73047700D03*
X119782200Y70202900D03*
X121167200Y73047700D03*
X122552200Y70202900D03*
X123937200Y73047700D03*
X125322200Y70202900D03*
D02*
D91*
X51931200Y71625300D03*
X85231200D03*
X98977200D03*
X132277200D03*
D02*
D97*
X67954200Y49872700D03*
Y52547700D03*
X70494200Y49872700D03*
Y52547700D03*
X106144200Y36572700D03*
X108684200D03*
X111224200D03*
X113764200D03*
X115479200Y31422700D03*
X116304200Y36572700D03*
X118019200Y31422700D03*
D02*
D98*
X75181200Y15872700D03*
D02*
D99*
X72681200Y13872700D03*
Y15872700D03*
X75181200Y13872700D03*
D02*
D100*
X67911200Y11162700D03*
X79951200D03*
D02*
D101*
X57732600Y9122700D03*
X62432600Y12122700D03*
D02*
D102*
X57732600Y15322700D03*
D02*
D105*
X108382700Y10137700D03*
X119812700D03*
D02*
D109*
X89577800Y71047700D03*
X92117800D03*
X94657800D03*
D02*
D111*
X82104200Y17947700D03*
D02*
D141*
X131434400Y11843400D02*
X131694700Y11713200D01*
X131955100*
X132215400Y11843400*
X132345600Y12103800*
X132215400Y12364100*
X131955100Y12494300*
X131694700*
X131955100D02*
X132215400Y12624500D01*
X132345600Y12884800*
X132215400Y13145200*
X131955100Y13275300*
X131694700*
X131434400Y13145200*
X0Y0D02*
M02*
