%FSLAX36Y36*%
%MOMM*%
G04 EasyPC Gerber Version 18.0.8 Build 3632 *
%ADD82R,1.50000X16.75000*%
%ADD81R,2.00000X16.75000*%
%ADD28R,3.75000X26.50000*%
%ADD10C,0.02540*%
%ADD11C,0.12700*%
%ADD12C,0.20000*%
%ADD15C,5.00000*%
%ADD25R,105.50000X2.50000*%
%ADD79R,39.20000X3.00000*%
%ADD80R,6.20000X6.20000*%
X0Y0D02*
D02*
D10*
X26087500Y45182500D02*
G75*
G03X24917700Y44012700J-1169800D01*
G01*
Y17512700*
G75*
G03X26087500Y16342900I1169800*
G01*
X131587500*
G75*
G03X132757300Y17512700J1169800*
G01*
Y44012700*
G75*
G03X131587500Y45182500I-1169800*
G01*
X26087500*
X38537500Y31923500D02*
X41216200D01*
G75*
G02X45016500Y35407900I3800300J-330200*
G01*
X65358700*
G75*
G02X69152800Y31929700I100J-3808400*
G01*
X71850100*
G75*
G02X73655900Y30123900J-1805800*
G01*
Y30068100*
G75*
G02X71843900Y28256100I-1812000*
G01*
X69152800*
G75*
G02X65340100Y24759300I-3812700J330200*
G01*
X45022700*
G75*
G02X41233800Y28243700J3802200*
G01*
X38531300*
G75*
G02X36719300Y30055700J1812000*
G01*
Y30105300*
G75*
G02X38537500Y31923500I1818200*
G01*
X75370800Y30762700D02*
G75*
G02X82304200I3466700D01*
G01*
G75*
G02X75370800I-3466700*
G01*
X85849700Y31923500D02*
X88528400D01*
G75*
G02X92328700Y35407900I3800300J-330200*
G01*
X112670900*
G75*
G02X116465000Y31929700I100J-3808400*
G01*
X119162300*
G75*
G02X120968100Y30123900J-1805800*
G01*
Y30068100*
G75*
G02X119156100Y28256100I-1812000*
G01*
X116465000*
G75*
G02X112652300Y24759300I-3812700J330200*
G01*
X92334900*
G75*
G02X88546000Y28243700J3802200*
G01*
X85843500*
G75*
G02X84031500Y30055700J1812000*
G01*
Y30105300*
G75*
G02X85849700Y31923500I1818200*
G01*
X94779200Y19362700D02*
G75*
G02X94512500Y19096000I-266700D01*
G01*
X62562500*
G75*
G02X62295800Y19362700J266700*
G01*
Y21086700*
G75*
G02X62562500Y21353400I266700*
G01*
X94512500*
G75*
G02X94779200Y21086700J-266700*
G01*
Y19362700*
X24917700Y30083600D02*
G36*
Y20224700D01*
X62295800*
Y21086700*
G75*
G02X62562500Y21353400I266700*
G01*
X94512500*
G75*
G02X94779200Y21086700J-266700*
G01*
Y20224700*
X132757300*
Y30083600*
X120968100*
Y30068100*
G75*
G02X119156100Y28256100I-1812000*
G01*
X116465000*
G75*
G02X112652300Y24759300I-3812700J330200*
G01*
X92334900*
G75*
G02X88546000Y28243700J3802200*
G01*
X85843500*
G75*
G02X84031500Y30055700J1812000*
G01*
Y30083600*
X82237000*
G75*
G02X75438000I-3399500J679100*
G01*
X73655900*
Y30068100*
G75*
G02X71843900Y28256100I-1812000*
G01*
X69152800*
G75*
G02X65340100Y24759300I-3812700J330200*
G01*
X45022700*
G75*
G02X41233800Y28243700J3802200*
G01*
X38531300*
G75*
G02X36719300Y30055700J1812000*
G01*
Y30083600*
X24917700*
G37*
X36719300D02*
G36*
Y30105300D01*
G75*
G02X38537500Y31923500I1818200*
G01*
X41216200*
G75*
G02X45016500Y35407900I3800300J-330200*
G01*
X65358700*
G75*
G02X69152800Y31929700I100J-3808400*
G01*
X71850100*
G75*
G02X73655900Y30123900J-1805800*
G01*
Y30083600*
X75438000*
G75*
G02X75370800Y30762700I3399500J679300*
G01*
G75*
G02X82304200I3466700*
G01*
G75*
G02X82237000Y30083600I-3467000J200*
G01*
X84031500*
Y30105300*
G75*
G02X85849700Y31923500I1818200*
G01*
X88528400*
G75*
G02X92328700Y35407900I3800300J-330200*
G01*
X112670900*
G75*
G02X116465000Y31929700I100J-3808400*
G01*
X119162300*
G75*
G02X120968100Y30123900J-1805800*
G01*
Y30083600*
X132757300*
Y44012700*
G75*
G03X131587500Y45182500I-1169800*
G01*
X26087500*
G75*
G03X24917700Y44012700J-1169800*
G01*
Y30083600*
X36719300*
G37*
X24917700Y20224700D02*
G36*
Y17512700D01*
G75*
G03X26087500Y16342900I1169800*
G01*
X131587500*
G75*
G03X132757300Y17512700J1169800*
G01*
Y20224700*
X94779200*
Y19362700*
G75*
G02X94512500Y19096000I-266700*
G01*
X62562500*
G75*
G02X62295800Y19362700J266700*
G01*
Y20224700*
X24917700*
G37*
D02*
D11*
X26087500Y45512700D02*
G75*
G03X24587500Y44012700J-1500000D01*
G01*
Y17512700*
G75*
G03X26087500Y16012700I1500000*
G01*
X131587500*
G75*
G03X133087500Y17512700J1500000*
G01*
Y44012700*
G75*
G03X131587500Y45512700I-1500000*
G01*
X26087500*
X45016500Y35077700D02*
G75*
G03X41532100Y31593300J-3484400D01*
G01*
X38537500*
G75*
G03X37049500Y30105300J-1488000*
G01*
Y30055700*
G75*
G03X38531300Y28573900I1481800*
G01*
X41550700*
Y28561500*
G75*
G03X45022700Y25089500I3472000*
G01*
X65340100*
G75*
G03X68836900Y28586300J3496800*
G01*
X71843900*
G75*
G03X73325700Y30068100J1481800*
G01*
Y30123900*
G75*
G03X71850100Y31599500I-1475600*
G01*
X68836900*
G75*
G03X65358700Y35077700I-3478200*
G01*
X45016500*
X92328700D02*
G75*
G03X88844300Y31593300J-3484400D01*
G01*
X85849700*
G75*
G03X84361700Y30105300J-1488000*
G01*
Y30055700*
G75*
G03X85843500Y28573900I1481800*
G01*
X88862900*
Y28561500*
G75*
G03X92334900Y25089500I3472000*
G01*
X112652300*
G75*
G03X116149100Y28586300J3496800*
G01*
X119156100*
G75*
G03X120637900Y30068100J1481800*
G01*
Y30123900*
G75*
G03X119162300Y31599500I-1475600*
G01*
X116149100*
G75*
G03X112670900Y35077700I-3478200*
G01*
X92328700*
D02*
D12*
X94412500Y19700800D02*
Y20653300D01*
X93618700Y19700800*
Y20653300*
X92507500Y19780200D02*
X92586900Y19700800D01*
X92745600*
X92904400*
X93063100Y19780200*
X93142500Y19939000*
Y20177100*
X93063100Y20256500*
X92904400Y20335800*
X92745600*
X92586900Y20256500*
X92507500Y20177100*
Y20097700*
X92586900Y20018300*
X92745600Y19939000*
X92904400*
X93063100Y20018300*
X93142500Y20097700*
X91872500Y20335800D02*
Y19780200D01*
X91793100Y19700800*
X91634400*
X91555000Y19780200*
Y20018300*
Y19780200D02*
X91475600Y19700800D01*
X91316900*
X91237500Y19780200*
Y20335800*
X88935600Y19700800D02*
Y20653300D01*
X89332500D02*
X88538700D01*
X88062500Y19700800D02*
Y20653300D01*
Y20097700D02*
X87983100Y20256500D01*
X87824400Y20335800*
X87665600*
X87506900Y20256500*
X87427500Y20097700*
Y19700800*
X86475000D02*
Y20335800D01*
Y20574000D02*
X85522500Y19700800*
Y20335800D01*
Y20097700D02*
X85443100Y20256500D01*
X85284400Y20335800*
X85125600*
X84966900Y20256500*
X84887500Y20097700*
Y19700800*
X84252500D02*
Y20653300D01*
Y20018300D02*
X84014400D01*
X83617500Y20335800*
X84014400Y20018300D02*
X83617500Y19700800D01*
X82665000D02*
Y20335800D01*
Y20574000D02*
X81712500Y19700800*
Y20335800D01*
Y20097700D02*
X81633100Y20256500D01*
X81474400Y20335800*
X81315600*
X81156900Y20256500*
X81077500Y20097700*
Y19700800*
X79807500Y20097700D02*
X79886900Y20256500D01*
X80045600Y20335800*
X80204400*
X80363100Y20256500*
X80442500Y20097700*
Y20018300*
X80363100Y19859600*
X80204400Y19780200*
X80045600*
X79886900Y19859600*
X79807500Y20018300*
Y20335800D02*
Y19700800D01*
X79886900Y19542100*
X80045600Y19462700*
X80283700*
X80442500Y19542100*
X77505600Y19700800D02*
Y20653300D01*
X77902500D02*
X77108700D01*
X75997500Y19780200D02*
X76076900Y19700800D01*
X76235600*
X76394400*
X76553100Y19780200*
X76632500Y19939000*
Y20177100*
X76553100Y20256500*
X76394400Y20335800*
X76235600*
X76076900Y20256500*
X75997500Y20177100*
Y20097700*
X76076900Y20018300*
X76235600Y19939000*
X76394400*
X76553100Y20018300*
X76632500Y20097700*
X74727500Y20256500D02*
X74886200Y20335800D01*
X75124400*
X75283100Y20256500*
X75362500Y20097700*
Y19939000*
X75283100Y19780200*
X75124400Y19700800*
X74886200*
X74727500Y19780200*
X74092500Y19700800D02*
Y20653300D01*
Y20097700D02*
X74013100Y20256500D01*
X73854400Y20335800*
X73695600*
X73536900Y20256500*
X73457500Y20097700*
Y19700800*
X72822500D02*
Y20335800D01*
Y20097700D02*
X72743100Y20256500D01*
X72584400Y20335800*
X72425600*
X72266900Y20256500*
X72187500Y20097700*
Y19700800*
X71552500Y19939000D02*
X71473100Y19780200D01*
X71314400Y19700800*
X71155600*
X70996900Y19780200*
X70917500Y19939000*
Y20097700*
X70996900Y20256500*
X71155600Y20335800*
X71314400*
X71473100Y20256500*
X71552500Y20097700*
Y19939000*
X69885600Y19700800D02*
X69965000D01*
Y20653300*
X69012500Y19939000D02*
X68933100Y19780200D01*
X68774400Y19700800*
X68615600*
X68456900Y19780200*
X68377500Y19939000*
Y20097700*
X68456900Y20256500*
X68615600Y20335800*
X68774400*
X68933100Y20256500*
X69012500Y20097700*
Y19939000*
X67107500Y20097700D02*
X67186900Y20256500D01*
X67345600Y20335800*
X67504400*
X67663100Y20256500*
X67742500Y20097700*
Y20018300*
X67663100Y19859600*
X67504400Y19780200*
X67345600*
X67186900Y19859600*
X67107500Y20018300*
Y20335800D02*
Y19700800D01*
X67186900Y19542100*
X67345600Y19462700*
X67583700*
X67742500Y19542100*
X66155000Y19700800D02*
Y20335800D01*
Y20574000D02*
X64567500Y19780200*
X64646900Y19700800D01*
X64805600*
X64964400*
X65123100Y19780200*
X65202500Y19939000*
Y20177100*
X65123100Y20256500*
X64964400Y20335800*
X64805600*
X64646900Y20256500*
X64567500Y20177100*
Y20097700*
X64646900Y20018300*
X64805600Y19939000*
X64964400*
X65123100Y20018300*
X65202500Y20097700*
X63932500Y19780200D02*
X63773700Y19700800D01*
X63456200*
X63297500Y19780200*
Y19939000*
X63456200Y20018300*
X63773700*
X63932500Y20097700*
Y20256500*
X63773700Y20335800*
X63456200*
X63297500Y20256500*
D02*
D15*
X30587500Y19262700D03*
Y40762700D03*
X127087500Y19262700D03*
Y40762700D03*
D02*
D25*
X78812500Y43912700D03*
X78862500Y17662700D03*
D02*
D28*
X26787500Y30787700D03*
X130887500Y30837700D03*
D02*
D79*
X54962500Y36912700D03*
X55512500Y23237700D03*
X102162500Y36962700D03*
X102712500Y23287700D03*
D02*
D80*
X37962500Y35062700D03*
X38087500Y25087700D03*
X72237500Y35062700D03*
X72362500Y25087700D03*
X85312500Y35112700D03*
X85437500Y25137700D03*
X119587500Y35112700D03*
X119712500Y25137700D03*
D02*
D81*
X35687500Y30012700D03*
X122037500Y30187700D03*
D02*
D82*
X74487500D03*
X83187500Y30012700D03*
X0Y0D02*
M02*
