%FSLAX36Y36*%
%MOMM*%
G04 EasyPC Gerber Version 18.0.8 Build 3632 *
%ADD11C,0.12700*%
%ADD70C,2.54000*%
X0Y0D02*
D02*
D11*
X22287500Y64911500D02*
G75*
G03X20787500Y63411500J-1500000D01*
G01*
Y36911500*
G75*
G03X22287500Y35411500I1500000*
G01*
X127787500*
G75*
G03X129287500Y36911500J1500000*
G01*
Y63411500*
G75*
G03X127787500Y64911500I-1500000*
G01*
X22287500*
X29327500Y40169600D02*
X29724400Y41122100D01*
X30121300Y40169600*
X29486300Y40566500D02*
X29962500D01*
X29327500Y61669600D02*
X29724400Y62622100D01*
X30121300Y61669600*
X29486300Y62066500D02*
X29962500D01*
X36537500Y54011500D02*
G75*
G03X36037500Y53511500J-500000D01*
G01*
Y43611500*
G75*
G03X36437500Y43211500I400000*
G01*
X44637500*
G75*
G03X45037500Y43611500J400000*
G01*
Y53511500*
G75*
G03X44537500Y54011500I-500000*
G01*
X36537500*
X39383100Y45395900D02*
X39541900Y45316500D01*
X39621300Y45157800*
X39541900Y44999000*
X39383100Y44919600*
X38827500*
Y45872100*
X39383100*
X39541900Y45792800*
X39621300Y45634000*
X39541900Y45475300*
X39383100Y45395900*
X38827500*
X39383100Y55795900D02*
X39541900Y55716500D01*
X39621300Y55557800*
X39541900Y55399000*
X39383100Y55319600*
X38827500*
Y56272100*
X39383100*
X39541900Y56192800*
X39621300Y56034000*
X39541900Y55875300*
X39383100Y55795900*
X38827500*
X47983100Y45395900D02*
X48141900Y45316500D01*
X48221300Y45157800*
X48141900Y44999000*
X47983100Y44919600*
X47427500*
Y45872100*
X47983100*
X48141900Y45792800*
X48221300Y45634000*
X48141900Y45475300*
X47983100Y45395900*
X47427500*
X47983100Y55795900D02*
X48141900Y55716500D01*
X48221300Y55557800*
X48141900Y55399000*
X47983100Y55319600*
X47427500*
Y56272100*
X47983100*
X48141900Y56192800*
X48221300Y56034000*
X48141900Y55875300*
X47983100Y55795900*
X47427500*
X51037500Y54511500D02*
G75*
G03X50537500Y54011500J-500000D01*
G01*
Y43711500*
G75*
G03X51037500Y43211500I500000*
G01*
X62487500*
G75*
G03X62987500Y43711500J500000*
G01*
Y54011500*
G75*
G03X62487500Y54511500I-500000*
G01*
X51037500*
X53883100Y45395900D02*
X54041900Y45316500D01*
X54121300Y45157800*
X54041900Y44999000*
X53883100Y44919600*
X53327500*
Y45872100*
X53883100*
X54041900Y45792800*
X54121300Y45634000*
X54041900Y45475300*
X53883100Y45395900*
X53327500*
X53883100Y56295900D02*
X54041900Y56216500D01*
X54121300Y56057800*
X54041900Y55899000*
X53883100Y55819600*
X53327500*
Y56772100*
X53883100*
X54041900Y56692800*
X54121300Y56534000*
X54041900Y56375300*
X53883100Y56295900*
X53327500*
X65933100Y45395900D02*
X66091900Y45316500D01*
X66171300Y45157800*
X66091900Y44999000*
X65933100Y44919600*
X65377500*
Y45872100*
X65933100*
X66091900Y45792800*
X66171300Y45634000*
X66091900Y45475300*
X65933100Y45395900*
X65377500*
X65933100Y56295900D02*
X66091900Y56216500D01*
X66171300Y56057800*
X66091900Y55899000*
X65933100Y55819600*
X65377500*
Y56772100*
X65933100*
X66091900Y56692800*
X66171300Y56534000*
X66091900Y56375300*
X65933100Y56295900*
X65377500*
X68837500Y45211500D02*
G75*
G03X68337500Y44711500J-500000D01*
G01*
Y43711500*
G75*
G03X68837500Y43211500I500000*
G01*
X81887500*
G75*
G03X82387500Y43711500J500000*
G01*
Y44711500*
G75*
G03X81887500Y45211500I-500000*
G01*
X68837500*
X71670600Y45358400D02*
X71829400Y45279000D01*
X71908800Y45120300*
X71829400Y44961500*
X71670600Y44882100*
X71115000*
Y45834600*
X71670600*
X71829400Y45755300*
X71908800Y45596500*
X71829400Y45437800*
X71670600Y45358400*
X71115000*
X71670600Y47045900D02*
X71829400Y46966500D01*
X71908800Y46807800*
X71829400Y46649000*
X71670600Y46569600*
X71115000*
Y47522100*
X71670600*
X71829400Y47442800*
X71908800Y47284000*
X71829400Y47125300*
X71670600Y47045900*
X71115000*
X85370600Y45345900D02*
X85529400Y45266500D01*
X85608800Y45107800*
X85529400Y44949000*
X85370600Y44869600*
X84815000*
Y45822100*
X85370600*
X85529400Y45742800*
X85608800Y45584000*
X85529400Y45425300*
X85370600Y45345900*
X84815000*
X85370600Y47008400D02*
X85529400Y46929000D01*
X85608800Y46770300*
X85529400Y46611500*
X85370600Y46532100*
X84815000*
Y47484600*
X85370600*
X85529400Y47405300*
X85608800Y47246500*
X85529400Y47087800*
X85370600Y47008400*
X84815000*
X88837500Y56811500D02*
G75*
G03X88337500Y56311500J-500000D01*
G01*
Y43711500*
G75*
G03X88837500Y43211500I500000*
G01*
X104087500*
G75*
G03X104587500Y43711500J500000*
G01*
Y56311500*
G75*
G03X104087500Y56811500I-500000*
G01*
X88837500*
X91645600Y45358400D02*
X91804400Y45279000D01*
X91883800Y45120300*
X91804400Y44961500*
X91645600Y44882100*
X91090000*
Y45834600*
X91645600*
X91804400Y45755300*
X91883800Y45596500*
X91804400Y45437800*
X91645600Y45358400*
X91090000*
X91683100Y58570900D02*
X91841900Y58491500D01*
X91921300Y58332800*
X91841900Y58174000*
X91683100Y58094600*
X91127500*
Y59047100*
X91683100*
X91841900Y58967800*
X91921300Y58809000*
X91841900Y58650300*
X91683100Y58570900*
X91127500*
X107545600Y45358400D02*
X107704400Y45279000D01*
X107783800Y45120300*
X107704400Y44961500*
X107545600Y44882100*
X106990000*
Y45834600*
X107545600*
X107704400Y45755300*
X107783800Y45596500*
X107704400Y45437800*
X107545600Y45358400*
X106990000*
X107558100Y58620900D02*
X107716900Y58541500D01*
X107796300Y58382800*
X107716900Y58224000*
X107558100Y58144600*
X107002500*
Y59097100*
X107558100*
X107716900Y59017800*
X107796300Y58859000*
X107716900Y58700300*
X107558100Y58620900*
X107002500*
X125827500Y40169600D02*
X126224400Y41122100D01*
X126621300Y40169600*
X125986300Y40566500D02*
X126462500D01*
X125827500Y61669600D02*
X126224400Y62622100D01*
X126621300Y61669600*
X125986300Y62066500D02*
X126462500D01*
D02*
D70*
X26787500Y38661500D03*
Y60161500D03*
X36287500Y43411500D03*
Y53811500D03*
X44887500Y43411500D03*
Y53811500D03*
X50787500Y43411500D03*
Y54311500D03*
X62837500Y43411500D03*
Y54311500D03*
X68575000Y43374000D03*
Y45061500D03*
X82275000Y43361500D03*
Y45024000D03*
X88550000Y43374000D03*
X88587500Y56586500D03*
X104450000Y43374000D03*
X104462500Y56636500D03*
X123287500Y38661500D03*
Y60161500D03*
X0Y0D02*
M02*
