%FSLAX36Y36*%
%MOMM*%
G04 EasyPC Gerber Version 18.0.8 Build 3632 *
%ADD90R,0.09760X0.24760*%
%ADD72R,0.14760X1.32260*%
%ADD73R,1.32260X0.14760*%
%ADD77R,0.96520X0.22860*%
%ADD92R,0.24760X0.34760*%
%ADD93R,0.24760X0.44760*%
%ADD94R,0.44760X0.24760*%
%ADD91R,2.84760X0.29760*%
%ADD75R,0.35560X0.81280*%
%ADD101R,1.01600X0.35560*%
%ADD100R,0.44760X1.34760*%
%ADD85R,0.54760X1.04760*%
%ADD97R,0.60760X4.02760*%
%ADD82R,0.79760X1.44760*%
%ADD28R,0.84760X0.94760*%
%ADD86R,0.84760X1.04760*%
%ADD99R,0.84760X1.24760*%
%ADD87R,0.84760X2.64760*%
%ADD76R,1.04760X1.64760*%
%ADD96R,1.14760X1.34760*%
%ADD89R,1.14760X1.74760*%
%ADD80R,1.44760X2.84760*%
%ADD79R,1.11760X0.60960*%
%ADD88R,0.84760X0.64760*%
%ADD29R,0.94760X0.84760*%
%ADD74R,1.64760X0.84760*%
%ADD78R,2.38760X2.51760*%
%ADD102R,1.94760X1.24760*%
%ADD84R,3.04800X1.29540*%
%ADD83R,3.04760X1.44760*%
%ADD98R,3.26760X4.42760*%
%ADD81R,5.64760X6.04760*%
%ADD95R,1.94760X1.94760*%
%ADD71C,0.12700*%
X0Y0D02*
D02*
D71*
X42104200Y3347700D02*
X142104200D01*
Y83347700*
X42104200*
Y3347700*
D02*
D28*
X48454200Y17172700D03*
Y18872700D03*
X51004200Y65247700D03*
Y66947700D03*
X51554200Y43072700D03*
Y44772700D03*
X51579200Y39472700D03*
Y41172700D03*
X52804200Y65247700D03*
Y66947700D03*
X53404200Y39472700D03*
Y41172700D03*
Y43072700D03*
Y44772700D03*
X54429200Y23322700D03*
Y25022700D03*
X55254200Y39447700D03*
Y41147700D03*
Y43072700D03*
Y44772700D03*
X56954200Y39472700D03*
Y41172700D03*
Y43072700D03*
Y44772700D03*
X58004200Y65247700D03*
Y66947700D03*
X59004200Y33097700D03*
Y34797700D03*
X59379200Y43072700D03*
Y44772700D03*
X59404200Y46522700D03*
Y48222700D03*
X59704200Y65247700D03*
Y66947700D03*
X59929200Y37547700D03*
Y39247700D03*
X60804200Y33047700D03*
Y34747700D03*
X61204200Y43072700D03*
Y44772700D03*
X61229200Y46522700D03*
Y48222700D03*
X63029200Y43022700D03*
Y44722700D03*
X63054200Y46522700D03*
Y48222700D03*
X64904200Y65247700D03*
Y66947700D03*
X66604200Y65247700D03*
Y66947700D03*
X70654200Y20597700D03*
Y22297700D03*
X71704200Y65247700D03*
Y66947700D03*
X72454200Y20597700D03*
Y22297700D03*
X73404200Y65247700D03*
Y66947700D03*
X75404200Y20647700D03*
Y22347700D03*
X75429200Y32447700D03*
Y34147700D03*
X77204200Y20697700D03*
Y22397700D03*
X78604200Y65247700D03*
Y66947700D03*
X79304200Y20697700D03*
Y22397700D03*
X79354200Y30672700D03*
Y32372700D03*
X80304200Y65247700D03*
Y66947700D03*
X81054200Y20697700D03*
Y22397700D03*
X85404200Y65247700D03*
Y66947700D03*
X87004200Y65247700D03*
Y66947700D03*
X93354200Y25047700D03*
Y26747700D03*
X93479200Y30797700D03*
Y32497700D03*
X95204200Y30797700D03*
Y32497700D03*
X97654200Y30747700D03*
Y32447700D03*
X98254200Y38997700D03*
Y40697700D03*
X99329200Y30772700D03*
Y32472700D03*
X101804200Y33722700D03*
Y35422700D03*
Y37222700D03*
Y38922700D03*
X104679200Y25347700D03*
Y27047700D03*
X106429200Y25347700D03*
Y27047700D03*
X109629200Y25347700D03*
Y27047700D03*
X110929200Y44697700D03*
Y46397700D03*
X111279200Y25297700D03*
Y26997700D03*
X112654200Y44697700D03*
Y46397700D03*
X120504200Y27797700D03*
Y29497700D03*
X122304200Y27822700D03*
Y29522700D03*
D02*
D29*
X50929200Y23272700D03*
Y25047700D03*
X52629200Y23272700D03*
Y25047700D03*
X58729200Y27422700D03*
Y29122700D03*
X60429200Y27422700D03*
Y29122700D03*
X67179200Y45272700D03*
Y46997700D03*
X68879200Y45272700D03*
Y46997700D03*
X69429200Y36297700D03*
X69554200Y41922700D03*
X70629200Y45272700D03*
X70654200Y46997700D03*
X70954200Y32397700D03*
Y34197700D03*
X71129200Y36297700D03*
X71254200Y41922700D03*
X71354200Y26397700D03*
Y28372700D03*
X71379200Y24672700D03*
X72329200Y45272700D03*
X72354200Y46997700D03*
X72654200Y32397700D03*
Y34197700D03*
X73054200Y26397700D03*
Y28372700D03*
X73079200Y24672700D03*
X73579200Y42772700D03*
X73604200Y40997700D03*
X74954200Y47447700D03*
Y49172700D03*
X75279200Y42772700D03*
X75304200Y40997700D03*
X76654200Y47447700D03*
Y49172700D03*
X84354200Y53872700D03*
Y55572700D03*
X86054200Y53872700D03*
Y55572700D03*
X87579200Y30497700D03*
Y32472700D03*
Y33972700D03*
X87879200Y25347700D03*
X89279200Y30497700D03*
X89479200Y32472700D03*
Y33972700D03*
X89579200Y25347700D03*
X89979200Y63722700D03*
Y65472700D03*
X91679200Y63722700D03*
Y65472700D03*
X93654200D03*
X93679200Y63722700D03*
X95354200Y65472700D03*
X95379200Y63722700D03*
X97254200Y46122700D03*
X98154200Y35497700D03*
X98179200Y37247700D03*
X98954200Y46122700D03*
X99854200Y35497700D03*
X99879200Y37247700D03*
X103104200Y45347700D03*
X104804200D03*
X108879200Y61072700D03*
X110579200D03*
X112304200Y61047700D03*
X114004200D03*
X117404200Y66922700D03*
X119104200D03*
X120529200Y31422700D03*
X121479200Y66897700D03*
X122229200Y31422700D03*
X123179200Y66897700D03*
X126204200D03*
X127904200D03*
X130029200Y66922700D03*
X131729200D03*
D02*
D72*
X81579200Y36509700D03*
Y51985700D03*
X82079200Y36509700D03*
Y51985700D03*
X82579200Y36509700D03*
Y51985700D03*
X83079200Y36509700D03*
Y51985700D03*
X83579200Y36509700D03*
Y51985700D03*
X84079200Y36509700D03*
Y51985700D03*
X84579200Y36509700D03*
Y51985700D03*
X85079200Y36509700D03*
Y51985700D03*
X85579200Y36509700D03*
Y51985700D03*
X86079200Y36509700D03*
Y51985700D03*
X86579200Y36509700D03*
Y51985700D03*
X87079200Y36509700D03*
Y51985700D03*
X87579200Y36509700D03*
Y51985700D03*
X88079200Y36509700D03*
Y51985700D03*
X88579200Y36509700D03*
Y51985700D03*
X89079200Y36509700D03*
Y51985700D03*
X89579200Y36509700D03*
Y51985700D03*
X90079200Y36509700D03*
Y51985700D03*
X90579200Y36509700D03*
Y51985700D03*
X91079200Y36509700D03*
Y51985700D03*
X91579200Y36509700D03*
Y51985700D03*
X92079200Y36509700D03*
Y51985700D03*
X92579200Y36509700D03*
Y51985700D03*
X93079200Y36509700D03*
Y51985700D03*
X93579200Y36509700D03*
Y51985700D03*
D02*
D73*
X79841200Y38247700D03*
Y38747700D03*
Y39247700D03*
Y39747700D03*
Y40247700D03*
Y40747700D03*
Y41247700D03*
Y41747700D03*
Y42247700D03*
Y42747700D03*
Y43247700D03*
Y43747700D03*
Y44247700D03*
Y44747700D03*
Y45247700D03*
Y45747700D03*
Y46247700D03*
Y46747700D03*
Y47247700D03*
Y47747700D03*
Y48247700D03*
Y48747700D03*
Y49247700D03*
Y49747700D03*
Y50247700D03*
X95317200Y38247700D03*
Y38747700D03*
Y39247700D03*
Y39747700D03*
Y40247700D03*
Y40747700D03*
Y41247700D03*
Y41747700D03*
Y42247700D03*
Y42747700D03*
Y43247700D03*
Y43747700D03*
Y44247700D03*
Y44747700D03*
Y45247700D03*
Y45747700D03*
Y46247700D03*
Y46747700D03*
Y47247700D03*
Y47747700D03*
Y48247700D03*
Y48747700D03*
Y49247700D03*
Y49747700D03*
Y50247700D03*
D02*
D74*
X77429200Y40722700D03*
Y43222700D03*
D02*
D75*
X62551700Y33254300D03*
Y35591100D03*
X63504200Y33254300D03*
X64456700D03*
Y35591100D03*
D02*
D76*
X101304200Y48847700D03*
Y59047700D03*
X103844200Y48847700D03*
X108924200D03*
Y59047700D03*
X111464200Y48847700D03*
D02*
D77*
X50083300Y18847700D03*
Y19497700D03*
Y20147700D03*
Y20797700D03*
X54325100Y18847700D03*
Y19497700D03*
Y20147700D03*
Y20797700D03*
D02*
D78*
X57704200Y22372700D03*
D02*
D79*
Y20021700D03*
D02*
D80*
X51904200Y27822700D03*
X56474200D03*
D02*
D81*
X54189200Y35002700D03*
D02*
D82*
X62804200Y20647700D03*
X65104200D03*
X67404200D03*
D02*
D83*
X65104200Y27047700D03*
D02*
D84*
X63754200Y37281700D03*
Y39313700D03*
D02*
D85*
X87117700Y19547700D03*
X88067700D03*
X89167700D03*
X90267700D03*
X91367700D03*
X92467700D03*
X93567700D03*
X94667700D03*
X95767700D03*
D02*
D86*
X86167700Y15247700D03*
X97317700Y19547700D03*
D02*
D87*
X86167700Y4897700D03*
D02*
D88*
Y9047700D03*
D02*
D89*
X99667700Y4447700D03*
D02*
D90*
X82832200Y28501200D03*
Y29651200D03*
X83232200Y28501200D03*
Y29651200D03*
X83632200Y28501200D03*
Y29651200D03*
X84032200Y28501200D03*
Y29651200D03*
X84432200Y28501200D03*
Y29651200D03*
X84832200Y28501200D03*
Y29651200D03*
X85232200Y28501200D03*
Y29651200D03*
X85632200Y28501200D03*
Y29651200D03*
D02*
D91*
X84232200Y29076200D03*
D02*
D92*
X95004200Y26272700D03*
Y28172700D03*
X95654200Y26272700D03*
Y28172700D03*
X96304200Y26272700D03*
Y28172700D03*
X97904200Y26272700D03*
Y28172700D03*
X98554200Y26272700D03*
Y28172700D03*
X99204200Y26272700D03*
Y28172700D03*
D02*
D93*
X76529200Y25097700D03*
Y28797700D03*
X77179200Y25097700D03*
Y28797700D03*
X77829200Y25097700D03*
Y28797700D03*
X78479200Y25097700D03*
Y28797700D03*
D02*
D94*
X75654200Y25972700D03*
Y26622700D03*
Y27272700D03*
Y27922700D03*
X79354200Y25972700D03*
Y26622700D03*
Y27272700D03*
Y27922700D03*
D02*
D95*
X77504200Y26947700D03*
D02*
D96*
X71079200Y30297700D03*
X72979200D03*
D02*
D97*
X109652700Y21747700D03*
X110922700D03*
X112192700D03*
X113462700D03*
X114732700D03*
X116002700D03*
X117272700D03*
X118542700D03*
D02*
D98*
X108307700Y5897700D03*
X119887700D03*
D02*
D99*
X51054200Y60997700D03*
X52004200Y63197700D03*
X52954200Y60997700D03*
X57854200D03*
X58804200Y63197700D03*
X59754200Y60997700D03*
X64829200D03*
X65779200Y63197700D03*
X66729200Y60997700D03*
X71654200D03*
X72604200Y63197700D03*
X73554200Y60997700D03*
X78454200D03*
X79404200Y63197700D03*
X80354200Y60997700D03*
X85354200D03*
X86304200Y63197700D03*
X87254200Y60997700D03*
X116604200Y64947700D03*
X117554200Y62747700D03*
X118504200Y64947700D03*
X121329200Y62747700D03*
X122279200Y64947700D03*
X123229200Y62747700D03*
X125279200Y64997700D03*
X126229200Y62797700D03*
X127179200Y64997700D03*
X129929200Y62597700D03*
X130879200Y64797700D03*
X131829200Y62597700D03*
D02*
D100*
X42513200Y10847700D03*
Y70847700D03*
X44113200Y10847700D03*
Y70847700D03*
X140107400Y10847700D03*
X140113600Y70847700D03*
X141707400Y10847700D03*
X141713600Y70847700D03*
D02*
D101*
X69287400Y38197700D03*
Y40097700D03*
X71421000Y38197700D03*
Y39147700D03*
Y40097700D03*
D02*
D102*
X124854200Y26922700D03*
Y31422700D03*
X133954200Y26922700D03*
Y31422700D03*
X0Y0D02*
M02*
