%FSLAX36Y36*%
%MOMM*%
G04 EasyPC Gerber Version 18.0.8 Build 3632 *
%ADD88R,0.25000X0.40000*%
%ADD27R,0.30000X1.47500*%
%ADD92R,0.40000X0.50000*%
%ADD93R,0.40000X0.60000*%
%ADD73R,0.50800X0.96520*%
%ADD107R,0.60000X1.50000*%
%ADD83R,0.70000X1.20000*%
%ADD103R,0.76000X4.18000*%
%ADD80R,0.95000X1.60000*%
%ADD25R,1.00000X1.10000*%
%ADD84R,1.00000X1.20000*%
%ADD106R,1.00000X1.40000*%
%ADD85R,1.00000X2.80000*%
%ADD74R,1.20000X1.80000*%
%ADD96R,1.30000X1.50000*%
%ADD87R,1.30000X1.90000*%
%ADD78R,1.60000X3.00000*%
%ADD76R,2.54000X2.67000*%
%ADD104R,3.42000X4.58000*%
%ADD79R,5.80000X6.20000*%
%ADD97R,1.52400X1.52400*%
%ADD95R,2.10000X2.10000*%
%ADD17C,0.12700*%
%ADD18C,0.15000*%
%ADD141C,0.20830*%
%ADD112C,0.30000*%
%ADD117C,0.50000*%
%ADD22C,0.63500*%
%ADD115C,0.75000*%
%ADD24C,0.81280*%
%ADD113C,0.90000*%
%ADD116C,1.00000*%
%ADD109C,1.39000*%
%ADD111C,1.42240*%
%ADD99C,1.52400*%
%ADD114C,1.60000*%
%ADD29C,1.62400*%
%ADD98C,1.72000*%
%ADD90C,1.77800*%
%ADD100C,3.00000*%
%ADD105C,3.31000*%
%ADD101C,3.60000*%
%ADD102C,4.20000*%
%ADD91C,4.44500*%
%ADD23C,5.20000*%
%ADD28R,1.47500X0.30000*%
%ADD75R,1.11760X0.38100*%
%ADD94R,0.60000X0.40000*%
%ADD89R,3.00000X0.45000*%
%ADD108R,1.16840X0.50800*%
%ADD77R,1.27000X0.76200*%
%ADD86R,1.00000X0.80000*%
%ADD26R,1.10000X1.00000*%
%ADD72R,1.80000X1.00000*%
%ADD110R,2.10000X1.40000*%
%ADD82R,3.20040X1.44780*%
%ADD81R,3.20000X1.60000*%
X0Y0D02*
D02*
D17*
X42104200Y3347700D02*
X142104200D01*
Y83347700*
X42104200*
Y3347700*
X56879200Y20297700D02*
Y17872700D01*
X58554200*
Y20297700*
X56879200*
G36*
Y17872700*
X58554200*
Y20297700*
X56879200*
G37*
X58629200Y38772700D02*
X67504200D01*
Y41672700*
X67295400Y41722700*
X58629200*
Y38772700*
G36*
X67504200*
Y41672700*
X67295400Y41722700*
X58629200*
Y38772700*
G37*
X59004200Y35284200D02*
Y35665200D01*
X59104200Y36004800D02*
Y35623800D01*
Y36690600D02*
Y37071600D01*
X59440700Y34797700D02*
X59821700D01*
X59447100Y36347700D02*
X59828100D01*
X60367700Y34747700D02*
X59986700D01*
X60486700Y36080200D02*
X60217300Y35810800D01*
X60486700Y36565200D02*
X60217300Y36834600D01*
X60804200Y35234200D02*
Y35615200D01*
X60971700Y36080200D02*
X61241100Y35810800D01*
X60971700Y36565200D02*
X61241100Y36834600D01*
X61229200Y32972700D02*
X58606200D01*
Y31822700*
X61229200*
Y32972700*
G36*
X58606200*
Y31822700*
X61229200*
Y32972700*
G37*
X61256200Y37947700D02*
X58633200D01*
Y34360700*
X61256200*
Y37947700*
G36*
X58633200*
Y34360700*
X61256200*
Y37947700*
G37*
X62329200Y37872700D02*
G75*
G02X62329300Y37713500I-8050400J-84700D01*
G01*
Y35658500*
G75*
G02X62331300Y35608500I-624600J-50000*
G01*
Y35160000*
X62754200*
Y35655100*
X63438200Y36374300*
Y36715300*
X63466600Y36624900*
Y36659500*
X65354200*
Y37872700*
X62329200*
G36*
G75*
G02X62329300Y37713500I-8050400J-84700*
G01*
Y35658500*
G75*
G02X62331300Y35608500I-624600J-50000*
G01*
Y35160000*
X62754200*
Y35655100*
X63438200Y36374300*
Y36715300*
X63466600Y36624900*
Y36659500*
X65354200*
Y37872700*
X62329200*
G37*
X64257400Y35972700D02*
Y35172700D01*
X66504200*
X67529200Y35165500*
Y41722700*
X65979200*
Y38147800*
G75*
G02X65991600Y37901300I-595500J-153500*
G01*
Y36518700*
G75*
G02Y36272200I-601700J-123200*
G01*
Y36016500*
X66350400*
G75*
G02X65974800Y35972700I-253700J542800*
G01*
X64257400*
G36*
Y35172700*
X66504200*
X67529200Y35165500*
Y41722700*
X65979200*
Y38147800*
G75*
G02X65991600Y37901300I-595500J-153500*
G01*
Y36518700*
G75*
G02Y36272200I-601700J-123200*
G01*
Y36016500*
X66350400*
G75*
G02X65974800Y35972700I-253700J542800*
G01*
X64257400*
G37*
X66804200Y18947700D02*
Y17747700D01*
X71254200*
Y18947700*
X66804200*
G36*
Y17747700*
X71254200*
Y18947700*
X66804200*
G37*
X66904200Y17747700D02*
X68079200Y17838100D01*
Y21347700*
X66804200*
Y17747700*
X66904200*
G36*
X68079200Y17838100*
Y21347700*
X66804200*
Y17747700*
X66904200*
G37*
X70204200Y11897700D02*
G75*
G02X70267800Y11315600I-1757500J-486500D01*
G01*
X77479200*
Y12322700*
X70204200*
Y11897700*
G36*
G75*
G02X70267800Y11315600I-1757500J-486500*
G01*
X77479200*
Y12322700*
X70204200*
Y11897700*
G37*
X71254200Y18847700D02*
X70054200D01*
Y11297700*
X71254200*
Y18847700*
G36*
X70054200*
Y11297700*
X71254200*
Y18847700*
G37*
X77754200Y11297700D02*
Y16597700D01*
X76554200*
Y11297700*
X77754200*
G36*
Y16597700*
X76554200*
Y11297700*
X77754200*
G37*
D02*
D18*
X50083300Y20797700D02*
X52629200D01*
Y18847700*
X54325100*
X50929200Y23272700D02*
Y22047700D01*
X54325100*
Y20797700*
X51004200Y65247700D02*
X52804200D01*
X51004200Y66947700D02*
Y67947700D01*
X51404200Y68347700*
X53104200*
X58104200Y73347700*
X59971200*
X60271200Y73047700*
X51579200Y37872700D02*
X54189200Y35262700D01*
Y35002700*
X51579200Y43047700D02*
X51554200Y43072700D01*
X52004200Y63197700D02*
Y64447700D01*
X52904200Y65247700*
X52804200*
X52629200Y25047700D02*
Y23272700D01*
X53404200Y36437700D02*
X54189200Y35652700D01*
Y35002700*
X53589200D02*
X54189200D01*
X54429200Y23322700D02*
Y23272700D01*
X52629200*
X54429200Y23322700D02*
X55529200D01*
Y20147700*
X54325100*
X55229200Y39472700D02*
X55254200Y39447700D01*
Y36467700D02*
X54189200Y35402700D01*
Y35002700*
X56904200Y38167700D02*
X54189200Y35452700D01*
Y35002700*
X56929200Y39447700D02*
X56954200Y39472700D01*
X57704200Y22372700D02*
X57404200D01*
Y25022700*
X58004200Y65247700D02*
X59704200D01*
X58004200Y66947700D02*
Y68047700D01*
X58304200Y68347700*
X59801000*
X61656200Y70202900*
X58404200Y31147700D02*
Y32122700D01*
X59004200*
Y33097700*
X58529200Y31147700D02*
X58044200D01*
X58804200Y63197700D02*
Y55347700D01*
X79504200*
X81604200Y53247700*
Y52060700*
X81579200Y52035700*
Y51985700*
X58804200Y63197700D02*
Y64447700D01*
X58004200Y65247700*
X59379200Y44772700D02*
Y45072700D01*
X59429200Y45122700*
Y46472700D02*
X59404200Y46497700D01*
Y46522700*
X59929200Y39247700D02*
X60354200D01*
Y40847700*
X60804200*
X59929200Y39247700D02*
Y39872700D01*
X62004200Y40622700*
X60804200Y31147700D02*
Y33047700D01*
X61179200Y46497700D02*
X61204200Y46522700D01*
X61229200*
X61204200Y41522700D02*
X62554200D01*
Y41622700*
X61204200Y44772700D02*
X61179200D01*
X62551700Y35591100D02*
Y36079200D01*
X63754200Y37281700*
X63004200Y46497700D02*
X63029200Y46522700D01*
X63054200*
X63029200Y44722700D02*
X63004200D01*
X63854200Y40972700D02*
X62529200Y40797700D01*
X64456700Y33254300D02*
Y31370200D01*
X64979200Y30847700*
X64904200Y65247700D02*
X66604200D01*
X64904200Y66947700D02*
Y69724900D01*
X64426200Y70202900*
X64979200Y30847700D02*
X62551700D01*
X65104200Y27047700D02*
Y27172700D01*
X64979200*
X65779200Y63197700D02*
Y64422700D01*
X66604200Y65247700*
X66304200Y40872700D02*
X64979200Y40997700D01*
X65029200*
Y40797700*
X67076200Y39741800D02*
X66679200Y39897700D01*
X67529200Y37032900D02*
X67129200D01*
Y37072700*
X66629200*
X69304200Y30297700D02*
X71079200D01*
X70629200Y45272700D02*
X68879200D01*
X70654200Y20597700D02*
X72454200D01*
X70654200Y46997700D02*
X68879200D01*
X70954200Y34197700D02*
Y32397700D01*
X71079200Y30297700D02*
Y30472700D01*
X71421000Y38197700D02*
Y38222700D01*
X78904200*
X78916200Y38210700*
X79804200*
X79841200Y38247700*
X71421000Y40097700D02*
X71604200D01*
Y41664500D02*
X71254200Y41922700D01*
X71704200Y66947700D02*
Y68464900D01*
X69966200Y70202900*
X72604200Y63197700D02*
Y64447700D01*
X73404200Y65247700*
X72654200Y32397700D02*
X74279200D01*
Y27272700*
X75654200*
X72681200Y13872700D02*
X73379200D01*
X73929200Y14422700*
Y20222700*
X74279200Y20572700*
X75329200*
X75404200Y20647700*
X72681200Y15872700D02*
Y20370700D01*
X72454200Y20597700*
X72736200Y70202900D02*
Y68915700D01*
X72904200Y68747700*
X75204200*
X76904200Y67047700*
X78204200*
X78304200Y66947700*
X78604200*
X72979200Y30297700D02*
X73054200D01*
Y26397700D02*
X74654200D01*
X74854200Y26597700*
X75629200*
X75654200Y26622700*
X73079200Y24672700D02*
X73729200D01*
X75004200Y25947700*
X75629200*
X75654200Y25972700*
X73404200Y65247700D02*
X71704200D01*
X74104200Y34197700D02*
X74054200D01*
X74954200Y49172700D02*
X75004200D01*
Y47447700D02*
X74954200D01*
X75279200Y42772700D02*
Y44097700D01*
Y42772700D02*
X76979200D01*
X77429200Y43222700*
X75304200Y40997700D02*
X77154200D01*
X77429200Y40722700*
X75354200Y39722700D02*
Y40947700D01*
X75304200Y40997700*
X75404200Y20647700D02*
X77154200D01*
X77204200Y20697700*
X75654200Y25972700D02*
Y25397700D01*
X76004200Y25047700*
X76479200*
X76529200Y25097700*
X75654200Y27922700D02*
Y28997700D01*
X77179200Y25097700D02*
Y24197700D01*
X76629200Y23647700*
X72704200*
X72404200Y23347700*
Y22347700*
X72454200Y22297700*
X77179200Y28797700D02*
Y31347700D01*
X75429200*
Y32447700*
X77204200Y22397700D02*
Y23597700D01*
X77829200Y24222700*
Y25097700*
X78479200D02*
Y24147700D01*
X79179200Y23447700*
Y22522700*
X79304200Y22397700*
X78604200Y65247700D02*
X80304200D01*
X79304200Y20697700D02*
X81054200D01*
X79404200Y63197700D02*
Y64447700D01*
X78604200Y65247700*
X79841200Y40247700D02*
X80979200D01*
Y38122700*
X77829200Y34972700*
Y28797700*
X79841200Y40747700D02*
X81804200D01*
Y38147700*
X80804200Y37147700*
Y27922700*
X80179200Y27297700*
X79379200*
X79354200Y27272700*
X79841200Y41247700D02*
X77904200D01*
X77379200Y40722700*
X77429200*
X79841200Y41747700D02*
X78304200D01*
X77879200Y42172700*
Y42772700*
X77429200Y43222700*
X79841200Y45747700D02*
X74029200D01*
X73529200Y45247700*
X72479200*
X72454200Y45272700*
X72329200*
X79841200Y46247700D02*
X74229200D01*
X73454200Y47022700*
X72379200*
X72354200Y46997700*
X79841200Y49247700D02*
X78704200D01*
Y54547700*
X54006000*
X52004200Y56549500*
Y63197700*
X79841200Y50247700D02*
X79454200D01*
Y52947700*
X80354200Y60997700D02*
Y60247700D01*
X80304200*
X80404200Y51747700D02*
Y51722700D01*
X81279200Y50847700*
Y49747700*
X79841200*
X81104200Y54847700D02*
X82079200Y53872700D01*
Y51985700*
X81554200Y34747700D02*
Y36484700D01*
X81579200Y36509700*
X82079200D02*
X82104200D01*
Y35472700*
X82354200Y35222700*
Y33247700*
X82104200Y32997700*
Y29622700*
X82803700*
X82832200Y29651200*
X82079200Y51985700D02*
Y52647700D01*
X82579200Y36509700D02*
X82554200D01*
Y50247700*
X82579200*
Y51985700D02*
Y54872700D01*
X81104200Y56347700*
X65804200*
Y63122700*
X65779200Y63147700*
Y63197700*
X82832200Y28501200D02*
Y20913700D01*
X87117700*
Y19547700*
X83232200Y28501200D02*
Y21502700D01*
X89167700*
Y19547700*
X83232200Y29651200D02*
Y31719700D01*
X82804200Y32147700*
X83232200Y29651200D02*
X83229200D01*
X83579200Y36509700D02*
Y33347700D01*
X84604200*
Y32647700*
X83632200Y28501200D02*
Y22522700D01*
X91367700*
Y19547700*
X83632200Y29651200D02*
Y32847700D01*
X83079200*
Y36509700*
X84054200Y36272700D02*
Y36484700D01*
X84079200Y36509700*
X84432200Y29651200D02*
Y31297700D01*
X84579200Y36509700D02*
Y34822700D01*
X84979200Y34422700*
X84832200Y28501200D02*
Y23047700D01*
X93567700*
Y19547700*
X84832200Y29651200D02*
Y30750700D01*
X85329200Y31247700*
Y33747700*
X84079200*
Y36509700*
X85232200Y28501200D02*
Y23622700D01*
X94667700*
Y19547700*
X85232200Y29651200D02*
Y30547700D01*
X85829200Y31144700*
Y34572700*
X85104200Y35297700*
Y36484700*
X85079200Y36509700*
X85404200Y65247700D02*
X87004200D01*
X85404200Y66947700D02*
X83404200D01*
X81804200Y68547700*
X77161400*
X75506200Y70202900*
X86079200Y51985700D02*
Y53872700D01*
X86054200*
X86304200Y63197700D02*
Y58547700D01*
X92579200*
Y51985700*
X86304200Y63197700D02*
Y64547700D01*
X87004200Y65247700*
X86404200Y26397700D02*
X86429200D01*
X87079200Y51985700D02*
Y53147700D01*
X87604200*
Y53947700*
X87574200Y51985700D02*
X87579200D01*
X89167700Y19547700D02*
Y17972700D01*
X89479200Y32472700D02*
X87579200D01*
X89577800Y71047700D02*
Y69549100D01*
X89904200Y69222700*
Y65547700*
X89979200Y65472700*
X89579200Y36509700D02*
Y38247700D01*
X90079200Y36509700D02*
Y34997700D01*
X90654200*
Y34347700*
X90829200Y34172700*
X90079200Y36509700D02*
Y37622700D01*
X90904200Y38447700*
X90079200Y51985700D02*
Y56497700D01*
X89429200Y57147700*
X72604200*
Y63197700*
X90579200Y36509700D02*
Y35497700D01*
X91504200Y34572700*
Y29922700*
X89829200Y28247700*
Y25597700*
X89579200Y25347700*
X90979200D02*
X89579200D01*
X91079200Y36509700D02*
Y35597700D01*
X91879200Y34797700*
X91079200Y51985700D02*
Y49397700D01*
X91367700Y19547700D02*
Y17572700D01*
X97104200*
Y13922700*
X91579200Y36509700D02*
X91554200D01*
X91579200Y51985700D02*
Y57047700D01*
X90679200Y57947700*
X79404200*
Y63197700*
X91679200Y63722700D02*
Y65472700D01*
X91879200Y34797700D02*
Y29547700D01*
X91204200Y28872700*
Y27147700*
X91229200Y27122700*
X92079200Y51985700D02*
Y50297700D01*
X92579200Y36509700D02*
Y35147700D01*
X93029200Y34697700*
X96204200*
Y30847700*
X95254200*
X95204200Y30797700*
X93079200Y36509700D02*
Y35172700D01*
X96579200*
Y30847700*
X97654200*
Y30747700*
X93079200Y51985700D02*
Y61997700D01*
X90204200*
Y63497700*
X89979200Y63722700*
X93354200Y26747700D02*
X92229200D01*
Y35522700*
X91579200*
Y36509700*
X93354200Y26747700D02*
X96229200D01*
X93567700Y19547700D02*
Y18272700D01*
X98204200*
Y12997700*
X93579200Y51985700D02*
Y63472700D01*
X93679200Y63572700*
Y63722700*
X94657800Y71047700D02*
Y67822700D01*
X93654200Y66819100*
Y65472700*
X95004200Y26272700D02*
X95029200D01*
Y25447700*
X97054200Y23422700*
X100054200*
X107254200Y16222700*
X111054200*
X113229200Y18397700*
X115229200*
X116004200Y19172700*
Y21746200*
X116002700Y21747700*
X95004200Y28172700D02*
Y27297700D01*
X99204200*
Y28172700*
X95204200Y30797700D02*
X95004200D01*
Y28172700*
X95317200Y38747700D02*
X96454200D01*
Y35672700*
X97979200*
X98154200Y35497700*
X95317200Y39247700D02*
X96979200D01*
Y37197700*
X98129200*
X98179200Y37247700*
X95317200Y40247700D02*
X94229200D01*
Y41022700*
X91204200*
X90704200Y41522700*
X95317200Y41747700D02*
X102879200D01*
X104554200Y40072700*
X95317200Y42247700D02*
X101379200D01*
X101954200Y42822700*
X95317200Y49247700D02*
X93504200D01*
Y49947700*
X95379200Y63722700D02*
Y65447700D01*
X95354200Y65472700*
X95654200Y26272700D02*
Y25922700D01*
X96329200Y25247700*
X96229200Y26747700D02*
X99204200D01*
Y26272700*
X96229200Y26747700D02*
X96329200D01*
Y26297700*
X96304200Y26272700*
Y28172700D02*
Y27647700D01*
X97529200*
X97929200Y28047700*
X97904200*
Y28172700*
X97179200Y45722700D02*
X97254200Y45797700D01*
Y46122700*
X97654200Y30747700D02*
Y29997700D01*
X97929200Y29722700*
Y28172700*
X97904200*
Y26272700D02*
Y24247700D01*
X97954200Y24297700*
X100054200*
X107029200Y17322700*
X111004200*
X112204200Y18522700*
Y21642700*
X112192700Y21654200*
Y21747700*
X98254200Y38997700D02*
X98029200D01*
X98554200Y26272700D02*
Y25647700D01*
X98929200Y25272700*
X98954200Y46122700D02*
X99029200D01*
Y48172700*
Y32347700D02*
X99329200Y32472700D01*
X99854200Y35497700D02*
X101729200D01*
X101804200Y35422700*
X99879200Y37247700D02*
X101779200D01*
X101804200Y37222700*
X100554200Y46222700D02*
X99054200D01*
X98954200Y46122700*
X101804200Y35422700D02*
X103254200D01*
Y32372700*
X107604200Y28022700*
Y25297700*
X106479200*
X106429200Y25347700*
X101804200Y37222700D02*
X103929200D01*
Y32572700*
X108479200Y28022700*
Y25272700*
X109554200*
X109629200Y25347700*
X104754200Y45397700D02*
X104804200Y45347700D01*
X106279200Y46122700D02*
Y44497700D01*
X105529200Y43747700*
X95317200*
X106429200Y25347700D02*
Y21397700D01*
X109129200Y18697700*
X110654200*
X111054200Y19097700*
Y21616200*
X110922700Y21747700*
X106729200Y55597700D02*
Y52172700D01*
X107379200Y51522700*
X116979200*
X118029200Y50472700*
X119579200*
Y50597700*
X108699200Y59722700D02*
X108924200Y59497700D01*
Y59047700*
X108879200Y59092700D02*
X108924200Y59047700D01*
X109004200*
Y59547700*
X108924200Y59047700D02*
Y59322700D01*
X109629200Y25347700D02*
Y21771200D01*
X109652700Y21747700*
X110929200Y48312700D02*
X111464200Y48847700D01*
X111229200Y27047700D02*
X111279200Y26997700D01*
X111464200Y48847700D02*
X111104200D01*
X113779200Y35132700D02*
X113764200Y35147700D01*
X117554200Y62747700D02*
Y66922700D01*
X117404200*
X118329200Y54897700D02*
X116529200Y53097700D01*
X107904200*
X107704200Y53297700*
Y53822700*
X119104200Y66922700D02*
Y68072700D01*
X118354200Y68822700*
Y73004700*
X118397200Y73047700*
X119579200Y57847700D02*
X115654200D01*
X113404200Y55597700*
X111454200*
X120304200Y38972700D02*
X127829200D01*
X130429200Y41572700*
Y60597700*
X130979200Y61147700*
Y64797700*
X130879200*
X120504200Y27797700D02*
Y27672700D01*
X119154200*
X120529200Y29522700D02*
X120504200Y29497700D01*
X120529200Y29522700D02*
X120504200Y29497700D01*
X120829200Y41172700D02*
X123704200D01*
X125229200Y42697700*
Y60022700*
X126279200Y61072700*
Y62747700*
X126229200Y62797700*
X120829200Y46147700D02*
X121554200D01*
Y59672700*
X119654200Y61572700*
X117529200*
Y62722700*
X117554200Y62747700*
X121167200Y73047700D02*
Y69034700D01*
X121954200Y68247700*
X123104200*
Y66972700*
X123179200Y66897700*
X122279200Y64947700D02*
X122229200D01*
Y60772700*
X122754200Y60247700*
Y44722700*
X121804200Y43772700*
X120704200*
X122279200Y64947700D02*
Y65247700D01*
X121429200Y66097700*
Y66847700*
X121479200Y66897700*
X122552200Y70202900D02*
X122654200D01*
Y70024700*
X124481200Y68197700*
X127854200*
Y66947700*
X127904200Y66897700*
X125322200Y70202900D02*
X127224000D01*
X129154200Y68272700*
X131754200*
Y66947700*
X131729200Y66922700*
X126229200Y62797700D02*
Y66872700D01*
X126204200Y66897700*
X130879200Y64797700D02*
Y65072700D01*
X130004200Y65947700*
Y66897700*
X130029200Y66922700*
D02*
D22*
X57129200Y18072700D02*
Y16375300D01*
X59804200*
Y18072700*
X57129200*
G36*
Y16375300*
X59804200*
Y18072700*
X57129200*
G37*
D02*
D23*
X45604200Y6847700D03*
Y79847700D03*
X138604200Y6847700D03*
Y79847700D03*
D02*
D24*
X45604200Y10847700D03*
Y14347700D03*
Y18347700D03*
Y22347700D03*
Y26347700D03*
Y30347700D03*
Y34347700D03*
Y38347700D03*
Y42347700D03*
Y47347700D03*
Y51347700D03*
Y55347700D03*
Y59347700D03*
Y63347700D03*
Y67347700D03*
Y70847700D03*
Y76347700D03*
X46604200Y12347700D03*
Y16347700D03*
Y20347700D03*
Y24347700D03*
Y28347700D03*
Y32347700D03*
Y36347700D03*
Y40347700D03*
Y44347700D03*
Y49347700D03*
Y53347700D03*
Y57347700D03*
Y61347700D03*
Y65347700D03*
Y69347700D03*
Y74847700D03*
X48454200Y15697700D03*
X49579200Y23272700D03*
Y25047700D03*
X49604200Y69347700D03*
X50104200Y73847700D03*
Y78847700D03*
X50179200Y26797700D03*
X50204200Y28847700D03*
X51054200Y59547700D03*
X51304200Y18747700D03*
X51554200Y46172700D03*
X52104200Y6347700D03*
Y79847700D03*
X52954200Y59547700D03*
X53404200Y46147700D03*
X54104200Y73847700D03*
Y78847700D03*
X54604200Y66947700D03*
X55104200Y5347700D03*
X55254200Y46147700D03*
X55479200Y19497700D03*
X56104200Y79847700D03*
X56954200Y46147700D03*
X57604200Y6347700D03*
X57804200Y59447700D03*
X58104200Y78847700D03*
X59104200Y36197700D03*
Y74847700D03*
X59154200Y40872700D03*
X59354200Y49522700D03*
X59754200Y59447700D03*
X60104200Y5347700D03*
Y79847700D03*
X60454200Y26122700D03*
X60729200Y36147700D03*
X60804200Y40847700D03*
X61229200Y49497700D03*
X61404200Y66947700D03*
X61604200Y74847700D03*
X61779200Y29122700D03*
X62104200Y78847700D03*
X62529200Y40797700D03*
X62804200Y18747700D03*
X63054200Y49522700D03*
X63504200Y34422700D03*
X64104200Y79847700D03*
X64604200Y74847700D03*
X64804200Y59447700D03*
X65029200Y40797700D03*
X65104200Y6347700D03*
X65779200Y45247700D03*
Y46997700D03*
X66104200Y78847700D03*
X66204200Y31897700D03*
Y34072700D03*
X66629200Y37072700D03*
X66679200Y39897700D03*
X66729200Y59447700D03*
X67104200Y74847700D03*
X68104200Y79847700D03*
X68229200Y34072700D03*
X68304200Y66947700D03*
X68379200Y31897700D03*
X69504200Y23422700D03*
X69654200Y43372700D03*
X69929200Y26397700D03*
X69979200Y24672700D03*
X70029200Y28372700D03*
X70104200Y5347700D03*
Y74847700D03*
Y78847700D03*
X71604200Y59447700D03*
X72104200Y79847700D03*
X72329200Y48922700D03*
X72429200Y51147700D03*
X72454200Y52597700D03*
X72579200Y35947700D03*
X72604200Y74847700D03*
X72679200Y38947700D03*
X72704200Y37297700D03*
X73104200Y6347700D03*
X73554200Y59347700D03*
X73579200Y44072700D03*
X73604200Y39772700D03*
X74054200Y34197700D03*
X74104200Y22347700D03*
Y78847700D03*
X75104200Y66947700D03*
X75279200Y44097700D03*
X75354200Y39722700D03*
X75604200Y74847700D03*
X75654200Y28997700D03*
X76104200Y5347700D03*
Y79847700D03*
X76529200Y30247700D03*
X78054200Y48747700D03*
X78104200Y74847700D03*
Y78847700D03*
X78154200Y47347700D03*
X78254200Y38947700D03*
X78404200Y59447700D03*
X78604200Y6347700D03*
X79079200Y37297700D03*
X79354200Y28847700D03*
Y33747700D03*
X79454200Y52947700D03*
X80104200Y79847700D03*
X80304200Y59447700D03*
X80404200Y51747700D03*
X80704200Y13647700D03*
X80804200Y26622700D03*
X81054200Y23747700D03*
X81104200Y54847700D03*
X81479200Y43847700D03*
Y45597700D03*
X81504200Y47247700D03*
X81529200Y48747700D03*
X81554200Y34747700D03*
X81629200Y29097700D03*
X81654200Y42422700D03*
X82004200Y66947700D03*
X82104200Y78847700D03*
X82579200Y50247700D03*
X82704200Y14047700D03*
X82804200Y32147700D03*
X82979200Y55722700D03*
X83104200Y69347700D03*
Y73847700D03*
X83879200Y38722700D03*
Y41397700D03*
X83929200Y47247700D03*
X83954200Y48922700D03*
X83979200Y43822700D03*
Y45522700D03*
X84104200Y79847700D03*
X84432200Y31297700D03*
X84604200Y32647700D03*
X84979200Y15247700D03*
Y34422700D03*
X85304200Y50172700D03*
X85354200Y59447700D03*
X85554200Y38847700D03*
X85579200Y41897700D03*
Y43547700D03*
X86104200Y78847700D03*
X86204200Y9947700D03*
X86429200Y26397700D03*
X86579200Y28272700D03*
X86754200Y50197700D03*
X87104200Y38822700D03*
Y69347700D03*
Y73847700D03*
X87254200Y59447700D03*
X87579200Y29247700D03*
X87604200Y53947700D03*
X88429200Y38922700D03*
X88504200Y45372700D03*
X88529200Y46997700D03*
X88704200Y66947700D03*
X89029200Y49497700D03*
X89079200Y53447700D03*
X89167700Y17972700D03*
X89279200Y29197700D03*
X89404200Y9472700D03*
X89579200Y38247700D03*
X89729200Y11222700D03*
X90079200Y50322700D03*
X90104200Y78847700D03*
X90279200Y20797700D03*
X90429200Y40222700D03*
X90679200Y45922700D03*
X90704200Y41522700D03*
X90829200Y34172700D03*
X90904200Y38447700D03*
X90979200Y25347700D03*
X91079200Y49397700D03*
X91229200Y27122700D03*
X91804200Y59447700D03*
X92079200Y50297700D03*
X92104200Y79847700D03*
X92404200Y45922700D03*
X92467700Y20797700D03*
X93504200Y29422700D03*
Y49947700D03*
X93579200Y38247700D03*
Y39747700D03*
X93604200Y6347700D03*
X93629200Y44597700D03*
X93654200Y42747700D03*
X93679200Y46747700D03*
X93779200Y9472700D03*
X94104200Y78847700D03*
X94879200Y36922700D03*
X94904200Y55872700D03*
Y60397700D03*
X94979200Y24297700D03*
X95204200Y33822700D03*
X95317200Y50947700D03*
X96129200Y15397700D03*
X96154200Y29222700D03*
X96329200Y25247700D03*
X96954200Y43022700D03*
X97104200Y13922700D03*
Y69347700D03*
Y73847700D03*
X97304200Y20772700D03*
X97454200Y60972700D03*
X97654200Y33822700D03*
Y48747700D03*
X98104200Y78847700D03*
X98204200Y12997700D03*
X98454200Y44872700D03*
X98929200Y25272700D03*
X99004200Y29247700D03*
X99029200Y48172700D03*
X99104200Y14122700D03*
X99504200Y38997700D03*
X99529200Y40697700D03*
X99779200Y54197700D03*
X99804200Y49422700D03*
X99854200Y56747700D03*
X100104200Y79847700D03*
X100154200Y44922700D03*
X100554200Y46222700D03*
X100629200Y30747700D03*
X101104200Y69347700D03*
Y73847700D03*
X101804200Y32397700D03*
X101954200Y42822700D03*
X102104200Y78847700D03*
X102429200Y49322700D03*
X102454200Y48197700D03*
X103079200Y46597700D03*
X103129200Y38922700D03*
X103179200Y54272700D03*
X103354200Y27047700D03*
X103429200Y25272700D03*
X103604200Y6347700D03*
X104104200Y79847700D03*
X104554200Y40072700D03*
X104629200Y61797700D03*
X104679200Y28397700D03*
X104754200Y46572700D03*
X104904200Y48222700D03*
X105829200Y52972700D03*
X106104200Y74847700D03*
Y78847700D03*
X106279200Y46122700D03*
X106729200Y55597700D03*
X107704200Y53822700D03*
X107879200Y49447700D03*
X108104200Y79847700D03*
X108604200Y74847700D03*
X108929200Y42722700D03*
Y54897700D03*
X109054200Y46947700D03*
X109254200Y40072700D03*
X109629200Y28372700D03*
X109829200Y65097700D03*
X110104200Y78847700D03*
X111454200Y55597700D03*
X111604200Y74847700D03*
X112104200Y79847700D03*
X112404200Y50347700D03*
X112429200Y54597700D03*
X112529200Y25347700D03*
Y26997700D03*
X113629200Y50372700D03*
X113729200Y42272700D03*
X113754200Y54597700D03*
Y57397700D03*
X113979200Y46397700D03*
X114104200Y6347700D03*
Y74847700D03*
Y78847700D03*
X114154200Y24897700D03*
X114204200Y43897700D03*
X114654200Y40097700D03*
X115329200Y61047700D03*
X115354200Y59547700D03*
X115554200Y64947700D03*
X115804200Y50322700D03*
X116104200Y79847700D03*
X116154200Y48597700D03*
X116704200Y56047700D03*
Y61472700D03*
X117104200Y74847700D03*
X118104200Y78847700D03*
X118329200Y54897700D03*
X119154200Y27672700D03*
X119604200Y40097700D03*
Y74847700D03*
X119654200Y59522700D03*
X119729200Y42297700D03*
Y45172700D03*
X119804200Y47397700D03*
Y64947700D03*
X120104200Y79847700D03*
X120304200Y37497700D03*
Y38972700D03*
X120704200Y43772700D03*
X120829200Y41172700D03*
Y46147700D03*
X122104200Y78847700D03*
X122304200Y26522700D03*
X122604200Y74847700D03*
X123404200Y61197700D03*
X123429200Y54247700D03*
X123604200Y5347700D03*
X124104200Y79847700D03*
X124254200Y64997700D03*
X124279200Y62747700D03*
X124579200Y61172700D03*
X124854200Y25622700D03*
X125104200Y74847700D03*
X125979200Y51797700D03*
Y57397700D03*
X126104200Y6347700D03*
Y78847700D03*
X127279200Y60997700D03*
X128104200Y5347700D03*
Y79847700D03*
X128354200Y64997700D03*
X128779200Y62597700D03*
X129729200Y61047700D03*
X130104200Y6347700D03*
Y69347700D03*
Y73847700D03*
Y78847700D03*
X131154200Y53622700D03*
Y55547700D03*
X131854200Y60847700D03*
X132104200Y5347700D03*
Y79847700D03*
X133154200Y62622700D03*
X133954200Y25697700D03*
X134104200Y69347700D03*
Y78847700D03*
X134604200Y73847700D03*
X137604200Y12347700D03*
Y17347700D03*
Y21347700D03*
Y25347700D03*
Y29347700D03*
Y33347700D03*
Y37347700D03*
Y41347700D03*
Y45347700D03*
Y49347700D03*
Y53347700D03*
Y57347700D03*
Y61347700D03*
Y65347700D03*
Y69347700D03*
Y72347700D03*
Y76347700D03*
X138604200Y10847700D03*
Y15347700D03*
Y19347700D03*
Y23347700D03*
Y27347700D03*
Y31347700D03*
Y35347700D03*
Y39347700D03*
Y43347700D03*
Y47347700D03*
Y51347700D03*
Y55347700D03*
Y59347700D03*
Y63347700D03*
Y67347700D03*
Y70847700D03*
Y74347700D03*
D02*
D25*
X48454200Y17172700D03*
Y18872700D03*
X51004200Y65247700D03*
Y66947700D03*
X51554200Y43072700D03*
Y44772700D03*
X51579200Y39472700D03*
Y41172700D03*
X52804200Y65247700D03*
Y66947700D03*
X53404200Y39472700D03*
Y41172700D03*
Y43072700D03*
Y44772700D03*
X54429200Y23322700D03*
Y25022700D03*
X55254200Y39447700D03*
Y41147700D03*
Y43072700D03*
Y44772700D03*
X56954200Y39472700D03*
Y41172700D03*
Y43072700D03*
Y44772700D03*
X58004200Y65247700D03*
Y66947700D03*
X59004200Y33097700D03*
Y34797700D03*
X59379200Y43072700D03*
Y44772700D03*
X59404200Y46522700D03*
Y48222700D03*
X59704200Y65247700D03*
Y66947700D03*
X59929200Y37547700D03*
Y39247700D03*
X60804200Y33047700D03*
Y34747700D03*
X61204200Y43072700D03*
Y44772700D03*
X61229200Y46522700D03*
Y48222700D03*
X63029200Y43022700D03*
Y44722700D03*
X63054200Y46522700D03*
Y48222700D03*
X64904200Y65247700D03*
Y66947700D03*
X66604200Y65247700D03*
Y66947700D03*
X70654200Y20597700D03*
Y22297700D03*
X71704200Y65247700D03*
Y66947700D03*
X72454200Y20597700D03*
Y22297700D03*
X73404200Y65247700D03*
Y66947700D03*
X75404200Y20647700D03*
Y22347700D03*
X75429200Y32447700D03*
Y34147700D03*
X77204200Y20697700D03*
Y22397700D03*
X78604200Y65247700D03*
Y66947700D03*
X79304200Y20697700D03*
Y22397700D03*
X79354200Y30672700D03*
Y32372700D03*
X80304200Y65247700D03*
Y66947700D03*
X81054200Y20697700D03*
Y22397700D03*
X85404200Y65247700D03*
Y66947700D03*
X87004200Y65247700D03*
Y66947700D03*
X93354200Y25047700D03*
Y26747700D03*
X93479200Y30797700D03*
Y32497700D03*
X95204200Y30797700D03*
Y32497700D03*
X97654200Y30747700D03*
Y32447700D03*
X98254200Y38997700D03*
Y40697700D03*
X99329200Y30772700D03*
Y32472700D03*
X101804200Y33722700D03*
Y35422700D03*
Y37222700D03*
Y38922700D03*
X104679200Y25347700D03*
Y27047700D03*
X106429200Y25347700D03*
Y27047700D03*
X109629200Y25347700D03*
Y27047700D03*
X110929200Y44697700D03*
Y46397700D03*
X111279200Y25297700D03*
Y26997700D03*
X112654200Y44697700D03*
Y46397700D03*
X120504200Y27797700D03*
Y29497700D03*
X122304200Y27822700D03*
Y29522700D03*
D02*
D26*
X50929200Y23272700D03*
Y25047700D03*
X52629200Y23272700D03*
Y25047700D03*
X58729200Y27422700D03*
Y29122700D03*
X60429200Y27422700D03*
Y29122700D03*
X67179200Y45272700D03*
Y46997700D03*
X68879200Y45272700D03*
Y46997700D03*
X69429200Y36297700D03*
X69554200Y41922700D03*
X70629200Y45272700D03*
X70654200Y46997700D03*
X70954200Y32397700D03*
Y34197700D03*
X71129200Y36297700D03*
X71254200Y41922700D03*
X71354200Y26397700D03*
Y28372700D03*
X71379200Y24672700D03*
X72329200Y45272700D03*
X72354200Y46997700D03*
X72654200Y32397700D03*
Y34197700D03*
X73054200Y26397700D03*
Y28372700D03*
X73079200Y24672700D03*
X73579200Y42772700D03*
X73604200Y40997700D03*
X74954200Y47447700D03*
Y49172700D03*
X75279200Y42772700D03*
X75304200Y40997700D03*
X76654200Y47447700D03*
Y49172700D03*
X84354200Y53872700D03*
Y55572700D03*
X86054200Y53872700D03*
Y55572700D03*
X87579200Y30497700D03*
Y32472700D03*
Y33972700D03*
X87879200Y25347700D03*
X89279200Y30497700D03*
X89479200Y32472700D03*
Y33972700D03*
X89579200Y25347700D03*
X89979200Y63722700D03*
Y65472700D03*
X91679200Y63722700D03*
Y65472700D03*
X93654200D03*
X93679200Y63722700D03*
X95354200Y65472700D03*
X95379200Y63722700D03*
X97254200Y46122700D03*
X98154200Y35497700D03*
X98179200Y37247700D03*
X98954200Y46122700D03*
X99854200Y35497700D03*
X99879200Y37247700D03*
X103104200Y45347700D03*
X104804200D03*
X108879200Y61072700D03*
X110579200D03*
X112304200Y61047700D03*
X114004200D03*
X117404200Y66922700D03*
X119104200D03*
X120529200Y31422700D03*
X121479200Y66897700D03*
X122229200Y31422700D03*
X123179200Y66897700D03*
X126204200D03*
X127904200D03*
X130029200Y66922700D03*
X131729200D03*
D02*
D27*
X81579200Y36509700D03*
Y51985700D03*
X82079200Y36509700D03*
Y51985700D03*
X82579200Y36509700D03*
Y51985700D03*
X83079200Y36509700D03*
Y51985700D03*
X83579200Y36509700D03*
Y51985700D03*
X84079200Y36509700D03*
Y51985700D03*
X84579200Y36509700D03*
Y51985700D03*
X85079200Y36509700D03*
Y51985700D03*
X85579200Y36509700D03*
Y51985700D03*
X86079200Y36509700D03*
Y51985700D03*
X86579200Y36509700D03*
Y51985700D03*
X87079200Y36509700D03*
Y51985700D03*
X87579200Y36509700D03*
Y51985700D03*
X88079200Y36509700D03*
Y51985700D03*
X88579200Y36509700D03*
Y51985700D03*
X89079200Y36509700D03*
Y51985700D03*
X89579200Y36509700D03*
Y51985700D03*
X90079200Y36509700D03*
Y51985700D03*
X90579200Y36509700D03*
Y51985700D03*
X91079200Y36509700D03*
Y51985700D03*
X91579200Y36509700D03*
Y51985700D03*
X92079200Y36509700D03*
Y51985700D03*
X92579200Y36509700D03*
Y51985700D03*
X93079200Y36509700D03*
Y51985700D03*
X93579200Y36509700D03*
Y51985700D03*
D02*
D28*
X79841200Y38247700D03*
Y38747700D03*
Y39247700D03*
Y39747700D03*
Y40247700D03*
Y40747700D03*
Y41247700D03*
Y41747700D03*
Y42247700D03*
Y42747700D03*
Y43247700D03*
Y43747700D03*
Y44247700D03*
Y44747700D03*
Y45247700D03*
Y45747700D03*
Y46247700D03*
Y46747700D03*
Y47247700D03*
Y47747700D03*
Y48247700D03*
Y48747700D03*
Y49247700D03*
Y49747700D03*
Y50247700D03*
X95317200Y38247700D03*
Y38747700D03*
Y39247700D03*
Y39747700D03*
Y40247700D03*
Y40747700D03*
Y41247700D03*
Y41747700D03*
Y42247700D03*
Y42747700D03*
Y43247700D03*
Y43747700D03*
Y44247700D03*
Y44747700D03*
Y45247700D03*
Y45747700D03*
Y46247700D03*
Y46747700D03*
Y47247700D03*
Y47747700D03*
Y48247700D03*
Y48747700D03*
Y49247700D03*
Y49747700D03*
Y50247700D03*
D02*
D29*
X119579200Y50597700D03*
Y57847700D03*
X127829200Y50597700D03*
Y57847700D03*
D02*
D72*
X77429200Y40722700D03*
Y43222700D03*
D02*
D73*
X62551700Y33254300D03*
Y35591100D03*
X63504200Y33254300D03*
X64456700D03*
Y35591100D03*
D02*
D74*
X101304200Y48847700D03*
Y59047700D03*
X103844200Y48847700D03*
X108924200D03*
Y59047700D03*
X111464200Y48847700D03*
D02*
D75*
X50083300Y18847700D03*
Y19497700D03*
Y20147700D03*
Y20797700D03*
X54325100Y18847700D03*
Y19497700D03*
Y20147700D03*
Y20797700D03*
D02*
D76*
X57704200Y22372700D03*
D02*
D77*
Y20021700D03*
D02*
D78*
X51904200Y27822700D03*
X56474200D03*
D02*
D79*
X54189200Y35002700D03*
D02*
D80*
X62804200Y20647700D03*
X65104200D03*
X67404200D03*
D02*
D81*
X65104200Y27047700D03*
D02*
D82*
X63754200Y37281700D03*
Y39313700D03*
D02*
D83*
X87117700Y19547700D03*
X88067700D03*
X89167700D03*
X90267700D03*
X91367700D03*
X92467700D03*
X93567700D03*
X94667700D03*
X95767700D03*
D02*
D84*
X86167700Y15247700D03*
X97317700Y19547700D03*
D02*
D85*
X86167700Y4897700D03*
D02*
D86*
Y9047700D03*
D02*
D87*
X99667700Y4447700D03*
D02*
D88*
X82832200Y28501200D03*
Y29651200D03*
X83232200Y28501200D03*
Y29651200D03*
X83632200Y28501200D03*
Y29651200D03*
X84032200Y28501200D03*
Y29651200D03*
X84432200Y28501200D03*
Y29651200D03*
X84832200Y28501200D03*
Y29651200D03*
X85232200Y28501200D03*
Y29651200D03*
X85632200Y28501200D03*
Y29651200D03*
D02*
D89*
X84232200Y29076200D03*
D02*
D90*
X58886200Y70202900D03*
X60271200Y73047700D03*
X61656200Y70202900D03*
X63001000Y73047700D03*
X64426200Y70202900D03*
X65811200Y73047700D03*
X67196200Y70202900D03*
X68581200Y73047700D03*
X69966200Y70202900D03*
X71351200Y73047700D03*
X72736200Y70202900D03*
X74121200Y73047700D03*
X75506200Y70202900D03*
X76891200Y73047700D03*
X78276200Y70202900D03*
X105932200D03*
X107317200Y73047700D03*
X108702200Y70202900D03*
X110047000Y73047700D03*
X111472200Y70202900D03*
X112857200Y73047700D03*
X114242200Y70202900D03*
X115627200Y73047700D03*
X117012200Y70202900D03*
X118397200Y73047700D03*
X119782200Y70202900D03*
X121167200Y73047700D03*
X122552200Y70202900D03*
X123937200Y73047700D03*
X125322200Y70202900D03*
D02*
D91*
X51931200Y71625300D03*
X85231200D03*
X98977200D03*
X132277200D03*
D02*
D92*
X95004200Y26272700D03*
Y28172700D03*
X95654200Y26272700D03*
Y28172700D03*
X96304200Y26272700D03*
Y28172700D03*
X97904200Y26272700D03*
Y28172700D03*
X98554200Y26272700D03*
Y28172700D03*
X99204200Y26272700D03*
Y28172700D03*
D02*
D93*
X76529200Y25097700D03*
Y28797700D03*
X77179200Y25097700D03*
Y28797700D03*
X77829200Y25097700D03*
Y28797700D03*
X78479200Y25097700D03*
Y28797700D03*
D02*
D94*
X75654200Y25972700D03*
Y26622700D03*
Y27272700D03*
Y27922700D03*
X79354200Y25972700D03*
Y26622700D03*
Y27272700D03*
Y27922700D03*
D02*
D95*
X77504200Y26947700D03*
D02*
D96*
X71079200Y30297700D03*
X72979200D03*
D02*
D97*
X67954200Y49872700D03*
Y52547700D03*
X70494200Y49872700D03*
Y52547700D03*
X106144200Y36572700D03*
X108684200D03*
X111224200D03*
X113764200D03*
X115479200Y31422700D03*
X116304200Y36572700D03*
X118019200Y31422700D03*
D02*
D98*
X75181200Y15872700D03*
D02*
D99*
X72681200Y13872700D03*
Y15872700D03*
X75181200Y13872700D03*
D02*
D100*
X67911200Y11162700D03*
X79951200D03*
D02*
D101*
X57732600Y9122700D03*
X62432600Y12122700D03*
D02*
D102*
X57732600Y15322700D03*
D02*
D103*
X109652700Y21747700D03*
X110922700D03*
X112192700D03*
X113462700D03*
X114732700D03*
X116002700D03*
X117272700D03*
X118542700D03*
D02*
D104*
X108307700Y5897700D03*
X119887700D03*
D02*
D105*
X108382700Y10137700D03*
X119812700D03*
D02*
D106*
X51054200Y60997700D03*
X52004200Y63197700D03*
X52954200Y60997700D03*
X57854200D03*
X58804200Y63197700D03*
X59754200Y60997700D03*
X64829200D03*
X65779200Y63197700D03*
X66729200Y60997700D03*
X71654200D03*
X72604200Y63197700D03*
X73554200Y60997700D03*
X78454200D03*
X79404200Y63197700D03*
X80354200Y60997700D03*
X85354200D03*
X86304200Y63197700D03*
X87254200Y60997700D03*
X116604200Y64947700D03*
X117554200Y62747700D03*
X118504200Y64947700D03*
X121329200Y62747700D03*
X122279200Y64947700D03*
X123229200Y62747700D03*
X125279200Y64997700D03*
X126229200Y62797700D03*
X127179200Y64997700D03*
X129929200Y62597700D03*
X130879200Y64797700D03*
X131829200Y62597700D03*
D02*
D107*
X42513200Y10847700D03*
Y70847700D03*
X44113200Y10847700D03*
Y70847700D03*
X140107400Y10847700D03*
X140113600Y70847700D03*
X141707400Y10847700D03*
X141713600Y70847700D03*
D02*
D108*
X69287400Y38197700D03*
Y40097700D03*
X71421000Y38197700D03*
Y39147700D03*
Y40097700D03*
D02*
D109*
X89577800Y71047700D03*
X92117800D03*
X94657800D03*
D02*
D110*
X124854200Y26922700D03*
Y31422700D03*
X133954200Y26922700D03*
Y31422700D03*
D02*
D111*
X82104200Y17947700D03*
D02*
D112*
X44113200Y10847700D02*
X45604200D01*
X44113200Y70847700D02*
Y69347700D01*
X45604200*
X44113200Y70847700D02*
X45604200D01*
Y11847700D02*
X44104200D01*
X44113200Y10847700*
X45604200Y16347700D02*
X46604200D01*
X45604200Y20347700D02*
X46604200D01*
X45604200Y24347700D02*
X46604200D01*
X45604200Y28347700D02*
X46604200D01*
X45604200Y32347700D02*
X46604200D01*
X45604200Y36347700D02*
X46604200D01*
X45604200Y40347700D02*
X46604200D01*
X45604200Y44347700D02*
X46604200D01*
X45604200Y49347700D02*
X46604200D01*
X45604200Y53347700D02*
X46604200D01*
X45604200Y57347700D02*
X46604200D01*
X45604200Y61347700D02*
X46604200D01*
X45604200Y65347700D02*
X46604200D01*
X48454200Y17172700D02*
Y15697700D01*
Y18872700D02*
X49279200D01*
Y18847700*
X50083300*
Y20147700D02*
X51329200D01*
Y18747700*
X51304200*
X50083300Y20147700D02*
Y19497700D01*
X50929200Y23272700D02*
X49579200D01*
X50929200Y25047700D02*
X49579200D01*
X50929200D02*
Y23272700D01*
X51054200Y60997700D02*
Y59547700D01*
X51554200Y44772700D02*
Y46172700D01*
X51579200Y39472700D02*
X53404200D01*
X51579200D02*
Y37872700D01*
Y41172700D02*
Y43047700D01*
X51904200Y27822700D02*
Y28847700D01*
X50204200*
X51904200Y27822700D02*
X51629200D01*
Y26797700*
X50179200*
X52104200Y5347700D02*
Y6347700D01*
X52804200Y66947700D02*
X54604200D01*
X52954200Y60997700D02*
Y59547700D01*
X53404200Y39472700D02*
X55229200D01*
X53404200D02*
Y36437700D01*
Y41172700D02*
Y43072700D01*
Y44772700D02*
Y46147700D01*
X54104200Y79847700D02*
Y78847700D01*
X54189200Y35002700D02*
Y33347700D01*
X48479200*
Y18872700*
X48454200*
X54325100Y19497700D02*
X55479200D01*
X55254200Y39447700D02*
X56929200D01*
X55254200D02*
Y36467700D01*
Y41147700D02*
Y43072700D01*
Y44772700D02*
Y46147700D01*
X56954200Y39472700D02*
X56904200D01*
Y38167700*
X56954200Y41172700D02*
Y43072700D01*
Y44772700D02*
Y46147700D01*
X57404200Y25022700D02*
X54429200D01*
X57604200Y5347700D02*
Y6347700D01*
X57854200Y60997700D02*
Y59497700D01*
X57804200Y59447700*
X58104200Y79847700D02*
Y78847700D01*
X58729200Y27422700D02*
Y29122700D01*
Y27422700D02*
X56874200D01*
X56474200Y27822700*
X59004200Y34797700D02*
Y35572700D01*
X59104200*
Y36197700*
X59379200Y43072700D02*
Y41597700D01*
X60779200*
X59404200Y48222700D02*
Y48872700D01*
X59354200*
Y49522700*
X59429200Y45122700D02*
Y46472700D01*
X59704200Y66947700D02*
X61404200D01*
X59754200Y60997700D02*
Y59447700D01*
X59929200Y37547700D02*
X59854200D01*
Y37422700*
X59929200Y39247700D02*
X59154200Y40872700D01*
X60429200Y27422700D02*
Y29122700D01*
Y27422700D02*
X60454200D01*
Y26122700*
X60429200Y29122700D02*
X61779200D01*
X60804200Y34747700D02*
Y35547700D01*
X60729200*
Y36147700*
X61179200Y44772700D02*
Y46497700D01*
X61204200Y43072700D02*
Y41522700D01*
X61229200Y48222700D02*
Y49497700D01*
X62104200Y79847700D02*
Y78847700D01*
X62804200Y20647700D02*
Y18747700D01*
X63004200Y44722700D02*
Y46497700D01*
X63029200Y43022700D02*
Y41422700D01*
X64429200*
Y41597700*
X63054200Y48222700D02*
Y49522700D01*
X63504200Y33254300D02*
Y34422700D01*
X64804200Y59447700D02*
Y60972700D01*
X64829200Y60997700*
X65104200Y5347700D02*
Y6347700D01*
X66104200Y79847700D02*
Y78847700D01*
X66204200Y31897700D02*
X68379200D01*
X66204200Y34072700D02*
Y31897700D01*
X66604200Y66947700D02*
X68304200D01*
X66729200Y60997700D02*
Y59447700D01*
X67179200Y45272700D02*
X65779200D01*
Y45247700*
X67179200Y46997700D02*
X65779200D01*
X68229200Y34072700D02*
X66204200D01*
X68254200Y40072700D02*
Y33997700D01*
X68229200*
Y34072700*
X68254200Y40072700D02*
X69262400D01*
X69287400Y40097700*
X68379200Y31897700D02*
Y33922700D01*
X68229200Y34072700*
X69287400Y40097700D02*
Y41655900D01*
X69554200Y41922700*
X69404200Y18247700D02*
Y18847700D01*
X67179200*
Y17897700*
X66854200*
Y18247700*
X66804200*
X69429200Y36297700D02*
X69304200D01*
Y30297700*
X69429200Y36297700D02*
X69354200D01*
Y38197700*
X69287400*
X69554200Y41922700D02*
X69679200D01*
Y43372700*
X69654200*
X72429200*
X69654200D02*
X68254200D01*
Y40072700*
X70104200Y79847700D02*
Y78847700D01*
X70494200Y49872700D02*
X72304200D01*
Y48922700*
X72329200*
X70494200Y52547700D02*
Y52572700D01*
X72454200*
Y52597700*
X70654200Y22297700D02*
X69504200Y23422700D01*
X71129200Y36297700D02*
X72579200D01*
Y35947700*
X71354200Y26397700D02*
X69929200D01*
X71354200Y28372700D02*
X70029200D01*
X71379200Y24672700D02*
X69979200D01*
X71604200Y40097700D02*
Y41664500D01*
X71654200Y60997700D02*
X71604200D01*
Y59447700*
X72429200Y43372700D02*
Y39247700D01*
X72679200Y38997700*
Y38947700*
X72654200Y34197700D02*
X74054200D01*
X72704200Y37297700D02*
X79079200D01*
X73054200Y28372700D02*
Y26397700D01*
Y30297700D02*
Y28372700D01*
X73104200Y5347700D02*
Y6347700D01*
X73404200Y66947700D02*
X75104200D01*
X73554200Y60997700D02*
Y59347700D01*
X73579200Y42772700D02*
Y44072700D01*
X72429200*
Y43372700*
X73604200Y40997700D02*
Y39772700D01*
X74104200Y79847700D02*
Y78847700D01*
X75004200Y49172700D02*
Y47447700D01*
X75206200Y15847700D02*
X75181200Y15872700D01*
X75404200Y22347700D02*
X74104200D01*
X75429200Y34147700D02*
Y34197700D01*
X74104200*
X76529200Y28797700D02*
Y30247700D01*
Y28797700D02*
Y27922700D01*
X77504200Y26947700*
X76654200Y49172700D02*
X77629200D01*
X78054200Y48747700*
X78104200Y79847700D02*
Y78847700D01*
X78154200Y47347700D02*
X76754200D01*
X76654200Y47447700*
X78254200Y38947700D02*
X72679200D01*
X78454200Y60997700D02*
Y59497700D01*
X78404200Y59447700*
X78604200Y5347700D02*
Y6347700D01*
X79354200Y26622700D02*
X80804200D01*
X79354200D02*
X77829200D01*
X77504200Y26947700*
X79354200Y27922700D02*
Y28847700D01*
Y30672700D02*
Y28847700D01*
Y32372700D02*
Y33747700D01*
X79841200Y38747700D02*
X78454200D01*
X78254200Y38947700*
X79841200Y39247700D02*
X78554200D01*
X78254200Y38947700*
X79841200Y39747700D02*
Y39247700D01*
Y42247700D02*
Y42747700D01*
Y42247700D02*
X81479200D01*
X81654200Y42422700*
X79841200Y42747700D02*
Y43247700D01*
X80829200*
X81654200Y42422700*
X79841200Y43747700D02*
Y43247700D01*
Y44247700D02*
X76804200D01*
X76054200Y44997700*
X74504200*
X73579200Y44072700*
X79841200Y44747700D02*
X81479200D01*
Y43847700*
X79841200Y45247700D02*
X81129200D01*
X81479200Y45597700*
X79841200Y46747700D02*
Y47247700D01*
X81504200*
X79841200Y47747700D02*
X78554200D01*
X78154200Y47347700*
X79841200Y47747700D02*
X81004200D01*
X81504200Y47247700*
X79841200Y48247700D02*
X81029200D01*
X81529200Y48747700*
X79841200D02*
X78054200D01*
X79841200D02*
X81529200D01*
X80304200Y60247700D02*
Y59447700D01*
Y66947700D02*
X82004200D01*
X81054200Y22397700D02*
Y23747700D01*
X82104200Y79847700D02*
Y78847700D01*
X83079200Y51985700D02*
X83579200D01*
X84079200*
X84579200*
X84232200Y29076200D02*
X86579200D01*
X84232200D02*
X85775700D01*
X84232200D02*
X81650700D01*
X81629200Y29097700*
X84354200Y53872700D02*
Y55572700D01*
Y55722700*
X82979200*
X84579200Y51985700D02*
Y53647700D01*
X84354200Y53872700*
X84579200Y51985700D02*
X85079200D01*
X85354200Y60997700D02*
Y59447700D01*
X85579200Y36509700D02*
Y37947700D01*
X83879200*
Y38722700*
X85579200Y36509700D02*
Y37072700D01*
Y51985700D02*
Y50447700D01*
X85304200Y50172700*
X86054200Y55572700D02*
Y53872700D01*
X86079200Y36509700D02*
Y35072700D01*
X86329200Y34822700*
Y29597700*
X86579200Y29347700*
Y29076200*
X86079200Y36509700D02*
Y38322700D01*
X85554200Y38847700*
X86104200Y79847700D02*
Y78847700D01*
X86167700Y4897700D02*
Y5347700D01*
X82604200*
X86167700Y9047700D02*
X86204200D01*
Y9947700*
X86167700Y15247700D02*
X84979200D01*
X86579200Y29076200D02*
Y28272700D01*
Y36509700D02*
X86079200D01*
X86579200Y51985700D02*
Y50372700D01*
X86754200Y50197700*
X87004200Y66947700D02*
X88704200D01*
X87079200Y36509700D02*
Y38797700D01*
X87104200Y38822700*
X87254200Y60997700D02*
Y59447700D01*
X87579200Y30497700D02*
Y29247700D01*
Y32472700D02*
Y30497700D01*
Y36509700D02*
Y33972700D01*
X87879200Y25347700D02*
X86404200D01*
Y26397700*
X88579200Y36509700D02*
Y37972700D01*
X88429200*
Y38922700*
X88579200Y51985700D02*
Y52947700D01*
X89079200Y53447700*
X88579200Y51985700D02*
X88529200D01*
Y51972700*
X88079200*
Y51985700*
X89029200Y49497700D02*
X87574200D01*
Y51985700*
X89079200Y36509700D02*
X88579200D01*
X89079200Y51985700D02*
Y53447700D01*
Y51985700D02*
X88579200D01*
X89079200D02*
Y50647700D01*
X89454200Y50272700*
X90029200*
X90079200Y50322700*
X89279200Y29197700D02*
Y28272700D01*
X86579200*
X89279200Y30497700D02*
Y29197700D01*
X89479200Y33972700D02*
Y34172700D01*
X90829200*
X90104200Y79847700D02*
Y78847700D01*
X90267700Y19547700D02*
Y20786200D01*
X90279200Y20797700*
X90579200Y51985700D02*
Y50822700D01*
X90079200Y50322700*
X90829200Y34172700D02*
X90729200D01*
Y29772700*
X90154200Y29197700*
X89279200*
X90904200Y38447700D02*
X92079200D01*
Y36509700*
Y37272700*
X92467700Y19547700D02*
Y20797700D01*
X93354200Y25047700D02*
Y24297700D01*
X94979200*
X93479200Y30797700D02*
Y30122700D01*
X93504200*
Y29422700*
X93479200Y32497700D02*
X95204200D01*
X93579200Y36509700D02*
Y36922700D01*
X94879200*
X93604200Y5347700D02*
Y6347700D01*
Y5347700D02*
X86167700D01*
Y4897700*
X94104200Y79847700D02*
Y78847700D01*
X95204200Y32497700D02*
Y33822700D01*
X95317200Y38247700D02*
X93579200D01*
X95317200Y39747700D02*
X93579200D01*
X95317200Y42747700D02*
X93654200D01*
X95317200Y43247700D02*
X94454200D01*
X93629200Y44072700*
Y44597700*
X95317200Y44247700D02*
X97179200D01*
Y45722700*
X95317200Y44747700D02*
Y45247700D01*
Y45747700D02*
Y45247700D01*
Y46247700D02*
Y45747700D01*
Y46747700D02*
X93679200D01*
X95317200D02*
Y46247700D01*
Y47247700D02*
Y46747700D01*
Y47747700D02*
Y47247700D01*
Y48247700D02*
Y47747700D01*
Y48747700D02*
Y48247700D01*
Y48747700D02*
X97654200D01*
X95317200Y50247700D02*
Y49747700D01*
Y50247700D02*
Y50947700D01*
X95654200Y28172700D02*
Y28722700D01*
X96154200Y29222700*
X97317700Y19547700D02*
Y20147700D01*
X97304200*
Y20772700*
X97654200Y32447700D02*
X99029200Y32347700D01*
X97654200Y32447700D02*
Y33822700D01*
X98029200Y38997700D02*
X96279200Y40747700D01*
X95317200*
X98104200Y79847700D02*
Y78847700D01*
X98254200Y38997700D02*
X99504200D01*
X98254200Y40697700D02*
X97454200D01*
X96904200Y41247700*
X95317200*
X98554200Y28172700D02*
Y28797700D01*
X99004200Y29247700*
X99329200Y30772700D02*
X100629200Y30747700D01*
X99529200Y40697700D02*
X98254200D01*
X99667700Y4447700D02*
Y5347700D01*
X93604200*
X99667700Y4447700D02*
Y4547700D01*
X99654200*
Y4697700*
X101304200Y48847700D02*
Y49322700D01*
X102429200*
X101304200Y48847700D02*
Y48197700D01*
X102454200*
X101804200Y33722700D02*
Y32397700D01*
Y38922700D02*
X103129200D01*
X102104200Y79847700D02*
Y78847700D01*
X103079200Y46597700D02*
Y45372700D01*
X103104200Y45347700*
X103604200Y5347700D02*
Y6347700D01*
Y5347700D02*
X99667700D01*
Y4447700*
X103844200Y48847700D02*
Y48222700D01*
X104904200*
X104629200Y61797700D02*
Y59722700D01*
X108699200*
X104679200Y25347700D02*
Y25272700D01*
X103429200*
X104679200Y27047700D02*
Y28397700D01*
Y27047700D02*
X103354200D01*
X104754200Y46572700D02*
Y45397700D01*
X106104200Y79847700D02*
Y78847700D01*
X106429200Y27047700D02*
X104679200D01*
X108307700Y5897700D02*
Y5347700D01*
X103604200*
X108879200Y61072700D02*
Y59092700D01*
X108924200Y48847700D02*
Y49447700D01*
X107879200*
X108924200Y59047700D02*
Y59297700D01*
X113754200*
Y57397700*
X108929200Y42722700D02*
X112579200D01*
X109004200Y59547700D02*
X115354200D01*
X109054200Y46947700D02*
Y48847700D01*
X108924200*
X109629200Y27047700D02*
X111229200D01*
X109629200D02*
Y28372700D01*
X110104200Y79847700D02*
Y78847700D01*
X110579200Y61072700D02*
X112279200D01*
X112304200Y61047700*
X110929200Y46397700D02*
Y48312700D01*
X111279200Y25297700D02*
Y25322700D01*
X112529200*
Y25347700*
X111279200Y26997700D02*
X112529200D01*
X111464200Y48847700D02*
Y48597700D01*
X116154200*
X112579200Y42722700D02*
X113279200D01*
X113729200Y42272700*
X112579200Y42722700D02*
X113029200D01*
X114204200Y43897700*
X112654200Y44697700D02*
X110929200D01*
X112654200Y46397700D02*
X113979200D01*
X113462700Y21747700D02*
Y24206200D01*
X114154200Y24897700*
X113462700Y21747700D02*
Y23195300D01*
X113479200*
X113764200Y35147700D02*
Y36572700D01*
X114004200Y61047700D02*
X115329200D01*
X114104200Y5347700D02*
Y6347700D01*
Y5347700D02*
X108307700D01*
Y5897700*
X114104200Y79847700D02*
Y78847700D01*
X114554200Y40322700D02*
Y40197700D01*
X114654200Y40097700*
X114479200*
X113754200Y40822700*
Y42247700*
X113729200Y42272700*
X115479200Y31422700D02*
X113779200D01*
Y35132700*
X116604200Y64947700D02*
X115554200D01*
X118104200Y79847700D02*
Y78847700D01*
X118504200Y64947700D02*
X119804200D01*
X119604200Y40097700D02*
X121104200D01*
X119729200Y45172700D02*
X122154200D01*
Y59897700*
X119754200Y62297700*
Y62772700*
Y64897700*
X119804200Y64947700*
X119754200Y62772700D02*
X121304200D01*
X121329200Y62747700*
X119782200Y70202900D02*
Y68544700D01*
X120329200Y67997700*
Y65472700*
X119804200Y64947700*
Y47397700D02*
X121004200D01*
Y59347700*
X119479200Y60872700*
X116704200*
Y61472700*
X119887700Y5897700D02*
Y5347700D01*
X114104200*
X119887700Y5897700D02*
X120104200D01*
Y5347700*
X123604200*
X120529200Y31422700D02*
X118019200D01*
X120529200D02*
Y29522700D01*
X121104200Y40097700D02*
Y40122700D01*
X121479200Y40497700*
X124004200*
X125979200Y42472700*
Y51797700*
X121104200Y40097700D02*
X121629200Y39572700D01*
X127454200*
X129779200Y41897700*
Y61047700*
X129729200*
X122104200Y79847700D02*
Y78847700D01*
X122229200Y31422700D02*
X124854200D01*
X122304200Y27822700D02*
Y26522700D01*
Y29522700D02*
X120529200D01*
X123229200Y62747700D02*
X124279200D01*
X123404200Y61197700D02*
Y44397700D01*
X121929200Y42922700*
X120454200*
X119829200Y42297700*
X119729200*
X124579200Y61172700D02*
Y43622700D01*
X123154200Y42197700*
X119829200*
X119729200Y42297700*
X124854200Y26922700D02*
Y25622700D01*
Y31422700D02*
X133954200D01*
X125279200Y64997700D02*
X124254200D01*
X125979200Y51797700D02*
Y57397700D01*
Y59697700*
X127279200Y60997700*
X126104200Y5347700D02*
Y6347700D01*
Y79847700D02*
Y78847700D01*
X127179200Y64997700D02*
X128354200D01*
X129929200Y62597700D02*
X128779200D01*
X130104200Y5347700D02*
Y6347700D01*
Y79847700D02*
Y78847700D01*
X131154200Y53622700D02*
Y41397700D01*
X128029200Y38272700*
X121054200*
X120304200Y37522700*
Y37497700*
X131154200Y55547700D02*
Y53622700D01*
X131829200Y62597700D02*
X133154200Y62622700D01*
X131854200Y60847700D02*
X131829200D01*
X131154200Y60172700*
Y55547700*
X133954200Y26922700D02*
Y25697700D01*
X134104200Y79847700D02*
Y78847700D01*
X138604200Y12347700D02*
X137604200D01*
X138604200Y17347700D02*
X137604200D01*
X138604200Y21347700D02*
X137604200D01*
X138604200Y25347700D02*
X137604200D01*
X138604200Y29347700D02*
X137604200D01*
X138604200Y33347700D02*
X137604200D01*
X138604200Y37347700D02*
X137604200D01*
X138604200Y41347700D02*
X137604200D01*
X138604200Y45347700D02*
X137604200D01*
X138604200Y49347700D02*
X137604200D01*
X138604200Y53347700D02*
X137604200D01*
X138604200Y57347700D02*
X137604200D01*
X138604200Y61347700D02*
X137604200D01*
X138604200Y65347700D02*
X137604200D01*
X138604200Y69347700D02*
X137604200D01*
X138604200Y72347700D02*
X137604200D01*
X138604200Y76347700D02*
X137604200D01*
X140107400Y10847700D02*
Y12347700D01*
X138604200*
X140107400Y10847700D02*
X138604200D01*
X140113600Y70847700D02*
Y69347700D01*
X138604200*
X140113600Y70847700D02*
X138604200D01*
D02*
D113*
X45604200Y10847700D02*
Y6847700D01*
Y11847700D02*
Y10847700D01*
Y14347700D02*
Y11847700D01*
Y16347700D02*
Y14347700D01*
Y18347700D02*
Y16347700D01*
Y20347700D02*
Y18347700D01*
Y22347700D02*
Y20347700D01*
Y24347700D02*
Y22347700D01*
Y26347700D02*
Y24347700D01*
Y28347700D02*
Y26347700D01*
Y30347700D02*
Y28347700D01*
Y32347700D02*
Y30347700D01*
Y34347700D02*
Y32347700D01*
Y36347700D02*
Y34347700D01*
Y38347700D02*
Y36347700D01*
Y40347700D02*
Y38347700D01*
Y42347700D02*
Y40347700D01*
Y44347700D02*
Y42347700D01*
Y47347700D02*
Y44347700D01*
Y49347700D02*
Y47347700D01*
Y51347700D02*
Y49347700D01*
Y53347700D02*
Y51347700D01*
Y55347700D02*
Y53347700D01*
Y57347700D02*
Y55347700D01*
Y59347700D02*
Y57347700D01*
Y61347700D02*
Y59347700D01*
Y63347700D02*
Y61347700D01*
Y65347700D02*
Y63347700D01*
Y67347700D02*
Y65347700D01*
Y69347700D02*
Y67347700D01*
Y70847700D02*
Y76347700D01*
Y70847700D02*
Y69347700D01*
Y76347700D02*
Y79847700D01*
X52104200Y5347700D02*
X49604200D01*
Y6847700*
X45604200*
X52104200Y79847700D02*
X45604200D01*
X52104200D02*
X54104200D01*
X56104200*
X55104200Y5347700D02*
X52104200D01*
X56104200Y79847700D02*
X58104200D01*
X57604200Y5347700D02*
X55104200D01*
X58104200Y79847700D02*
X60104200D01*
Y5347700D02*
X57604200D01*
X60104200Y79847700D02*
X62104200D01*
X64104200*
X66104200*
X65104200Y5347700D02*
X60104200D01*
X66104200Y79847700D02*
X68104200D01*
X70104200*
Y5347700D02*
X65104200D01*
X70104200Y79847700D02*
X72104200D01*
X74104200*
X73104200Y5347700D02*
X70104200D01*
X74104200Y79847700D02*
X76104200D01*
Y5347700D02*
X73104200D01*
X76104200Y79847700D02*
X78104200D01*
X80104200*
X78604200Y5347700D02*
X76104200D01*
X80104200Y79847700D02*
X82104200D01*
X84104200*
X82604200Y5347700D02*
X78604200D01*
X84104200Y79847700D02*
X86104200D01*
X90104200*
X92104200*
X94104200*
X98104200*
X100104200*
X102104200*
X104104200*
X106104200*
X108104200*
X110104200*
X112104200*
X114104200*
X116104200*
X118104200*
X120104200*
X122104200*
X124104200*
X126104200*
Y5347700D02*
X123604200D01*
X126104200Y79847700D02*
X128104200D01*
Y5347700D02*
X126104200D01*
X128104200Y79847700D02*
X130104200D01*
Y5347700D02*
X128104200D01*
X130104200Y79847700D02*
X134104200D01*
X132104200Y5347700D02*
X130104200D01*
X134104200Y79847700D02*
X138604200D01*
Y6847700D02*
X135104200D01*
Y5347700*
X132104200*
X138604200Y10847700D02*
Y6847700D01*
Y10847700D02*
Y12347700D01*
Y15347700*
Y17347700*
Y19347700*
Y21347700*
Y23347700*
Y25347700*
Y27347700*
Y29347700*
Y31347700*
Y33347700*
Y35347700*
Y37347700*
Y39347700*
Y41347700*
Y43347700*
Y45347700*
Y47347700*
Y49347700*
Y51347700*
Y53347700*
Y55347700*
Y57347700*
Y59347700*
Y61347700*
Y63347700*
Y65347700*
Y67347700*
Y69347700*
Y70847700*
Y72347700*
Y74347700*
Y76347700*
Y79847700*
D02*
D114*
X57704200Y22372700D02*
X57304200D01*
Y25472700*
X56474200*
Y27822700*
X58044200Y31147700D02*
X54189200Y35002700D01*
X58529200Y31147700D02*
X58404200D01*
X60804200D02*
X58529200D01*
X64979200Y27172700D02*
Y30472700D01*
Y30847700*
Y31147700*
X60804200*
X77004200Y15847700D02*
X75206200D01*
D02*
D115*
X62551700Y30847700D02*
Y32297700D01*
Y33254300*
D02*
D116*
X71079200Y30472700D02*
X64979200D01*
D02*
D117*
X109829200Y65097700D02*
X103829200D01*
X103179200Y64447700*
Y54272700*
X111104200Y48847700D02*
Y50272700D01*
X103179200*
Y54272700*
D02*
D141*
X126214600Y11613200D02*
X126735300D01*
X126474900D02*
Y13175300D01*
X126214600Y12915000*
X0Y0D02*
M02*
