%FSLAX36Y36*%
%MOMM*%
G04 EasyPC Gerber Version 18.0.8 Build 3632 *
%ADD12R,1.37160X0.22860*%
%ADD13R,1.37160X0.25400*%
%ADD14R,1.37160X0.27940*%
%ADD18R,0.34840X1.69840*%
%ADD19R,0.40640X1.57480*%
%ADD16R,0.66040X1.16840*%
%ADD11R,0.89840X0.99840*%
%ADD10R,0.99840X0.89840*%
%ADD17R,0.89840X1.29840*%
%ADD15R,2.56840X2.43840*%
%ADD70C,0.12700*%
X0Y0D02*
D02*
D10*
X73979200Y51147700D03*
Y52972700D03*
X74004200Y47497700D03*
Y49322700D03*
X75654200Y31697700D03*
X75679200Y51147700D03*
Y52972700D03*
X75704200Y47497700D03*
Y49322700D03*
X77354200Y13647700D03*
Y15447700D03*
Y31697700D03*
X77979200Y35772700D03*
X79054200Y13647700D03*
Y15447700D03*
X79679200Y35772700D03*
X81154200Y15447700D03*
X81304200Y30422700D03*
X82854200Y15447700D03*
X83004200Y30422700D03*
X83879200Y40147700D03*
X85529200Y47047700D03*
Y48897700D03*
X85554200Y45397700D03*
X85579200Y40147700D03*
X86904200Y41922700D03*
Y43547700D03*
X87229200Y47047700D03*
Y48897700D03*
X87254200Y45397700D03*
X87429200Y40222700D03*
X87904200Y27122700D03*
X88604200Y41922700D03*
Y43547700D03*
X89129200Y40222700D03*
X89604200Y27122700D03*
X90279200Y22047700D03*
X90754200Y9472700D03*
X91879200Y36997700D03*
X91979200Y22047700D03*
X92454200Y9472700D03*
X93579200Y36997700D03*
X97404200Y15397700D03*
X98454200Y43622700D03*
X99104200Y15397700D03*
X99854200Y55472700D03*
X99904200Y52897700D03*
X100154200Y43622700D03*
X100354200Y50672700D03*
X101554200Y55472700D03*
X101604200Y52897700D03*
X102054200Y41497700D03*
Y50672700D03*
X103054200Y45347700D03*
X103754200Y41497700D03*
X104754200Y45347700D03*
X106229200Y40072700D03*
X107929200D03*
X113754200Y56047700D03*
X115454200D03*
X116379200Y46147700D03*
X116429200Y38972700D03*
Y41172700D03*
Y43372700D03*
X116604200Y59547700D03*
X118079200Y46147700D03*
X118104200Y48622700D03*
X118129200Y38972700D03*
Y41172700D03*
Y43372700D03*
X118304200Y59547700D03*
X119804200Y48622700D03*
X122854200Y57397700D03*
X122879200Y49597700D03*
Y59172700D03*
X123004200Y51797700D03*
X124554200Y57397700D03*
X124579200Y49597700D03*
Y59172700D03*
X124704200Y51797700D03*
X127979200Y53622700D03*
X128004200Y55547700D03*
X129679200Y53622700D03*
X129704200Y55547700D03*
D02*
D11*
X54604200Y63697700D03*
Y65397700D03*
X56304200Y63697700D03*
Y65397700D03*
X61404200Y63747700D03*
Y65447700D03*
X63104200Y63697700D03*
Y65397700D03*
X68304200Y63697700D03*
Y65397700D03*
X70004200Y63697700D03*
Y65397700D03*
X75104200Y63697700D03*
Y65397700D03*
X75354200Y41047700D03*
Y42747700D03*
X76804200Y63697700D03*
Y65397700D03*
X82004200Y63697700D03*
Y65397700D03*
X82704200Y43822700D03*
Y45522700D03*
X82729200Y47247700D03*
Y48947700D03*
X83704200Y63697700D03*
Y65397700D03*
X88704200Y63697700D03*
Y65397700D03*
X90404200Y63697700D03*
Y65397700D03*
X90679200Y42972700D03*
Y44672700D03*
X92279200Y38897700D03*
Y40597700D03*
X92404200Y42947700D03*
Y44647700D03*
X94904200Y57297700D03*
Y58997700D03*
X96629200Y53647700D03*
Y55347700D03*
X106179200Y47847700D03*
Y49547700D03*
X107854200Y45272700D03*
Y46972700D03*
X112404200Y51597700D03*
Y53297700D03*
X114079200Y51622700D03*
Y53322700D03*
X115804200Y51672700D03*
Y53372700D03*
X129654200Y48972700D03*
Y50672700D03*
X129704200Y57772700D03*
Y59472700D03*
D02*
D12*
X106235300Y41722700D03*
Y42222700D03*
Y42722700D03*
Y43222700D03*
Y43722700D03*
X110223100Y41722700D03*
Y42222700D03*
Y42722700D03*
Y43222700D03*
Y43722700D03*
D02*
D13*
X104534800Y51022700D03*
Y51672700D03*
Y52322700D03*
Y52972700D03*
Y53622700D03*
Y54272700D03*
Y54922700D03*
Y55572700D03*
Y56222700D03*
Y56872700D03*
Y57522700D03*
Y58172700D03*
X110173600Y51022700D03*
Y51672700D03*
Y52322700D03*
Y52972700D03*
Y53622700D03*
Y54272700D03*
Y54922700D03*
Y55572700D03*
Y56222700D03*
Y56872700D03*
Y57522700D03*
Y58172700D03*
D02*
D14*
X121760300Y53597700D03*
Y54247700D03*
Y54897700D03*
Y55547700D03*
X125748100Y53597700D03*
Y54247700D03*
Y54897700D03*
Y55547700D03*
D02*
D15*
X78104200Y17947700D03*
D02*
D16*
X80455200D03*
D02*
D17*
X54454200Y59447700D03*
X55404200Y61647700D03*
X56354200Y59447700D03*
X61254200D03*
X62204200Y61647700D03*
X63154200Y59447700D03*
X68154200D03*
X69104200Y61647700D03*
X70054200Y59447700D03*
X74954200D03*
X75904200Y61647700D03*
X76854200Y59447700D03*
X81754200D03*
X82704200Y61647700D03*
X83654200Y59447700D03*
X88654200D03*
X89604200Y61647700D03*
X90554200Y59447700D03*
X96504200Y57347700D03*
X97454200Y59547700D03*
X98404200Y57347700D03*
D02*
D18*
X103979200Y59897700D03*
Y66997700D03*
X104629200Y59897700D03*
Y66997700D03*
X105279200Y59897700D03*
Y66997700D03*
X105929200Y59897700D03*
Y66997700D03*
X106579200Y59897700D03*
Y66997700D03*
X107229200Y59897700D03*
Y66997700D03*
X107879200Y59897700D03*
Y66997700D03*
X108529200Y59897700D03*
Y66997700D03*
X109179200Y59897700D03*
Y66997700D03*
X109829200Y59897700D03*
Y66997700D03*
D02*
D19*
X90749200Y11234700D03*
Y16060700D03*
X92019200Y11234700D03*
Y16060700D03*
X93289200Y11234700D03*
Y16060700D03*
X94559200Y11234700D03*
Y16060700D03*
D02*
D70*
X42104200Y3347700D02*
X142104200D01*
Y83347700*
X42104200*
Y3347700*
X0Y0D02*
M02*
