%FSLAX36Y36*%
%MOMM*%
G04 EasyPC Gerber Version 18.0.8 Build 3632 *
%ADD11C,0.12700*%
%ADD12C,0.20000*%
X0Y0D02*
D02*
D11*
X41512700Y97411500D02*
G75*
G03X40012700Y95911500J-1500000D01*
G01*
Y69411500*
G75*
G03X41512700Y67911500I1500000*
G01*
X50012700*
G75*
G02X51012700Y66911500J-1000000*
G01*
Y65911500*
G75*
G02X50012700Y64911500I-1000000*
G01*
X41512700*
G75*
G03X40012700Y63411500J-1500000*
G01*
Y36911500*
G75*
G03X41512700Y35411500I1500000*
G01*
X147012700*
G75*
G03X148512700Y36911500J1500000*
G01*
Y63411500*
G75*
G03X147012700Y64911500I-1500000*
G01*
X138012700*
G75*
G02X137012700Y65911500J1000000*
G01*
Y66911500*
G75*
G02X138012700Y67911500I1000000*
G01*
X147012700*
G75*
G03X148512700Y69411500J1500000*
G01*
Y95911500*
G75*
G03X147012700Y97411500I-1500000*
G01*
X41512700*
X53012700Y67911500D02*
G75*
G03X52012700Y66911500J-1000000D01*
G01*
Y65911500*
G75*
G03X53012700Y64911500I1000000*
G01*
X135012700*
G75*
G03X136012700Y65911500J1000000*
G01*
Y66911500*
G75*
G03X135012700Y67911500I-1000000*
G01*
X53012700*
X55762700Y53911500D02*
G75*
G03X55262700Y53411500J-500000D01*
G01*
Y43511500*
G75*
G03X55662700Y43111500I400000*
G01*
X63862700*
G75*
G03X64262700Y43511500J400000*
G01*
Y53411500*
G75*
G03X63762700Y53911500I-500000*
G01*
X55762700*
X60441700Y86976500D02*
G75*
G03X56957300Y83492100J-3484400D01*
G01*
X53962700*
G75*
G03X52474700Y82004100J-1488000*
G01*
Y81954500*
G75*
G03X53956500Y80472700I1481800*
G01*
X56975900*
Y80460300*
G75*
G03X60447900Y76988300I3472000*
G01*
X80765300*
G75*
G03X84262100Y80485100J3496800*
G01*
X87269100*
G75*
G03X88750900Y81966900J1481800*
G01*
Y82022700*
G75*
G03X87275300Y83498300I-1475600*
G01*
X84262100*
G75*
G03X80783900Y86976500I-3478200*
G01*
X60441700*
X70262700Y54511500D02*
G75*
G03X69762700Y54011500J-500000D01*
G01*
Y43711500*
G75*
G03X70262700Y43211500I500000*
G01*
X81712700*
G75*
G03X82212700Y43711500J500000*
G01*
Y54011500*
G75*
G03X81712700Y54511500I-500000*
G01*
X70262700*
X88062700Y45211500D02*
G75*
G03X87562700Y44711500J-500000D01*
G01*
Y43711500*
G75*
G03X88062700Y43211500I500000*
G01*
X101112700*
G75*
G03X101612700Y43711500J500000*
G01*
Y44711500*
G75*
G03X101112700Y45211500I-500000*
G01*
X88062700*
X107762700Y86976500D02*
G75*
G03X104278300Y83492100J-3484400D01*
G01*
X101283700*
G75*
G03X99795700Y82004100J-1488000*
G01*
Y81954500*
G75*
G03X101277500Y80472700I1481800*
G01*
X104296900*
Y80460300*
G75*
G03X107768900Y76988300I3472000*
G01*
X128086300*
G75*
G03X131583100Y80485100J3496800*
G01*
X134590100*
G75*
G03X136071900Y81966900J1481800*
G01*
Y82022700*
G75*
G03X134596300Y83498300I-1475600*
G01*
X131583100*
G75*
G03X128104900Y86976500I-3478200*
G01*
X107762700*
X108062700Y56811500D02*
G75*
G03X107562700Y56311500J-500000D01*
G01*
Y43711500*
G75*
G03X108062700Y43211500I500000*
G01*
X123312700*
G75*
G03X123812700Y43711500J500000*
G01*
Y56311500*
G75*
G03X123312700Y56811500I-500000*
G01*
X108062700*
D02*
D12*
X53512700Y40729000D02*
X53671500Y40649600D01*
X53909600*
X54068300Y40729000*
X54147700Y40887800*
Y40967100*
X54068300Y41125900*
X53909600Y41205300*
X53512700*
Y41602100*
X54147700*
X54782700D02*
X55179600Y40649600D01*
X55576500Y41602100*
X57957700Y41046500D02*
X57878300Y41205300D01*
X57719600Y41284600*
X57560800*
X57402100Y41205300*
X57322700Y41046500*
Y40887800*
X57402100Y40729000*
X57560800Y40649600*
X57719600*
X57878300Y40729000*
X57957700Y40887800*
Y40649600D02*
Y41602100D01*
X59227700Y41205300D02*
X59069000Y41284600D01*
X58830800*
X58672100Y41205300*
X58592700Y41046500*
Y40887800*
X58672100Y40729000*
X58830800Y40649600*
X59069000*
X59227700Y40729000*
X61132700Y40967100D02*
X61767700D01*
X63831500Y40649600D02*
X64149000D01*
X63990200D02*
Y41602100D01*
X63831500Y41443400*
X64942700Y40649600D02*
X65339600Y41602100D01*
X65736500Y40649600*
X65101500Y41046500D02*
X65577700D01*
X67012700Y74149600D02*
X67409600Y75102100D01*
X67806500Y74149600*
X67171500Y74546500D02*
X67647700D01*
X68282700Y74149600D02*
Y74784600D01*
Y74546500D02*
X68362100Y74705300D01*
X68520800Y74784600*
X68679600*
X68838300Y74705300*
X68917700Y74546500*
Y74149600*
X69552700Y74705300D02*
X69711500Y74784600D01*
X69949600*
X70108300Y74705300*
X70187700Y74546500*
Y74308400*
X70108300Y74229000*
X69949600Y74149600*
X69790800*
X69632100Y74229000*
X69552700Y74308400*
Y74387800*
X69632100Y74467100*
X69790800Y74546500*
X69949600*
X70108300Y74467100*
X70187700Y74387800*
Y74308400D02*
Y74149600D01*
X71219600D02*
X71140200D01*
Y75102100*
X72092700Y74387800D02*
X72172100Y74229000D01*
X72330800Y74149600*
X72489600*
X72648300Y74229000*
X72727700Y74387800*
Y74546500*
X72648300Y74705300*
X72489600Y74784600*
X72330800*
X72172100Y74705300*
X72092700Y74546500*
Y74387800*
X73997700Y74546500D02*
X73918300Y74705300D01*
X73759600Y74784600*
X73600800*
X73442100Y74705300*
X73362700Y74546500*
Y74467100*
X73442100Y74308400*
X73600800Y74229000*
X73759600*
X73918300Y74308400*
X73997700Y74467100*
Y74784600D02*
Y74149600D01*
X73918300Y73990900*
X73759600Y73911500*
X73521500*
X73362700Y73990900*
X74012700Y41602100D02*
Y40887800D01*
X74092100Y40729000*
X74250800Y40649600*
X74568300*
X74727100Y40729000*
X74806500Y40887800*
Y41602100*
X75282700Y40887800D02*
X75362100Y40729000D01*
X75520800Y40649600*
X75838300*
X75997100Y40729000*
X76076500Y40887800*
X75997100Y41046500*
X75838300Y41125900*
X75520800*
X75362100Y41205300*
X75282700Y41364000*
X75362100Y41522800*
X75520800Y41602100*
X75838300*
X75997100Y41522800*
X76076500Y41364000*
X77108300Y41125900D02*
X77267100Y41046500D01*
X77346500Y40887800*
X77267100Y40729000*
X77108300Y40649600*
X76552700*
Y41602100*
X77108300*
X77267100Y41522800*
X77346500Y41364000*
X77267100Y41205300*
X77108300Y41125900*
X76552700*
X74012700Y59534600D02*
Y58979000D01*
X74092100Y58899600*
X74250800*
X74330200Y58979000*
Y59217100*
Y58979000D02*
X74409600Y58899600D01*
X74568300*
X74647700Y58979000*
Y59534600*
X75282700D02*
Y58979000D01*
X75362100Y58899600*
X75520800*
X75600200Y58979000*
Y59217100*
Y58979000D02*
X75679600Y58899600D01*
X75838300*
X75917700Y58979000*
Y59534600*
X76552700D02*
Y58979000D01*
X76632100Y58899600*
X76790800*
X76870200Y58979000*
Y59217100*
Y58979000D02*
X76949600Y58899600D01*
X77108300*
X77187700Y58979000*
Y59534600*
X77902100Y58899600D02*
X77981500Y58979000D01*
X77902100Y59058400*
X77822700Y58979000*
X77902100Y58899600*
X79092700D02*
Y59534600D01*
Y59296500D02*
X79172100Y59455300D01*
X79330800Y59534600*
X79489600*
X79648300Y59455300*
X79727700Y59296500*
Y58899600*
X80997700Y58979000D02*
X80918300Y58899600D01*
X80759600*
X80600800*
X80442100Y58979000*
X80362700Y59137800*
Y59375900*
X80442100Y59455300*
X80600800Y59534600*
X80759600*
X80918300Y59455300*
X80997700Y59375900*
Y59296500*
X80918300Y59217100*
X80759600Y59137800*
X80600800*
X80442100Y59217100*
X80362700Y59296500*
X81632700Y59534600D02*
Y58979000D01*
X81712100Y58899600*
X81870800*
X81950200Y58979000*
Y59217100*
Y58979000D02*
X82029600Y58899600D01*
X82188300*
X82267700Y58979000*
Y59534600*
X83061500D02*
X83379000D01*
X83220200Y59693400D02*
Y58979000D01*
X83299600Y58899600*
X83379000*
X83458300Y58979000*
X84172700Y58899600D02*
Y59852100D01*
Y59296500D02*
X84252100Y59455300D01*
X84410800Y59534600*
X84569600*
X84728300Y59455300*
X84807700Y59296500*
Y58899600*
X85760200D02*
Y59534600D01*
Y59772800D02*
X86712700Y58899600*
Y59534600D01*
Y59296500D02*
X86792100Y59455300D01*
X86950800Y59534600*
X87109600*
X87268300Y59455300*
X87347700Y59296500*
Y58899600*
X87982700D02*
Y59852100D01*
Y59217100D02*
X88220800D01*
X88617700Y59534600*
X88220800Y59217100D02*
X88617700Y58899600D01*
X89570200D02*
Y59534600D01*
Y59772800D02*
X90522700Y58899600*
Y59534600D01*
Y59296500D02*
X90602100Y59455300D01*
X90760800Y59534600*
X90919600*
X91078300Y59455300*
X91157700Y59296500*
Y58899600*
X92427700Y59296500D02*
X92348300Y59455300D01*
X92189600Y59534600*
X92030800*
X91872100Y59455300*
X91792700Y59296500*
Y59217100*
X91872100Y59058400*
X92030800Y58979000*
X92189600*
X92348300Y59058400*
X92427700Y59217100*
Y59534600D02*
Y58899600D01*
X92348300Y58740900*
X92189600Y58661500*
X91951500*
X91792700Y58740900*
X93221500Y59534600D02*
X93539000D01*
X93380200Y59693400D02*
Y58979000D01*
X93459600Y58899600*
X93539000*
X93618300Y58979000*
X94967700D02*
X94888300Y58899600D01*
X94729600*
X94570800*
X94412100Y58979000*
X94332700Y59137800*
Y59375900*
X94412100Y59455300*
X94570800Y59534600*
X94729600*
X94888300Y59455300*
X94967700Y59375900*
Y59296500*
X94888300Y59217100*
X94729600Y59137800*
X94570800*
X94412100Y59217100*
X94332700Y59296500*
X96237700Y59455300D02*
X96079000Y59534600D01*
X95840800*
X95682100Y59455300*
X95602700Y59296500*
Y59137800*
X95682100Y58979000*
X95840800Y58899600*
X96079000*
X96237700Y58979000*
X96872700Y58899600D02*
Y59852100D01*
Y59296500D02*
X96952100Y59455300D01*
X97110800Y59534600*
X97269600*
X97428300Y59455300*
X97507700Y59296500*
Y58899600*
X98142700D02*
Y59534600D01*
Y59296500D02*
X98222100Y59455300D01*
X98380800Y59534600*
X98539600*
X98698300Y59455300*
X98777700Y59296500*
Y58899600*
X99412700Y59137800D02*
X99492100Y58979000D01*
X99650800Y58899600*
X99809600*
X99968300Y58979000*
X100047700Y59137800*
Y59296500*
X99968300Y59455300*
X99809600Y59534600*
X99650800*
X99492100Y59455300*
X99412700Y59296500*
Y59137800*
X101079600Y58899600D02*
X101000200D01*
Y59852100*
X101952700Y59137800D02*
X102032100Y58979000D01*
X102190800Y58899600*
X102349600*
X102508300Y58979000*
X102587700Y59137800*
Y59296500*
X102508300Y59455300*
X102349600Y59534600*
X102190800*
X102032100Y59455300*
X101952700Y59296500*
Y59137800*
X103857700Y59296500D02*
X103778300Y59455300D01*
X103619600Y59534600*
X103460800*
X103302100Y59455300*
X103222700Y59296500*
Y59217100*
X103302100Y59058400*
X103460800Y58979000*
X103619600*
X103778300Y59058400*
X103857700Y59217100*
Y59534600D02*
Y58899600D01*
X103778300Y58740900*
X103619600Y58661500*
X103381500*
X103222700Y58740900*
X104810200Y58899600D02*
Y59534600D01*
Y59772800D02*
X106397700Y58979000*
X106318300Y58899600D01*
X106159600*
X106000800*
X105842100Y58979000*
X105762700Y59137800*
Y59375900*
X105842100Y59455300*
X106000800Y59534600*
X106159600*
X106318300Y59455300*
X106397700Y59375900*
Y59296500*
X106318300Y59217100*
X106159600Y59137800*
X106000800*
X105842100Y59217100*
X105762700Y59296500*
X107032700Y58979000D02*
X107191500Y58899600D01*
X107509000*
X107667700Y58979000*
Y59137800*
X107509000Y59217100*
X107191500*
X107032700Y59296500*
Y59455300*
X107191500Y59534600*
X107509000*
X107667700Y59455300*
X108382100Y58899600D02*
X108461500Y58979000D01*
X108382100Y59058400*
X108302700Y58979000*
X108382100Y58899600*
X110207700Y59455300D02*
X110049000Y59534600D01*
X109810800*
X109652100Y59455300*
X109572700Y59296500*
Y59137800*
X109652100Y58979000*
X109810800Y58899600*
X110049000*
X110207700Y58979000*
X110842700Y59137800D02*
X110922100Y58979000D01*
X111080800Y58899600*
X111239600*
X111398300Y58979000*
X111477700Y59137800*
Y59296500*
X111398300Y59455300*
X111239600Y59534600*
X111080800*
X110922100Y59455300*
X110842700Y59296500*
Y59137800*
X112192100Y58899600D02*
X112271500Y58979000D01*
X112192100Y59058400*
X112112700Y58979000*
X112192100Y58899600*
X113382700Y59534600D02*
Y59137800D01*
X113462100Y58979000*
X113620800Y58899600*
X113779600*
X113938300Y58979000*
X114017700Y59137800*
Y59534600D02*
Y58899600D01*
X114652700D02*
Y59852100D01*
Y59217100D02*
X114890800D01*
X115287700Y59534600*
X114890800Y59217100D02*
X115287700Y58899600D01*
X78012700Y61149600D02*
Y62102100D01*
X78806500Y61149600*
Y62102100*
X79917700Y61229000D02*
X79838300Y61149600D01*
X79679600*
X79520800*
X79362100Y61229000*
X79282700Y61387800*
Y61625900*
X79362100Y61705300*
X79520800Y61784600*
X79679600*
X79838300Y61705300*
X79917700Y61625900*
Y61546500*
X79838300Y61467100*
X79679600Y61387800*
X79520800*
X79362100Y61467100*
X79282700Y61546500*
X80552700Y61784600D02*
Y61229000D01*
X80632100Y61149600*
X80790800*
X80870200Y61229000*
Y61467100*
Y61229000D02*
X80949600Y61149600D01*
X81108300*
X81187700Y61229000*
Y61784600*
X83489600Y61149600D02*
Y62102100D01*
X83092700D02*
X83886500D01*
X84362700Y61149600D02*
Y62102100D01*
Y61546500D02*
X84442100Y61705300D01*
X84600800Y61784600*
X84759600*
X84918300Y61705300*
X84997700Y61546500*
Y61149600*
X85950200D02*
Y61784600D01*
Y62022800D02*
X86902700Y61149600*
Y61784600D01*
Y61546500D02*
X86982100Y61705300D01*
X87140800Y61784600*
X87299600*
X87458300Y61705300*
X87537700Y61546500*
Y61149600*
X88172700D02*
Y62102100D01*
Y61467100D02*
X88410800D01*
X88807700Y61784600*
X88410800Y61467100D02*
X88807700Y61149600D01*
X89760200D02*
Y61784600D01*
Y62022800D02*
X90712700Y61149600*
Y61784600D01*
Y61546500D02*
X90792100Y61705300D01*
X90950800Y61784600*
X91109600*
X91268300Y61705300*
X91347700Y61546500*
Y61149600*
X92617700Y61546500D02*
X92538300Y61705300D01*
X92379600Y61784600*
X92220800*
X92062100Y61705300*
X91982700Y61546500*
Y61467100*
X92062100Y61308400*
X92220800Y61229000*
X92379600*
X92538300Y61308400*
X92617700Y61467100*
Y61784600D02*
Y61149600D01*
X92538300Y60990900*
X92379600Y60911500*
X92141500*
X91982700Y60990900*
X94919600Y61149600D02*
Y62102100D01*
X94522700D02*
X95316500D01*
X96427700Y61229000D02*
X96348300Y61149600D01*
X96189600*
X96030800*
X95872100Y61229000*
X95792700Y61387800*
Y61625900*
X95872100Y61705300*
X96030800Y61784600*
X96189600*
X96348300Y61705300*
X96427700Y61625900*
Y61546500*
X96348300Y61467100*
X96189600Y61387800*
X96030800*
X95872100Y61467100*
X95792700Y61546500*
X97697700Y61705300D02*
X97539000Y61784600D01*
X97300800*
X97142100Y61705300*
X97062700Y61546500*
Y61387800*
X97142100Y61229000*
X97300800Y61149600*
X97539000*
X97697700Y61229000*
X98332700Y61149600D02*
Y62102100D01*
Y61546500D02*
X98412100Y61705300D01*
X98570800Y61784600*
X98729600*
X98888300Y61705300*
X98967700Y61546500*
Y61149600*
X99602700D02*
Y61784600D01*
Y61546500D02*
X99682100Y61705300D01*
X99840800Y61784600*
X99999600*
X100158300Y61705300*
X100237700Y61546500*
Y61149600*
X100872700Y61387800D02*
X100952100Y61229000D01*
X101110800Y61149600*
X101269600*
X101428300Y61229000*
X101507700Y61387800*
Y61546500*
X101428300Y61705300*
X101269600Y61784600*
X101110800*
X100952100Y61705300*
X100872700Y61546500*
Y61387800*
X102539600Y61149600D02*
X102460200D01*
Y62102100*
X103412700Y61387800D02*
X103492100Y61229000D01*
X103650800Y61149600*
X103809600*
X103968300Y61229000*
X104047700Y61387800*
Y61546500*
X103968300Y61705300*
X103809600Y61784600*
X103650800*
X103492100Y61705300*
X103412700Y61546500*
Y61387800*
X105317700Y61546500D02*
X105238300Y61705300D01*
X105079600Y61784600*
X104920800*
X104762100Y61705300*
X104682700Y61546500*
Y61467100*
X104762100Y61308400*
X104920800Y61229000*
X105079600*
X105238300Y61308400*
X105317700Y61467100*
Y61784600D02*
Y61149600D01*
X105238300Y60990900*
X105079600Y60911500*
X104841500*
X104682700Y60990900*
X106270200Y61149600D02*
Y61784600D01*
Y62022800D02*
X107857700Y61229000*
X107778300Y61149600D01*
X107619600*
X107460800*
X107302100Y61229000*
X107222700Y61387800*
Y61625900*
X107302100Y61705300*
X107460800Y61784600*
X107619600*
X107778300Y61705300*
X107857700Y61625900*
Y61546500*
X107778300Y61467100*
X107619600Y61387800*
X107460800*
X107302100Y61467100*
X107222700Y61546500*
X108492700Y61229000D02*
X108651500Y61149600D01*
X108969000*
X109127700Y61229000*
Y61387800*
X108969000Y61467100*
X108651500*
X108492700Y61546500*
Y61705300*
X108651500Y61784600*
X108969000*
X109127700Y61705300*
X78512700Y93649600D02*
Y94602100D01*
X79306500Y93649600*
Y94602100*
X80417700Y93729000D02*
X80338300Y93649600D01*
X80179600*
X80020800*
X79862100Y93729000*
X79782700Y93887800*
Y94125900*
X79862100Y94205300*
X80020800Y94284600*
X80179600*
X80338300Y94205300*
X80417700Y94125900*
Y94046500*
X80338300Y93967100*
X80179600Y93887800*
X80020800*
X79862100Y93967100*
X79782700Y94046500*
X81052700Y94284600D02*
Y93729000D01*
X81132100Y93649600*
X81290800*
X81370200Y93729000*
Y93967100*
Y93729000D02*
X81449600Y93649600D01*
X81608300*
X81687700Y93729000*
Y94284600*
X83989600Y93649600D02*
Y94602100D01*
X83592700D02*
X84386500D01*
X84862700Y93649600D02*
Y94602100D01*
Y94046500D02*
X84942100Y94205300D01*
X85100800Y94284600*
X85259600*
X85418300Y94205300*
X85497700Y94046500*
Y93649600*
X86450200D02*
Y94284600D01*
Y94522800D02*
X87402700Y93649600*
Y94284600D01*
Y94046500D02*
X87482100Y94205300D01*
X87640800Y94284600*
X87799600*
X87958300Y94205300*
X88037700Y94046500*
Y93649600*
X88672700D02*
Y94602100D01*
Y93967100D02*
X88910800D01*
X89307700Y94284600*
X88910800Y93967100D02*
X89307700Y93649600D01*
X90260200D02*
Y94284600D01*
Y94522800D02*
X91212700Y93649600*
Y94284600D01*
Y94046500D02*
X91292100Y94205300D01*
X91450800Y94284600*
X91609600*
X91768300Y94205300*
X91847700Y94046500*
Y93649600*
X93117700Y94046500D02*
X93038300Y94205300D01*
X92879600Y94284600*
X92720800*
X92562100Y94205300*
X92482700Y94046500*
Y93967100*
X92562100Y93808400*
X92720800Y93729000*
X92879600*
X93038300Y93808400*
X93117700Y93967100*
Y94284600D02*
Y93649600D01*
X93038300Y93490900*
X92879600Y93411500*
X92641500*
X92482700Y93490900*
X95419600Y93649600D02*
Y94602100D01*
X95022700D02*
X95816500D01*
X96927700Y93729000D02*
X96848300Y93649600D01*
X96689600*
X96530800*
X96372100Y93729000*
X96292700Y93887800*
Y94125900*
X96372100Y94205300*
X96530800Y94284600*
X96689600*
X96848300Y94205300*
X96927700Y94125900*
Y94046500*
X96848300Y93967100*
X96689600Y93887800*
X96530800*
X96372100Y93967100*
X96292700Y94046500*
X98197700Y94205300D02*
X98039000Y94284600D01*
X97800800*
X97642100Y94205300*
X97562700Y94046500*
Y93887800*
X97642100Y93729000*
X97800800Y93649600*
X98039000*
X98197700Y93729000*
X98832700Y93649600D02*
Y94602100D01*
Y94046500D02*
X98912100Y94205300D01*
X99070800Y94284600*
X99229600*
X99388300Y94205300*
X99467700Y94046500*
Y93649600*
X100102700D02*
Y94284600D01*
Y94046500D02*
X100182100Y94205300D01*
X100340800Y94284600*
X100499600*
X100658300Y94205300*
X100737700Y94046500*
Y93649600*
X101372700Y93887800D02*
X101452100Y93729000D01*
X101610800Y93649600*
X101769600*
X101928300Y93729000*
X102007700Y93887800*
Y94046500*
X101928300Y94205300*
X101769600Y94284600*
X101610800*
X101452100Y94205300*
X101372700Y94046500*
Y93887800*
X103039600Y93649600D02*
X102960200D01*
Y94602100*
X103912700Y93887800D02*
X103992100Y93729000D01*
X104150800Y93649600*
X104309600*
X104468300Y93729000*
X104547700Y93887800*
Y94046500*
X104468300Y94205300*
X104309600Y94284600*
X104150800*
X103992100Y94205300*
X103912700Y94046500*
Y93887800*
X105817700Y94046500D02*
X105738300Y94205300D01*
X105579600Y94284600*
X105420800*
X105262100Y94205300*
X105182700Y94046500*
Y93967100*
X105262100Y93808400*
X105420800Y93729000*
X105579600*
X105738300Y93808400*
X105817700Y93967100*
Y94284600D02*
Y93649600D01*
X105738300Y93490900*
X105579600Y93411500*
X105341500*
X105182700Y93490900*
X106770200Y93649600D02*
Y94284600D01*
Y94522800D02*
X108357700Y93729000*
X108278300Y93649600D01*
X108119600*
X107960800*
X107802100Y93729000*
X107722700Y93887800*
Y94125900*
X107802100Y94205300*
X107960800Y94284600*
X108119600*
X108278300Y94205300*
X108357700Y94125900*
Y94046500*
X108278300Y93967100*
X108119600Y93887800*
X107960800*
X107802100Y93967100*
X107722700Y94046500*
X108992700Y93729000D02*
X109151500Y93649600D01*
X109469000*
X109627700Y93729000*
Y93887800*
X109469000Y93967100*
X109151500*
X108992700Y94046500*
Y94205300*
X109151500Y94284600*
X109469000*
X109627700Y94205300*
X89762700Y72387800D02*
X89842100Y72229000D01*
X90000800Y72149600*
X90318300*
X90477100Y72229000*
X90556500Y72387800*
X90477100Y72546500*
X90318300Y72625900*
X90000800*
X89842100Y72705300*
X89762700Y72864000*
X89842100Y73022800*
X90000800Y73102100*
X90318300*
X90477100Y73022800*
X90556500Y72864000*
X91032700Y72149600D02*
Y73102100D01*
X91429600Y72625900*
X91826500Y73102100*
Y72149600*
X92302700D02*
X92699600Y73102100D01*
X93096500Y72149600*
X92461500Y72546500D02*
X92937700D01*
X93572700Y72149600D02*
Y73102100D01*
X94128300*
X94287100Y73022800*
X94366500Y72864000*
X94287100Y72705300*
X94128300Y72625900*
X93572700*
X94128300D02*
X94366500Y72149600D01*
X95239600D02*
Y73102100D01*
X94842700D02*
X95636500D01*
X96112700Y72467100D02*
X96747700D01*
X97382700Y72149600D02*
X97779600Y73102100D01*
X98176500Y72149600*
X97541500Y72546500D02*
X98017700D01*
X90012700Y40649600D02*
Y41602100D01*
X90409600Y41125900*
X90806500Y41602100*
Y40649600*
X91600200D02*
Y41284600D01*
Y41522800D02*
X93187700Y41205300*
X93029000Y41284600D01*
X92790800*
X92632100Y41205300*
X92552700Y41046500*
Y40887800*
X92632100Y40729000*
X92790800Y40649600*
X93029000*
X93187700Y40729000*
X93822700Y40649600D02*
Y41284600D01*
Y41046500D02*
X93902100Y41205300D01*
X94060800Y41284600*
X94219600*
X94378300Y41205300*
X95092700Y40887800D02*
X95172100Y40729000D01*
X95330800Y40649600*
X95489600*
X95648300Y40729000*
X95727700Y40887800*
Y41046500*
X95648300Y41205300*
X95489600Y41284600*
X95330800*
X95172100Y41205300*
X95092700Y41046500*
Y40887800*
X97632700D02*
X97712100Y40729000D01*
X97870800Y40649600*
X98188300*
X98347100Y40729000*
X98426500Y40887800*
X98347100Y41046500*
X98188300Y41125900*
X97870800*
X97712100Y41205300*
X97632700Y41364000*
X97712100Y41522800*
X97870800Y41602100*
X98188300*
X98347100Y41522800*
X98426500Y41364000*
X98902700Y40649600D02*
Y41602100D01*
X99379000*
X99537700Y41522800*
X99617100Y41443400*
X99696500Y41284600*
Y40967100*
X99617100Y40808400*
X99537700Y40729000*
X99379000Y40649600*
X98902700*
X90512700Y75102100D02*
Y74149600D01*
X91306500*
X91782700Y74387800D02*
X91862100Y74229000D01*
X92020800Y74149600*
X92179600*
X92338300Y74229000*
X92417700Y74387800*
Y74546500*
X92338300Y74705300*
X92179600Y74784600*
X92020800*
X91862100Y74705300*
X91782700Y74546500*
Y74387800*
X93687700Y74546500D02*
X93608300Y74705300D01*
X93449600Y74784600*
X93290800*
X93132100Y74705300*
X93052700Y74546500*
Y74467100*
X93132100Y74308400*
X93290800Y74229000*
X93449600*
X93608300Y74308400*
X93687700Y74467100*
Y74784600D02*
Y74149600D01*
X93608300Y73990900*
X93449600Y73911500*
X93211500*
X93052700Y73990900*
X94322700Y74387800D02*
X94402100Y74229000D01*
X94560800Y74149600*
X94719600*
X94878300Y74229000*
X94957700Y74387800*
Y74546500*
X94878300Y74705300*
X94719600Y74784600*
X94560800*
X94402100Y74705300*
X94322700Y74546500*
Y74149600D02*
Y75102100D01*
X95592700Y74387800D02*
X95672100Y74229000D01*
X95830800Y74149600*
X95989600*
X96148300Y74229000*
X96227700Y74387800*
Y74546500*
X96148300Y74705300*
X95989600Y74784600*
X95830800*
X95672100Y74705300*
X95592700Y74546500*
Y74387800*
X96862700Y74149600D02*
X97497700Y74784600D01*
Y74149600D02*
X96862700Y74784600D01*
X111512700Y40649600D02*
Y41602100D01*
X112306500*
X112147700Y41125900D02*
X111512700D01*
Y40649600D02*
X112306500D01*
X113179600D02*
Y41602100D01*
X112782700D02*
X113576500D01*
X114052700Y40649600D02*
Y41602100D01*
Y41125900D02*
X114846500D01*
Y40649600D02*
Y41602100D01*
X115322700Y40649600D02*
Y41602100D01*
X116116500*
X115957700Y41125900D02*
X115322700D01*
Y40649600D02*
X116116500D01*
X116592700D02*
Y41602100D01*
X117148300*
X117307100Y41522800*
X117386500Y41364000*
X117307100Y41205300*
X117148300Y41125900*
X116592700*
X117148300D02*
X117386500Y40649600D01*
X117862700D02*
Y41602100D01*
X118656500Y40649600*
Y41602100*
X119132700Y40649600D02*
Y41602100D01*
X119926500*
X119767700Y41125900D02*
X119132700D01*
Y40649600D02*
X119926500D01*
X120799600D02*
Y41602100D01*
X120402700D02*
X121196500D01*
X114512700Y74149600D02*
Y75102100D01*
X114989000*
X115147700Y75022800*
X115227100Y74943400*
X115306500Y74784600*
Y74467100*
X115227100Y74308400*
X115147700Y74229000*
X114989000Y74149600*
X114512700*
X116100200D02*
Y74784600D01*
Y75022800D02*
X117687700Y74546500*
X117608300Y74705300D01*
X117449600Y74784600*
X117290800*
X117132100Y74705300*
X117052700Y74546500*
Y74467100*
X117132100Y74308400*
X117290800Y74229000*
X117449600*
X117608300Y74308400*
X117687700Y74467100*
Y74784600D02*
Y74149600D01*
X117608300Y73990900*
X117449600Y73911500*
X117211500*
X117052700Y73990900*
X118640200Y74149600D02*
Y74784600D01*
Y75022800D02*
X119751500Y74784600*
X120069000D01*
X119910200Y74943400D02*
Y74229000D01*
X119989600Y74149600*
X120069000*
X120148300Y74229000*
X120862700Y74705300D02*
X121021500Y74784600D01*
X121259600*
X121418300Y74705300*
X121497700Y74546500*
Y74308400*
X121418300Y74229000*
X121259600Y74149600*
X121100800*
X120942100Y74229000*
X120862700Y74308400*
Y74387800*
X120942100Y74467100*
X121100800Y74546500*
X121259600*
X121418300Y74467100*
X121497700Y74387800*
Y74308400D02*
Y74149600D01*
X122529600D02*
X122450200D01*
Y75102100*
X0Y0D02*
M02*
